Italic.ufo
<glyph name="exclam" format="2">
  <advance width="644"/>
  <unicode hex="0021"/>
  <outline>
    <contour>
      <point x="402" y="469" type="line"/>
      <point x="742" y="1400" type="line"/>
      <point x="506" y="1400" type="line"/>
      <point x="230" y="469" type="line"/>
    </contour>
    <contour>
      <point x="174" y="-30" type="curve" smooth="yes"/>
      <point x="262" y="-30"/>
      <point x="347" y="35"/>
      <point x="347" y="137" type="curve" smooth="yes"/>
      <point x="347" y="202"/>
      <point x="292" y="249"/>
      <point x="219" y="249" type="curve" smooth="yes"/>
      <point x="130" y="249"/>
      <point x="45" y="186"/>
      <point x="45" y="84" type="curve" smooth="yes"/>
      <point x="45" y="18"/>
      <point x="99" y="-30"/>
    </contour>
  </outline>
</glyph>
<glyph name="numbersign" format="2">
  <advance width="1056"/>
  <unicode hex="0023"/>
  <outline>
    <contour>
      <point x="287" y="50" type="line"/>
      <point x="372" y="393" type="line"/>
      <point x="680" y="393" type="line"/>
      <point x="595" y="49" type="line"/>
      <point x="747" y="49" type="line"/>
      <point x="833" y="393" type="line"/>
      <point x="1004" y="393" type="line"/>
      <point x="1040" y="540" type="line"/>
      <point x="869" y="540" type="line"/>
      <point x="941" y="858" type="line"/>
      <point x="1113" y="858" type="line"/>
      <point x="1147" y="1005" type="line"/>
      <point x="976" y="1005" type="line"/>
      <point x="1061" y="1351" type="line"/>
      <point x="909" y="1351" type="line"/>
      <point x="825" y="1005" type="line"/>
      <point x="516" y="1005" type="line"/>
      <point x="600" y="1350" type="line"/>
      <point x="450" y="1350" type="line"/>
      <point x="364" y="1005" type="line"/>
      <point x="192" y="1005" type="line"/>
      <point x="157" y="859" type="line"/>
      <point x="330" y="859" type="line"/>
      <point x="255" y="539" type="line"/>
      <point x="82" y="539" type="line"/>
      <point x="47" y="393" type="line"/>
      <point x="220" y="393" type="line"/>
      <point x="135" y="50" type="line"/>
    </contour>
    <contour>
      <point x="478" y="859" type="line"/>
      <point x="789" y="858" type="line"/>
      <point x="717" y="540" type="line"/>
      <point x="406" y="539" type="line"/>
    </contour>
  </outline>
</glyph>
<glyph name="dollar" format="2">
  <advance width="1296"/>
  <unicode hex="0024"/>
  <anchor x="841" y="1400" name="top"/>
  <anchor x="580" y="0" name="bottom"/>
  <outline>
    <contour>
      <point x="605" y="-30" type="qcurve" smooth="yes"/>
      <point x="457" y="-30"/>
      <point x="191" y="61"/>
      <point x="108" y="143" type="qcurve"/>
      <point x="225" y="278" type="line"/>
      <point x="271" y="232"/>
      <point x="399" y="165"/>
      <point x="547" y="129"/>
      <point x="624" y="129" type="qcurve" smooth="yes"/>
      <point x="768" y="129"/>
      <point x="946" y="264"/>
      <point x="946" y="382" type="qcurve" smooth="yes"/>
      <point x="946" y="455"/>
      <point x="845" y="564"/>
      <point x="716" y="611" type="qcurve"/>
      <point x="583" y="655" type="line"/>
      <point x="436" y="714"/>
      <point x="298" y="877"/>
      <point x="298" y="987" type="qcurve" smooth="yes"/>
      <point x="298" y="1123"/>
      <point x="437" y="1321"/>
      <point x="668" y="1430"/>
      <point x="806" y="1430" type="qcurve" smooth="yes"/>
      <point x="947" y="1430"/>
      <point x="1177" y="1341"/>
      <point x="1246" y="1267" type="qcurve"/>
      <point x="1127" y="1138" type="line"/>
      <point x="1068" y="1201"/>
      <point x="879" y="1274"/>
      <point x="777" y="1274" type="qcurve" smooth="yes"/>
      <point x="687" y="1274"/>
      <point x="547" y="1210"/>
      <point x="466" y="1096"/>
      <point x="466" y="1021" type="qcurve" smooth="yes"/>
      <point x="466" y="947"/>
      <point x="563" y="843"/>
      <point x="681" y="799" type="qcurve"/>
      <point x="824" y="752" type="line"/>
      <point x="979" y="696"/>
      <point x="1120" y="535"/>
      <point x="1120" y="422" type="qcurve" smooth="yes"/>
      <point x="1120" y="286"/>
      <point x="987" y="82"/>
      <point x="754" y="-30"/>
    </contour>
    <contour>
      <point x="436" y="-160" type="line"/>
      <point x="800" y="1560" type="line"/>
      <point x="950" y="1560" type="line"/>
      <point x="586" y="-160" type="line"/>
    </contour>
  </outline>
</glyph>
<glyph name="percent" format="2">
  <advance width="2044"/>
  <unicode hex="0025"/>
  <outline>
    <contour>
      <point x="560" y="-30" type="line"/>
      <point x="494" y="20" type="line"/>
      <point x="1582" y="1430" type="line"/>
      <point x="1644" y="1382" type="line"/>
    </contour>
    <contour>
      <point x="552" y="710" type="qcurve"/>
      <point x="457" y="710"/>
      <point x="309" y="796"/>
      <point x="224" y="941"/>
      <point x="224" y="1030" type="qcurve"/>
      <point x="224" y="1137"/>
      <point x="340" y="1314"/>
      <point x="526" y="1420"/>
      <point x="632" y="1420" type="qcurve"/>
      <point x="727" y="1420"/>
      <point x="874" y="1334"/>
      <point x="958" y="1190"/>
      <point x="958" y="1102" type="qcurve"/>
      <point x="958" y="994"/>
      <point x="843" y="816"/>
      <point x="657" y="710"/>
    </contour>
    <contour>
      <point x="568" y="806" type="qcurve"/>
      <point x="655" y="806"/>
      <point x="785" y="887"/>
      <point x="858" y="1021"/>
      <point x="858" y="1102" type="qcurve"/>
      <point x="858" y="1203"/>
      <point x="727" y="1324"/>
      <point x="614" y="1324" type="qcurve"/>
      <point x="532" y="1324"/>
      <point x="401" y="1249"/>
      <point x="324" y="1118"/>
      <point x="324" y="1034" type="qcurve"/>
      <point x="324" y="932"/>
      <point x="456" y="806"/>
    </contour>
    <contour>
      <point x="1508" y="-20" type="qcurve"/>
      <point x="1413" y="-20"/>
      <point x="1265" y="66"/>
      <point x="1180" y="211"/>
      <point x="1180" y="300" type="qcurve"/>
      <point x="1180" y="407"/>
      <point x="1296" y="584"/>
      <point x="1482" y="690"/>
      <point x="1588" y="690" type="qcurve"/>
      <point x="1683" y="690"/>
      <point x="1830" y="604"/>
      <point x="1914" y="460"/>
      <point x="1914" y="372" type="qcurve"/>
      <point x="1914" y="264"/>
      <point x="1799" y="86"/>
      <point x="1613" y="-20"/>
    </contour>
    <contour>
      <point x="1526" y="76" type="qcurve"/>
      <point x="1610" y="76"/>
      <point x="1740" y="154"/>
      <point x="1814" y="289"/>
      <point x="1814" y="374" type="qcurve"/>
      <point x="1814" y="475"/>
      <point x="1685" y="594"/>
      <point x="1572" y="594" type="qcurve"/>
      <point x="1487" y="594"/>
      <point x="1355" y="515"/>
      <point x="1280" y="383"/>
      <point x="1280" y="304" type="qcurve"/>
      <point x="1280" y="204"/>
      <point x="1414" y="76"/>
    </contour>
  </outline>
</glyph>
<glyph name="ampersand" format="2">
  <advance width="1454"/>
  <unicode hex="0026"/>
  <outline>
    <contour>
      <point x="508" y="-26" type="qcurve"/>
      <point x="383" y="-26"/>
      <point x="197" y="58"/>
      <point x="94" y="212"/>
      <point x="94" y="318" type="qcurve"/>
      <point x="94" y="436"/>
      <point x="213" y="626"/>
      <point x="414" y="758"/>
      <point x="538" y="790" type="qcurve"/>
      <point x="495" y="845"/>
      <point x="443" y="936"/>
      <point x="420" y="1020"/>
      <point x="420" y="1066" type="qcurve"/>
      <point x="420" y="1172"/>
      <point x="532" y="1336"/>
      <point x="710" y="1430"/>
      <point x="810" y="1430" type="qcurve"/>
      <point x="909" y="1430"/>
      <point x="1056" y="1356"/>
      <point x="1136" y="1226"/>
      <point x="1136" y="1142" type="qcurve"/>
      <point x="1136" y="1003"/>
      <point x="921" y="807"/>
      <point x="714" y="744" type="qcurve"/>
      <point x="1016" y="334" type="line"/>
      <point x="1091" y="412"/>
      <point x="1234" y="632"/>
      <point x="1304" y="780" type="qcurve"/>
      <point x="1400" y="732" type="line"/>
      <point x="1356" y="642"/>
      <point x="1251" y="473"/>
      <point x="1134" y="320"/>
      <point x="1072" y="254" type="qcurve"/>
      <point x="1258" y="0" type="line"/>
      <point x="1116" y="0" type="line"/>
      <point x="988" y="174" type="line"/>
      <point x="876" y="75"/>
      <point x="631" y="-26"/>
    </contour>
    <contour>
      <point x="524" y="80" type="qcurve"/>
      <point x="632" y="80"/>
      <point x="836" y="166"/>
      <point x="930" y="256" type="qcurve"/>
      <point x="596" y="714" type="line"/>
      <point x="413" y="669"/>
      <point x="214" y="464"/>
      <point x="214" y="326" type="qcurve"/>
      <point x="214" y="215"/>
      <point x="379" y="80"/>
    </contour>
    <contour>
      <point x="654" y="816" type="qcurve"/>
      <point x="837" y="864"/>
      <point x="1014" y="1020"/>
      <point x="1014" y="1128" type="qcurve"/>
      <point x="1014" y="1212"/>
      <point x="894" y="1322"/>
      <point x="798" y="1322" type="qcurve"/>
      <point x="690" y="1322"/>
      <point x="542" y="1182"/>
      <point x="542" y="1074" type="qcurve"/>
      <point x="542" y="1016"/>
      <point x="593" y="900"/>
    </contour>
  </outline>
</glyph>
<glyph name="quotesingle" format="2">
  <advance width="450"/>
  <unicode hex="0027"/>
  <outline>
    <contour>
      <point x="239" y="901" type="line"/>
      <point x="324" y="1400" type="line"/>
      <point x="512" y="1400" type="line"/>
      <point x="388" y="901" type="line"/>
    </contour>
  </outline>
</glyph>
<glyph name="parenleft" format="2">
  <advance width="708"/>
  <unicode hex="0028"/>
  <outline>
    <contour>
      <point x="274" y="-230" type="line"/>
      <point x="223" y="-96"/>
      <point x="173" y="190"/>
      <point x="173" y="337" type="qcurve" smooth="yes"/>
      <point x="173" y="568"/>
      <point x="288" y="1022"/>
      <point x="506" y="1437"/>
      <point x="660" y="1610" type="qcurve"/>
      <point x="812" y="1542" type="line"/>
      <point x="701" y="1427"/>
      <point x="530" y="1138"/>
      <point x="412" y="817"/>
      <point x="352" y="483"/>
      <point x="352" y="321" type="qcurve" smooth="yes"/>
      <point x="352" y="190"/>
      <point x="393" y="-57"/>
      <point x="434" y="-169" type="qcurve"/>
    </contour>
  </outline>
</glyph>
<glyph name="parenright" format="2">
  <advance width="719"/>
  <unicode hex="0029"/>
  <outline>
    <contour>
      <point x="50" y="-230" type="line"/>
      <point x="438" y="156"/>
      <point x="671" y="704"/>
      <point x="671" y="1243" type="curve" smooth="yes"/>
      <point x="671" y="1369"/>
      <point x="667" y="1486"/>
      <point x="653" y="1610" type="curve"/>
      <point x="492" y="1551" type="line"/>
      <point x="495" y="1454"/>
      <point x="497" y="1369"/>
      <point x="497" y="1270" type="curve" smooth="yes"/>
      <point x="497" y="772"/>
      <point x="281" y="187"/>
      <point x="-98" y="-160" type="curve"/>
    </contour>
  </outline>
</glyph>
<glyph name="asterisk" format="2">
  <advance width="1116"/>
  <unicode hex="002A"/>
  <outline>
    <contour>
      <point x="685" y="865" type="line"/>
      <point x="757" y="569" type="line"/>
      <point x="944" y="623" type="line"/>
      <point x="835" y="911" type="line"/>
      <point x="1141" y="891" type="line"/>
      <point x="1145" y="1086" type="line"/>
      <point x="838" y="1072" type="line"/>
      <point x="952" y="1355" type="line"/>
      <point x="770" y="1417" type="line"/>
      <point x="688" y="1121" type="line"/>
      <point x="452" y="1316" type="line"/>
      <point x="334" y="1161" type="line"/>
      <point x="590" y="992" type="line"/>
      <point x="333" y="828" type="line"/>
      <point x="444" y="674" type="line"/>
    </contour>
  </outline>
</glyph>
<glyph name="plus" format="2">
  <advance width="1296"/>
  <unicode hex="002B"/>
  <outline>
    <contour>
      <point x="624" y="187" type="line"/>
      <point x="758" y="592" type="line"/>
      <point x="1183" y="592" type="line"/>
      <point x="1232" y="740" type="line"/>
      <point x="807" y="740" type="line"/>
      <point x="942" y="1145" type="line"/>
      <point x="788" y="1145" type="line"/>
      <point x="653" y="740" type="line"/>
      <point x="229" y="740" type="line"/>
      <point x="180" y="592" type="line"/>
      <point x="604" y="592" type="line"/>
      <point x="470" y="187" type="line"/>
    </contour>
  </outline>
</glyph>
<glyph name="comma" format="2">
  <advance width="537"/>
  <unicode hex="002C"/>
  <outline>
    <contour>
      <point x="-24" y="-293" type="qcurve"/>
      <point x="-77" y="-196" type="line"/>
      <point x="13" y="-157"/>
      <point x="142" y="-59"/>
      <point x="167" y="-13" type="qcurve"/>
      <point x="128" y="-10"/>
      <point x="68" y="20"/>
      <point x="35" y="73"/>
      <point x="35" y="108" type="qcurve" smooth="yes"/>
      <point x="35" y="172"/>
      <point x="121" y="252"/>
      <point x="185" y="252" type="qcurve" smooth="yes"/>
      <point x="251" y="252"/>
      <point x="331" y="174"/>
      <point x="331" y="103" type="qcurve" smooth="yes"/>
      <point x="331" y="16"/>
      <point x="231" y="-132"/>
      <point x="69" y="-249"/>
    </contour>
  </outline>
</glyph>
<glyph name="hyphen" format="2">
  <advance width="777"/>
  <unicode hex="002D"/>
  <outline>
    <contour>
      <point x="649" y="476" type="line"/>
      <point x="706" y="648" type="line"/>
      <point x="176" y="648" type="line"/>
      <point x="118" y="476" type="line"/>
    </contour>
  </outline>
</glyph>
<glyph name="hyphenminus" format="2">
  <advance width="776"/>
  <unicode hex="002D"/>
  <outline>
    <contour>
      <point x="119" y="476" type="line"/>
      <point x="156" y="648" type="line"/>
      <point x="687" y="648" type="line"/>
      <point x="650" y="476" type="line"/>
    </contour>
  </outline>
</glyph>
<glyph name="period" format="2">
  <advance width="538"/>
  <unicode hex="002E"/>
  <outline>
    <contour>
      <point x="121" y="-30" type="curve" smooth="yes"/>
      <point x="209" y="-30"/>
      <point x="294" y="34"/>
      <point x="294" y="135" type="curve" smooth="yes"/>
      <point x="294" y="202"/>
      <point x="240" y="249"/>
      <point x="166" y="249" type="curve" smooth="yes"/>
      <point x="77" y="249"/>
      <point x="-8" y="186"/>
      <point x="-8" y="84" type="curve" smooth="yes"/>
      <point x="-8" y="18"/>
      <point x="46" y="-30"/>
    </contour>
  </outline>
</glyph>
<glyph name="slash" format="2">
  <advance width="877"/>
  <unicode hex="002F"/>
  <outline>
    <contour>
      <point x="1217" y="1506" type="line"/>
      <point x="1081" y="1610" type="line"/>
      <point x="-204" y="-130" type="line"/>
      <point x="-65" y="-230" type="line"/>
    </contour>
  </outline>
</glyph>
<glyph name="zero" format="2">
  <advance width="1387"/>
  <unicode hex="0030"/>
  <outline>
    <contour>
      <point x="626" y="-30" type="curve" smooth="yes"/>
      <point x="1037" y="-30"/>
      <point x="1347" y="441"/>
      <point x="1347" y="894" type="curve" smooth="yes"/>
      <point x="1347" y="1194"/>
      <point x="1186" y="1430"/>
      <point x="873" y="1430" type="curve" smooth="yes"/>
      <point x="460" y="1430"/>
      <point x="152" y="957"/>
      <point x="152" y="503" type="curve" smooth="yes"/>
      <point x="152" y="202"/>
      <point x="315" y="-30"/>
    </contour>
    <contour>
      <point x="649" y="151" type="curve" smooth="yes"/>
      <point x="459" y="151"/>
      <point x="354" y="285"/>
      <point x="354" y="499" type="curve" smooth="yes"/>
      <point x="354" y="819"/>
      <point x="537" y="1249"/>
      <point x="850" y="1249" type="curve" smooth="yes"/>
      <point x="1041" y="1249"/>
      <point x="1146" y="1116"/>
      <point x="1146" y="904" type="curve" smooth="yes"/>
      <point x="1146" y="589"/>
      <point x="965" y="151"/>
    </contour>
  </outline>
</glyph>
<glyph name="one" format="2">
  <advance width="887"/>
  <unicode hex="0031"/>
  <outline>
    <contour>
      <point x="366" y="0" type="line"/>
      <point x="618" y="1184" type="line"/>
      <point x="219" y="1051" type="line"/>
      <point x="169" y="1204" type="line"/>
      <point x="843" y="1430" type="line"/>
      <point x="859" y="1430" type="line"/>
      <point x="555" y="0" type="line"/>
    </contour>
  </outline>
</glyph>
<glyph name="two" format="2">
  <advance width="1188"/>
  <unicode hex="0032"/>
  <outline>
    <contour>
      <point x="907" y="0" type="line"/>
      <point x="964" y="173" type="line"/>
      <point x="305" y="173" type="line"/>
      <point x="622" y="390" type="line"/>
      <point x="904" y="575"/>
      <point x="1194" y="784"/>
      <point x="1194" y="1090" type="curve" smooth="yes"/>
      <point x="1194" y="1296"/>
      <point x="1033" y="1430"/>
      <point x="756" y="1430" type="curve" smooth="yes"/>
      <point x="625" y="1430"/>
      <point x="495" y="1398"/>
      <point x="381" y="1331" type="curve"/>
      <point x="411" y="1173" type="line"/>
      <point x="497" y="1228"/>
      <point x="600" y="1254"/>
      <point x="701" y="1254" type="curve" smooth="yes"/>
      <point x="890" y="1254"/>
      <point x="996" y="1178"/>
      <point x="996" y="1054" type="curve" smooth="yes"/>
      <point x="996" y="814"/>
      <point x="700" y="617"/>
      <point x="441" y="445" type="curve"/>
      <point x="18" y="149" type="line"/>
      <point x="-31" y="0" type="line"/>
    </contour>
  </outline>
</glyph>
<glyph name="three" format="2">
  <advance width="1156"/>
  <unicode hex="0033"/>
  <outline>
    <contour>
      <point x="470" y="-30" type="qcurve"/>
      <point x="383" y="-30"/>
      <point x="214" y="8"/>
      <point x="72" y="75"/>
      <point x="26" y="118" type="qcurve"/>
      <point x="94" y="220" type="line"/>
      <point x="168" y="154"/>
      <point x="374" y="82"/>
      <point x="476" y="82" type="qcurve"/>
      <point x="592" y="82"/>
      <point x="773" y="171"/>
      <point x="876" y="334"/>
      <point x="876" y="444" type="qcurve"/>
      <point x="876" y="575"/>
      <point x="665" y="724"/>
      <point x="482" y="724" type="qcurve"/>
      <point x="455" y="724"/>
      <point x="396" y="721"/>
      <point x="366" y="716" type="qcurve"/>
      <point x="344" y="790" type="line"/>
      <point x="952" y="1292" type="line"/>
      <point x="272" y="1292" type="line"/>
      <point x="294" y="1400" type="line"/>
      <point x="1144" y="1400" type="line"/>
      <point x="1124" y="1302" type="line"/>
      <point x="528" y="818" type="line"/>
      <point x="660" y="815"/>
      <point x="875" y="732"/>
      <point x="1002" y="572"/>
      <point x="1002" y="454" type="qcurve"/>
      <point x="1002" y="312"/>
      <point x="859" y="94"/>
      <point x="618" y="-30"/>
    </contour>
  </outline>
</glyph>
<glyph name="four" format="2">
  <advance width="1204"/>
  <unicode hex="0034"/>
  <outline>
    <contour>
      <point x="756" y="0" type="line"/>
      <point x="852" y="292" type="line"/>
      <point x="1074" y="292" type="line"/>
      <point x="1130" y="463" type="line"/>
      <point x="908" y="463" type="line"/>
      <point x="1013" y="781" type="line"/>
      <point x="837" y="781" type="line"/>
      <point x="731" y="463" type="line"/>
      <point x="255" y="463" type="line"/>
      <point x="1066" y="1400" type="line"/>
      <point x="843" y="1400" type="line"/>
      <point x="22" y="447" type="line"/>
      <point x="-28" y="292" type="line"/>
      <point x="675" y="292" type="line"/>
      <point x="579" y="0" type="line"/>
    </contour>
  </outline>
</glyph>
<glyph name="five" format="2">
  <advance width="1152"/>
  <unicode hex="0035"/>
  <outline>
    <contour>
      <point x="466" y="-30" type="qcurve"/>
      <point x="335" y="-30"/>
      <point x="90" y="55"/>
      <point x="22" y="118" type="qcurve"/>
      <point x="90" y="220" type="line"/>
      <point x="161" y="157"/>
      <point x="374" y="82"/>
      <point x="476" y="82" type="qcurve"/>
      <point x="598" y="82"/>
      <point x="784" y="179"/>
      <point x="888" y="350"/>
      <point x="888" y="462" type="qcurve"/>
      <point x="888" y="553"/>
      <point x="792" y="684"/>
      <point x="625" y="754"/>
      <point x="518" y="754" type="qcurve"/>
      <point x="458" y="754"/>
      <point x="327" y="730"/>
      <point x="258" y="706" type="qcurve"/>
      <point x="232" y="738" type="line"/>
      <point x="444" y="1396" type="line"/>
      <point x="1180" y="1400" type="line"/>
      <point x="1158" y="1292" type="line"/>
      <point x="512" y="1292" type="line"/>
      <point x="360" y="826" type="line"/>
      <point x="414" y="841"/>
      <point x="519" y="858"/>
      <point x="568" y="858" type="qcurve"/>
      <point x="695" y="858"/>
      <point x="897" y="766"/>
      <point x="1014" y="595"/>
      <point x="1014" y="476" type="qcurve"/>
      <point x="1014" y="328"/>
      <point x="868" y="100"/>
      <point x="619" y="-30"/>
    </contour>
  </outline>
</glyph>
<glyph name="six" format="2">
  <advance width="1288"/>
  <unicode hex="0036"/>
  <outline>
    <contour>
      <point x="595" y="-30" type="curve" smooth="yes"/>
      <point x="901" y="-30"/>
      <point x="1167" y="198"/>
      <point x="1167" y="490" type="curve" smooth="yes"/>
      <point x="1167" y="742"/>
      <point x="955" y="899"/>
      <point x="695" y="899" type="curve" smooth="yes"/>
      <point x="626" y="899"/>
      <point x="548" y="880"/>
      <point x="474" y="845" type="curve"/>
      <point x="524" y="805" type="line"/>
      <point x="1103" y="1400" type="line"/>
      <point x="865" y="1400" type="line"/>
      <point x="381" y="889" type="line"/>
      <point x="255" y="758"/>
      <point x="113" y="578"/>
      <point x="113" y="393" type="curve" smooth="yes"/>
      <point x="113" y="156"/>
      <point x="311" y="-30"/>
    </contour>
    <contour>
      <point x="619" y="147" type="curve" smooth="yes"/>
      <point x="442" y="147"/>
      <point x="318" y="256"/>
      <point x="318" y="412" type="curve" smooth="yes"/>
      <point x="318" y="602"/>
      <point x="477" y="741"/>
      <point x="670" y="741" type="curve" smooth="yes"/>
      <point x="842" y="741"/>
      <point x="964" y="631"/>
      <point x="964" y="475" type="curve" smooth="yes"/>
      <point x="964" y="279"/>
      <point x="804" y="147"/>
    </contour>
  </outline>
</glyph>
<glyph name="seven" format="2">
  <advance width="1102"/>
  <unicode hex="0037"/>
  <outline>
    <contour>
      <point x="78" y="0" type="line"/>
      <point x="925" y="1217" type="line"/>
      <point x="256" y="1217" type="line"/>
      <point x="294" y="1400" type="line"/>
      <point x="1199" y="1400" type="line"/>
      <point x="1168" y="1251" type="line"/>
      <point x="307" y="0" type="line"/>
    </contour>
  </outline>
</glyph>
<glyph name="eight" format="2">
  <advance width="1246"/>
  <unicode hex="0038"/>
  <outline>
    <contour>
      <point x="534" y="-30" type="curve" smooth="yes"/>
      <point x="830" y="-30"/>
      <point x="1095" y="159"/>
      <point x="1095" y="434" type="curve"/>
      <point x="1095" y="551"/>
      <point x="1035" y="642"/>
      <point x="926" y="709" type="curve"/>
      <point x="1119" y="760"/>
      <point x="1272" y="907"/>
      <point x="1272" y="1096" type="curve"/>
      <point x="1272" y="1279"/>
      <point x="1106" y="1430"/>
      <point x="853" y="1430" type="curve" smooth="yes"/>
      <point x="574" y="1430"/>
      <point x="351" y="1255"/>
      <point x="351" y="1018" type="curve"/>
      <point x="351" y="920"/>
      <point x="412" y="820"/>
      <point x="485" y="774" type="curve"/>
      <point x="262" y="724"/>
      <point x="78" y="556"/>
      <point x="79" y="325" type="curve"/>
      <point x="79" y="119"/>
      <point x="243" y="-30"/>
    </contour>
    <contour>
      <point x="561" y="140" type="curve" smooth="yes"/>
      <point x="403" y="140"/>
      <point x="280" y="224"/>
      <point x="281" y="356" type="curve"/>
      <point x="281" y="533"/>
      <point x="420" y="655"/>
      <point x="616" y="655" type="curve" smooth="yes"/>
      <point x="786" y="655"/>
      <point x="900" y="574"/>
      <point x="900" y="438" type="curve" smooth="yes"/>
      <point x="900" y="260"/>
      <point x="756" y="140"/>
    </contour>
    <contour>
      <point x="792" y="828" type="curve" smooth="yes"/>
      <point x="639" y="828"/>
      <point x="540" y="902"/>
      <point x="540" y="1030" type="curve" smooth="yes"/>
      <point x="540" y="1169"/>
      <point x="665" y="1273"/>
      <point x="832" y="1273" type="curve" smooth="yes"/>
      <point x="986" y="1273"/>
      <point x="1080" y="1189"/>
      <point x="1080" y="1072" type="curve" smooth="yes"/>
      <point x="1080" y="921"/>
      <point x="951" y="828"/>
    </contour>
  </outline>
</glyph>
<glyph name="nine" format="2">
  <advance width="1248"/>
  <unicode hex="0039"/>
  <outline>
    <contour>
      <point x="101" y="-23" type="qcurve"/>
      <point x="124" y="91" type="line"/>
      <point x="292" y="68"/>
      <point x="592" y="138"/>
      <point x="836" y="309"/>
      <point x="1007" y="568"/>
      <point x="1046" y="734" type="qcurve"/>
      <point x="972" y="640"/>
      <point x="756" y="532"/>
      <point x="627" y="532" type="qcurve"/>
      <point x="509" y="532"/>
      <point x="310" y="633"/>
      <point x="190" y="815"/>
      <point x="190" y="936" type="qcurve"/>
      <point x="190" y="1074"/>
      <point x="330" y="1298"/>
      <point x="566" y="1430"/>
      <point x="711" y="1430" type="qcurve"/>
      <point x="860" y="1430"/>
      <point x="1072" y="1312"/>
      <point x="1186" y="1093"/>
      <point x="1186" y="943" type="qcurve"/>
      <point x="1186" y="716"/>
      <point x="1019" y="341"/>
      <point x="721" y="77"/>
      <point x="328" y="-47"/>
    </contour>
    <contour>
      <point x="667" y="646" type="qcurve"/>
      <point x="776" y="646"/>
      <point x="959" y="740"/>
      <point x="1069" y="904"/>
      <point x="1069" y="1008" type="qcurve"/>
      <point x="1069" y="1098"/>
      <point x="982" y="1237"/>
      <point x="823" y="1316"/>
      <point x="713" y="1316" type="qcurve"/>
      <point x="602" y="1316"/>
      <point x="422" y="1218"/>
      <point x="317" y="1054"/>
      <point x="317" y="954" type="qcurve"/>
      <point x="317" y="867"/>
      <point x="407" y="727"/>
      <point x="565" y="646"/>
    </contour>
  </outline>
</glyph>
<glyph name="equal" format="2">
  <advance width="1298"/>
  <unicode hex="003D"/>
  <outline>
    <contour>
      <point x="210" y="781" type="line"/>
      <point x="241" y="928" type="line"/>
      <point x="1244" y="928" type="line"/>
      <point x="1214" y="781" type="line"/>
    </contour>
    <contour>
      <point x="129" y="403" type="line"/>
      <point x="160" y="551" type="line"/>
      <point x="1163" y="551" type="line"/>
      <point x="1132" y="403" type="line"/>
    </contour>
  </outline>
</glyph>
<glyph name="greater" format="2">
  <advance width="1298"/>
  <unicode hex="003E"/>
  <outline>
    <contour>
      <point x="147" y="196" type="line"/>
      <point x="92" y="345" type="line"/>
      <point x="953" y="664" type="line"/>
      <point x="251" y="968" type="line"/>
      <point x="314" y="1114" type="line"/>
      <point x="1199" y="728" type="line"/>
      <point x="1170" y="582" type="line"/>
    </contour>
  </outline>
</glyph>
<glyph name="question" format="2">
  <advance width="997"/>
  <unicode hex="003F"/>
  <outline>
    <contour>
      <point x="331" y="424" type="line"/>
      <point x="334" y="543"/>
      <point x="384" y="689"/>
      <point x="488" y="789"/>
      <point x="572" y="839" type="qcurve" smooth="yes"/>
      <point x="682" y="904"/>
      <point x="793" y="997"/>
      <point x="793" y="1071" type="qcurve" smooth="yes"/>
      <point x="793" y="1154"/>
      <point x="668" y="1239"/>
      <point x="553" y="1239" type="qcurve" smooth="yes"/>
      <point x="476" y="1239"/>
      <point x="340" y="1203"/>
      <point x="284" y="1168" type="qcurve"/>
      <point x="262" y="1343" type="line"/>
      <point x="308" y="1371"/>
      <point x="418" y="1409"/>
      <point x="541" y="1430"/>
      <point x="608" y="1430" type="qcurve" smooth="yes"/>
      <point x="732" y="1430"/>
      <point x="921" y="1353"/>
      <point x="1028" y="1213"/>
      <point x="1028" y="1117" type="qcurve" smooth="yes"/>
      <point x="1028" y="1033"/>
      <point x="954" y="908"/>
      <point x="820" y="805"/>
      <point x="730" y="753" type="qcurve" smooth="yes"/>
      <point x="661" y="714"/>
      <point x="576" y="634"/>
      <point x="531" y="518"/>
      <point x="525" y="424" type="qcurve"/>
    </contour>
    <contour>
      <point x="376" y="-30" type="qcurve" smooth="yes"/>
      <point x="316" y="-30"/>
      <point x="240" y="40"/>
      <point x="240" y="97" type="qcurve" smooth="yes"/>
      <point x="240" y="142"/>
      <point x="287" y="212"/>
      <point x="363" y="252"/>
      <point x="407" y="252" type="qcurve" smooth="yes"/>
      <point x="468" y="252"/>
      <point x="541" y="184"/>
      <point x="541" y="126" type="qcurve" smooth="yes"/>
      <point x="541" y="81"/>
      <point x="496" y="11"/>
      <point x="420" y="-30"/>
    </contour>
  </outline>
</glyph>
<glyph name="at" format="2">
  <advance width="1732"/>
  <unicode hex="0040"/>
  <outline>
    <contour>
      <point x="885" y="-234" type="curve" smooth="yes"/>
      <point x="1094" y="-234"/>
      <point x="1307" y="-173"/>
      <point x="1439" y="-74" type="curve"/>
      <point x="1387" y="36" type="line"/>
      <point x="1274" y="-56"/>
      <point x="1081" y="-116"/>
      <point x="895" y="-116" type="curve" smooth="yes"/>
      <point x="511" y="-116"/>
      <point x="253" y="128"/>
      <point x="253" y="487" type="curve" smooth="yes"/>
      <point x="253" y="851"/>
      <point x="534" y="1125"/>
      <point x="906" y="1125" type="curve" smooth="yes"/>
      <point x="1264" y="1125"/>
      <point x="1512" y="899"/>
      <point x="1512" y="573" type="curve" smooth="yes"/>
      <point x="1512" y="380"/>
      <point x="1422" y="254"/>
      <point x="1305" y="254" type="curve" smooth="yes"/>
      <point x="1210" y="254"/>
      <point x="1181" y="301"/>
      <point x="1186" y="411" type="curve" smooth="yes"/>
      <point x="1210" y="857" type="line"/>
      <point x="1084" y="857" type="line"/>
      <point x="1081" y="777" type="line"/>
      <point x="1017" y="848"/>
      <point x="940" y="883"/>
      <point x="848" y="883" type="curve" smooth="yes"/>
      <point x="649" y="883"/>
      <point x="493" y="709"/>
      <point x="493" y="489" type="curve" smooth="yes"/>
      <point x="493" y="288"/>
      <point x="626" y="139"/>
      <point x="808" y="139" type="curve" smooth="yes"/>
      <point x="924" y="139"/>
      <point x="1020" y="187"/>
      <point x="1080" y="277" type="curve"/>
      <point x="1103" y="191"/>
      <point x="1174" y="139"/>
      <point x="1289" y="139" type="curve" smooth="yes"/>
      <point x="1482" y="139"/>
      <point x="1640" y="326"/>
      <point x="1640" y="575" type="curve" smooth="yes"/>
      <point x="1640" y="969"/>
      <point x="1339" y="1242"/>
      <point x="908" y="1242" type="curve" smooth="yes"/>
      <point x="458" y="1242"/>
      <point x="125" y="919"/>
      <point x="125" y="485" type="curve" smooth="yes"/>
      <point x="125" y="56"/>
      <point x="433" y="-234"/>
    </contour>
    <contour>
      <point x="829" y="269" type="curve" smooth="yes"/>
      <point x="708" y="269"/>
      <point x="640" y="346"/>
      <point x="640" y="486" type="curve" smooth="yes"/>
      <point x="640" y="651"/>
      <point x="724" y="751"/>
      <point x="862" y="751" type="curve" smooth="yes"/>
      <point x="983" y="751"/>
      <point x="1050" y="675"/>
      <point x="1050" y="538" type="curve" smooth="yes"/>
      <point x="1050" y="369"/>
      <point x="967" y="269"/>
    </contour>
  </outline>
</glyph>
<glyph name="A" format="2">
  <advance width="1380"/>
  <unicode hex="0041"/>
  <anchor x="875" y="1400" name="top"/>
  <anchor x="579" y="0" name="bottom"/>
  <outline>
    <contour>
      <point x="-80" y="0" type="line"/>
      <point x="765" y="1400" type="line"/>
      <point x="983" y="1400" type="line"/>
      <point x="1250" y="0" type="line"/>
      <point x="1024" y="0" type="line"/>
      <point x="961" y="342" type="line"/>
      <point x="357" y="342" type="line"/>
      <point x="156" y="0" type="line"/>
    </contour>
    <contour>
      <point x="450" y="521" type="line"/>
      <point x="941" y="521" type="line"/>
      <point x="822" y="1147" type="line"/>
    </contour>
  </outline>
</glyph>
<glyph name="B" format="2">
  <advance width="1269"/>
  <unicode hex="0042"/>
  <outline>
    <contour>
      <point x="84" y="0" type="line"/>
      <point x="380" y="1400" type="line"/>
      <point x="796" y="1400" type="line" smooth="yes"/>
      <point x="998" y="1400"/>
      <point x="1229" y="1230"/>
      <point x="1229" y="1077" type="qcurve" smooth="yes"/>
      <point x="1229" y="996"/>
      <point x="1149" y="858"/>
      <point x="1011" y="758"/>
      <point x="925" y="737" type="qcurve"/>
      <point x="1028" y="699"/>
      <point x="1135" y="535"/>
      <point x="1135" y="434" type="qcurve" smooth="yes"/>
      <point x="1135" y="305"/>
      <point x="1003" y="109"/>
      <point x="777" y="0"/>
      <point x="637" y="0" type="qcurve" smooth="yes"/>
    </contour>
    <contour>
      <point x="324" y="165" type="line"/>
      <point x="618" y="165" type="line" smooth="yes"/>
      <point x="764" y="165"/>
      <point x="924" y="306"/>
      <point x="924" y="436" type="qcurve" smooth="yes"/>
      <point x="924" y="537"/>
      <point x="785" y="640"/>
      <point x="661" y="640" type="qcurve" smooth="yes"/>
      <point x="426" y="640" type="line"/>
    </contour>
    <contour>
      <point x="458" y="798" type="line"/>
      <point x="696" y="798" type="line" smooth="yes"/>
      <point x="790" y="798"/>
      <point x="938" y="862"/>
      <point x="1022" y="974"/>
      <point x="1022" y="1048" type="qcurve" smooth="yes"/>
      <point x="1022" y="1140"/>
      <point x="880" y="1235"/>
      <point x="741" y="1235" type="qcurve" smooth="yes"/>
      <point x="552" y="1235" type="line"/>
    </contour>
  </outline>
</glyph>
<glyph name="C" format="2">
  <advance width="1395"/>
  <unicode hex="0043"/>
  <anchor x="664" y="0" name="bottom"/>
  <anchor x="1016" y="1400" name="top"/>
  <outline>
    <contour>
      <point x="786" y="-30" type="curve" smooth="yes"/>
      <point x="937" y="-30"/>
      <point x="1076" y="5"/>
      <point x="1207" y="79" type="curve"/>
      <point x="1167" y="263" type="line"/>
      <point x="1061" y="201"/>
      <point x="949" y="167"/>
      <point x="830" y="167" type="curve" smooth="yes"/>
      <point x="547" y="167"/>
      <point x="379" y="314"/>
      <point x="379" y="556" type="curve" smooth="yes"/>
      <point x="379" y="918"/>
      <point x="609" y="1235"/>
      <point x="968" y="1235" type="curve" smooth="yes"/>
      <point x="1140" y="1235"/>
      <point x="1267" y="1177"/>
      <point x="1338" y="1078" type="curve"/>
      <point x="1489" y="1230" type="line"/>
      <point x="1377" y="1364"/>
      <point x="1216" y="1430"/>
      <point x="992" y="1430" type="curve" smooth="yes"/>
      <point x="527" y="1430"/>
      <point x="161" y="1001"/>
      <point x="161" y="513" type="curve" smooth="yes"/>
      <point x="161" y="178"/>
      <point x="406" y="-30"/>
    </contour>
  </outline>
</glyph>
<glyph name="D" format="2">
  <advance width="1439"/>
  <unicode hex="0044"/>
  <anchor x="518" y="733" name="bar"/>
  <anchor x="992" y="1400" name="top"/>
  <outline>
    <contour>
      <point x="526" y="0" type="line" smooth="yes"/>
      <point x="1051" y="0"/>
      <point x="1407" y="338"/>
      <point x="1407" y="845" type="curve" smooth="yes"/>
      <point x="1407" y="1229"/>
      <point x="1103" y="1400"/>
      <point x="699" y="1400" type="curve" smooth="yes"/>
      <point x="488" y="1400" type="line"/>
      <point x="26" y="0" type="line"/>
    </contour>
    <contour>
      <point x="629" y="1212" type="line"/>
      <point x="725" y="1212" type="line" smooth="yes"/>
      <point x="1018" y="1212"/>
      <point x="1195" y="1056"/>
      <point x="1195" y="811" type="curve" smooth="yes"/>
      <point x="1195" y="473"/>
      <point x="952" y="188"/>
      <point x="594" y="188" type="curve" smooth="yes"/>
      <point x="290" y="188" type="line"/>
    </contour>
  </outline>
</glyph>
<glyph name="E" format="2">
  <advance width="1219"/>
  <unicode hex="0045"/>
  <anchor x="462" y="0" name="bottom"/>
  <anchor x="921" y="0" name="ogonek"/>
  <anchor x="924" y="1400" name="top"/>
  <anchor x="398" y="1400" name="topleft"/>
  <outline>
    <contour>
      <point x="921" y="0" type="line"/>
      <point x="979" y="181" type="line"/>
      <point x="287" y="181" type="line"/>
      <point x="443" y="647" type="line"/>
      <point x="1038" y="647" type="line"/>
      <point x="1094" y="818" type="line"/>
      <point x="498" y="818" type="line"/>
      <point x="632" y="1220" type="line"/>
      <point x="1318" y="1220" type="line"/>
      <point x="1377" y="1400" type="line"/>
      <point x="488" y="1400" type="line"/>
      <point x="26" y="0" type="line"/>
    </contour>
  </outline>
</glyph>
<glyph name="F" format="2">
  <advance width="1160"/>
  <unicode hex="0046"/>
  <outline>
    <contour>
      <point x="84" y="0" type="line"/>
      <point x="380" y="1400" type="line"/>
      <point x="1235" y="1400" type="line"/>
      <point x="1196" y="1211" type="line"/>
      <point x="546" y="1211" type="line"/>
      <point x="457" y="789" type="line"/>
      <point x="1046" y="789" type="line"/>
      <point x="1007" y="605" type="line"/>
      <point x="418" y="605" type="line"/>
      <point x="290" y="0" type="line"/>
    </contour>
  </outline>
</glyph>
<glyph name="G" format="2">
  <advance width="1518"/>
  <unicode hex="0047"/>
  <anchor x="765" y="0" name="bottom"/>
  <anchor x="1055" y="1400" name="top"/>
  <outline>
    <contour>
      <point x="835" y="-30" type="curve" smooth="yes"/>
      <point x="944" y="-30"/>
      <point x="1087" y="-15"/>
      <point x="1201" y="21" type="curve"/>
      <point x="1431" y="732" type="line"/>
      <point x="925" y="732" type="line"/>
      <point x="867" y="561" type="line"/>
      <point x="1190" y="561" type="line"/>
      <point x="1065" y="163" type="line"/>
      <point x="1016" y="155"/>
      <point x="958" y="151"/>
      <point x="898" y="151" type="curve" smooth="yes"/>
      <point x="578" y="151"/>
      <point x="378" y="310"/>
      <point x="378" y="573" type="curve" smooth="yes"/>
      <point x="378" y="935"/>
      <point x="628" y="1243"/>
      <point x="1010" y="1243" type="curve" smooth="yes"/>
      <point x="1162" y="1243"/>
      <point x="1308" y="1197"/>
      <point x="1414" y="1108" type="curve"/>
      <point x="1548" y="1257" type="line"/>
      <point x="1416" y="1381"/>
      <point x="1227" y="1430"/>
      <point x="1044" y="1430" type="curve" smooth="yes"/>
      <point x="550" y="1430"/>
      <point x="168" y="1040"/>
      <point x="168" y="558" type="curve" smooth="yes"/>
      <point x="168" y="196"/>
      <point x="459" y="-30"/>
    </contour>
  </outline>
</glyph>
<glyph name="H" format="2">
  <advance width="1484"/>
  <unicode hex="0048"/>
  <anchor x="934" y="1400" name="top"/>
  <outline>
    <contour>
      <point x="84" y="0" type="line"/>
      <point x="380" y="1400" type="line"/>
      <point x="583" y="1400" type="line"/>
      <point x="463" y="836" type="line"/>
      <point x="1167" y="836" type="line"/>
      <point x="1286" y="1400" type="line"/>
      <point x="1488" y="1400" type="line"/>
      <point x="1192" y="0" type="line"/>
      <point x="990" y="0" type="line"/>
      <point x="1128" y="650" type="line"/>
      <point x="425" y="650" type="line"/>
      <point x="287" y="0" type="line"/>
    </contour>
  </outline>
</glyph>
<glyph name="I" format="2">
  <advance width="578"/>
  <unicode hex="0049"/>
  <anchor x="157" y="-0" name="bottom"/>
  <anchor x="258" y="-0" name="ogonek"/>
  <anchor x="532" y="1400" name="top"/>
  <anchor x="340" y="1400" name="topleft"/>
  <outline>
    <contour>
      <point x="258" y="0" type="line"/>
      <point x="633" y="1400" type="line"/>
      <point x="431" y="1400" type="line"/>
      <point x="56" y="0" type="line"/>
    </contour>
  </outline>
</glyph>
<glyph name="J" format="2">
  <advance width="990"/>
  <unicode hex="004A"/>
  <anchor x="896" y="1400" name="top"/>
  <outline>
    <contour>
      <point x="291" y="-30" type="qcurve" smooth="yes"/>
      <point x="192" y="-30"/>
      <point x="18" y="22"/>
      <point x="-54" y="73" type="qcurve"/>
      <point x="47" y="231" type="line"/>
      <point x="101" y="194"/>
      <point x="218" y="156"/>
      <point x="282" y="156" type="qcurve" smooth="yes"/>
      <point x="404" y="156"/>
      <point x="555" y="275"/>
      <point x="586" y="418" type="qcurve" smooth="yes"/>
      <point x="795" y="1400" type="line"/>
      <point x="997" y="1400" type="line"/>
      <point x="783" y="388" type="line" smooth="yes"/>
      <point x="754" y="256"/>
      <point x="624" y="69"/>
      <point x="424" y="-30"/>
    </contour>
  </outline>
</glyph>
<glyph name="K" format="2">
  <advance width="1379"/>
  <unicode hex="004B"/>
  <anchor x="620" y="0" name="bottom"/>
  <outline>
    <contour>
      <point x="84" y="0" type="line"/>
      <point x="380" y="1400" type="line"/>
      <point x="583" y="1400" type="line"/>
      <point x="430" y="675" type="line"/>
      <point x="1168" y="1400" type="line"/>
      <point x="1428" y="1400" type="line"/>
      <point x="779" y="761" type="line"/>
      <point x="1215" y="0" type="line"/>
      <point x="963" y="0" type="line"/>
      <point x="622" y="614" type="line"/>
      <point x="365" y="370" type="line"/>
      <point x="287" y="0" type="line"/>
    </contour>
  </outline>
</glyph>
<glyph name="L" format="2">
  <advance width="1084"/>
  <unicode hex="004C"/>
  <anchor x="438" y="0" name="bottom"/>
  <anchor x="706" y="1440" name="caron"/>
  <anchor x="590" y="1400" name="top"/>
  <outline>
    <contour>
      <point x="848" y="0" type="line"/>
      <point x="908" y="186" type="line"/>
      <point x="289" y="186" type="line"/>
      <point x="691" y="1400" type="line"/>
      <point x="488" y="1400" type="line"/>
      <point x="26" y="0" type="line"/>
    </contour>
  </outline>
</glyph>
<glyph name="M" format="2">
  <advance width="1824"/>
  <unicode hex="004D"/>
  <outline>
    <contour>
      <point x="84" y="0" type="line"/>
      <point x="380" y="1400" type="line"/>
      <point x="579" y="1400" type="line"/>
      <point x="949" y="453" type="line"/>
      <point x="874" y="467" type="line"/>
      <point x="1637" y="1400" type="line"/>
      <point x="1828" y="1400" type="line"/>
      <point x="1532" y="0" type="line"/>
      <point x="1334" y="0" type="line"/>
      <point x="1570" y="1110" type="line"/>
      <point x="1604" y="1090" type="line"/>
      <point x="951" y="309" type="line"/>
      <point x="795" y="309" type="line"/>
      <point x="472" y="1133" type="line"/>
      <point x="508" y="1138" type="line"/>
      <point x="270" y="0" type="line"/>
    </contour>
  </outline>
</glyph>
<glyph name="N" format="2">
  <advance width="1497"/>
  <unicode hex="004E"/>
  <anchor x="587" y="0" name="bottom"/>
  <anchor x="1049" y="1400" name="top"/>
  <outline>
    <contour>
      <point x="224" y="0" type="line"/>
      <point x="580" y="1079" type="line"/>
      <point x="958" y="0" type="line"/>
      <point x="1148" y="0" type="line"/>
      <point x="1610" y="1400" type="line"/>
      <point x="1412" y="1400" type="line"/>
      <point x="1060" y="331" type="line"/>
      <point x="681" y="1400" type="line"/>
      <point x="488" y="1400" type="line"/>
      <point x="26" y="0" type="line"/>
    </contour>
  </outline>
</glyph>
<glyph name="O" format="2">
  <advance width="1695"/>
  <unicode hex="004F"/>
  <anchor x="742" y="0" name="bottom"/>
  <anchor x="1494" y="1400" name="horn"/>
  <anchor x="971" y="0" name="ogonek"/>
  <anchor x="1092" y="1400" name="top"/>
  <anchor x="433" y="1400" name="topleft"/>
  <outline>
    <contour>
      <point x="804" y="-30" type="curve" smooth="yes"/>
      <point x="1265" y="-30"/>
      <point x="1666" y="369"/>
      <point x="1666" y="828" type="curve" smooth="yes"/>
      <point x="1666" y="1171"/>
      <point x="1418" y="1430"/>
      <point x="1027" y="1430" type="curve" smooth="yes"/>
      <point x="566" y="1430"/>
      <point x="167" y="1034"/>
      <point x="167" y="566" type="curve" smooth="yes"/>
      <point x="167" y="223"/>
      <point x="416" y="-30"/>
    </contour>
    <contour>
      <point x="833" y="162" type="curve" smooth="yes"/>
      <point x="564" y="162"/>
      <point x="383" y="330"/>
      <point x="383" y="586" type="curve" smooth="yes"/>
      <point x="383" y="932"/>
      <point x="645" y="1238"/>
      <point x="1001" y="1238" type="curve" smooth="yes"/>
      <point x="1274" y="1238"/>
      <point x="1452" y="1070"/>
      <point x="1452" y="814" type="curve" smooth="yes"/>
      <point x="1452" y="468"/>
      <point x="1189" y="162"/>
    </contour>
  </outline>
</glyph>
<glyph name="P" format="2">
  <advance width="1275"/>
  <unicode hex="0050"/>
  <outline>
    <contour>
      <point x="228" y="0" type="line"/>
      <point x="412" y="552" type="line"/>
      <point x="801" y="552" type="line" smooth="yes"/>
      <point x="1111" y="552"/>
      <point x="1357" y="743"/>
      <point x="1357" y="1050" type="curve" smooth="yes"/>
      <point x="1357" y="1264"/>
      <point x="1186" y="1400"/>
      <point x="886" y="1400" type="curve" smooth="yes"/>
      <point x="488" y="1400" type="line"/>
      <point x="26" y="0" type="line"/>
    </contour>
    <contour>
      <point x="633" y="1221" type="line"/>
      <point x="858" y="1221" type="line" smooth="yes"/>
      <point x="1050" y="1221"/>
      <point x="1149" y="1150"/>
      <point x="1149" y="1017" type="curve" smooth="yes"/>
      <point x="1149" y="850"/>
      <point x="1022" y="728"/>
      <point x="834" y="728" type="curve" smooth="yes"/>
      <point x="468" y="728" type="line"/>
    </contour>
  </outline>
</glyph>
<glyph name="Q" format="2">
  <advance width="1667"/>
  <unicode hex="0051"/>
  <outline>
    <component base="O"/>
    <contour>
      <point x="1452" y="-127" type="line"/>
      <point x="1080" y="523" type="line"/>
      <point x="876" y="523" type="line"/>
      <point x="1235" y="-127" type="line"/>
    </contour>
  </outline>
</glyph>
<glyph name="R" format="2">
  <advance width="1326"/>
  <unicode hex="0052"/>
  <anchor x="827" y="1400" name="top"/>
  <anchor x="597" y="0" name="bottom"/>
  <outline>
    <contour>
      <point x="84" y="0" type="line"/>
      <point x="380" y="1400" type="line"/>
      <point x="841" y="1400" type="line" smooth="yes"/>
      <point x="985" y="1400"/>
      <point x="1186" y="1311"/>
      <point x="1291" y="1148"/>
      <point x="1291" y="1038" type="qcurve" smooth="yes"/>
      <point x="1291" y="913"/>
      <point x="1171" y="725"/>
      <point x="964" y="610"/>
      <point x="833" y="594" type="qcurve"/>
      <point x="1142" y="0" type="line"/>
      <point x="900" y="0" type="line"/>
      <point x="613" y="573" type="line"/>
      <point x="411" y="573" type="line"/>
      <point x="290" y="0" type="line"/>
    </contour>
    <contour>
      <point x="447" y="746" type="line"/>
      <point x="774" y="746" type="line" smooth="yes"/>
      <point x="911" y="746"/>
      <point x="1081" y="891"/>
      <point x="1081" y="1015" type="qcurve" smooth="yes"/>
      <point x="1081" y="1114"/>
      <point x="945" y="1223"/>
      <point x="802" y="1223" type="qcurve" smooth="yes"/>
      <point x="549" y="1223" type="line"/>
    </contour>
  </outline>
</glyph>
<glyph name="S" format="2">
  <advance width="1253"/>
  <unicode hex="0053"/>
  <anchor x="820" y="1400" name="top"/>
  <anchor x="560" y="0" name="bottom"/>
  <outline>
    <contour>
      <point x="586" y="-30" type="qcurve" smooth="yes"/>
      <point x="432" y="-30"/>
      <point x="149" y="64"/>
      <point x="60" y="149" type="qcurve"/>
      <point x="191" y="299" type="line"/>
      <point x="238" y="253"/>
      <point x="371" y="186"/>
      <point x="526" y="149"/>
      <point x="606" y="149" type="qcurve" smooth="yes"/>
      <point x="745" y="149"/>
      <point x="923" y="271"/>
      <point x="923" y="382" type="qcurve" smooth="yes"/>
      <point x="923" y="447"/>
      <point x="820" y="549"/>
      <point x="691" y="598" type="qcurve" smooth="yes"/>
      <point x="558" y="647" type="line"/>
      <point x="402" y="706"/>
      <point x="255" y="871"/>
      <point x="255" y="984" type="qcurve" smooth="yes"/>
      <point x="255" y="1086"/>
      <point x="338" y="1250"/>
      <point x="485" y="1368"/>
      <point x="677" y="1430"/>
      <point x="786" y="1430" type="qcurve" smooth="yes"/>
      <point x="936" y="1430"/>
      <point x="1181" y="1337"/>
      <point x="1254" y="1261" type="qcurve"/>
      <point x="1122" y="1117" type="line"/>
      <point x="1081" y="1159"/>
      <point x="965" y="1220"/>
      <point x="829" y="1253"/>
      <point x="757" y="1253" type="qcurve" smooth="yes"/>
      <point x="670" y="1253"/>
      <point x="533" y="1196"/>
      <point x="454" y="1091"/>
      <point x="454" y="1019" type="qcurve" smooth="yes"/>
      <point x="454" y="977"/>
      <point x="497" y="908"/>
      <point x="598" y="846"/>
      <point x="684" y="813" type="qcurve" smooth="yes"/>
      <point x="826" y="760" type="line"/>
      <point x="979" y="701"/>
      <point x="1126" y="540"/>
      <point x="1126" y="425" type="qcurve" smooth="yes"/>
      <point x="1126" y="284"/>
      <point x="983" y="81"/>
      <point x="739" y="-30"/>
    </contour>
  </outline>
</glyph>
<glyph name="T" format="2">
  <advance width="1116"/>
  <unicode hex="0054"/>
  <anchor x="627" y="699" name="bar"/>
  <anchor x="396" y="0" name="bottom"/>
  <anchor x="859" y="1400" name="top"/>
  <outline>
    <contour>
      <point x="498" y="0" type="line"/>
      <point x="900" y="1214" type="line"/>
      <point x="1298" y="1214" type="line"/>
      <point x="1358" y="1400" type="line"/>
      <point x="360" y="1400" type="line"/>
      <point x="299" y="1214" type="line"/>
      <point x="697" y="1214" type="line"/>
      <point x="295" y="0" type="line"/>
    </contour>
  </outline>
</glyph>
<glyph name="U" format="2">
  <advance width="1473"/>
  <unicode hex="0055"/>
  <anchor x="629" y="0" name="bottom"/>
  <anchor x="1597" y="1400" name="horn"/>
  <anchor x="920" y="0" name="ogonek"/>
  <anchor x="1038" y="1400" name="top"/>
  <outline>
    <contour>
      <point x="639" y="-30" type="curve" smooth="yes"/>
      <point x="971" y="-30"/>
      <point x="1201" y="195"/>
      <point x="1312" y="540" type="curve"/>
      <point x="1597" y="1400" type="line"/>
      <point x="1394" y="1400" type="line"/>
      <point x="1111" y="545" type="line"/>
      <point x="1023" y="272"/>
      <point x="861" y="162"/>
      <point x="665" y="162" type="curve" smooth="yes"/>
      <point x="403" y="162"/>
      <point x="317" y="311"/>
      <point x="398" y="545" type="curve"/>
      <point x="682" y="1400" type="line"/>
      <point x="479" y="1400" type="line"/>
      <point x="194" y="540" type="line"/>
      <point x="80" y="188"/>
      <point x="278" y="-30"/>
    </contour>
  </outline>
</glyph>
<glyph name="V" format="2">
  <advance width="1310"/>
  <unicode hex="0056"/>
  <outline>
    <contour>
      <point x="597" y="0" type="line"/>
      <point x="1597" y="1400" type="line"/>
      <point x="1360" y="1400" type="line"/>
      <point x="578" y="281" type="line"/>
      <point x="537" y="1400" type="line"/>
      <point x="317" y="1400" type="line"/>
      <point x="387" y="0" type="line"/>
    </contour>
  </outline>
</glyph>
<glyph name="W" format="2">
  <advance width="2030"/>
  <unicode hex="0057"/>
  <anchor x="1208" y="1400" name="top"/>
  <outline>
    <contour>
      <point x="367" y="0" type="line"/>
      <point x="244" y="1400" type="line"/>
      <point x="454" y="1400" type="line"/>
      <point x="531" y="275" type="line"/>
      <point x="1102" y="1400" type="line"/>
      <point x="1317" y="1400" type="line"/>
      <point x="1405" y="282" type="line"/>
      <point x="1957" y="1400" type="line"/>
      <point x="2173" y="1400" type="line"/>
      <point x="1458" y="0" type="line"/>
      <point x="1237" y="0" type="line"/>
      <point x="1147" y="1089" type="line"/>
      <point x="585" y="0" type="line"/>
    </contour>
  </outline>
</glyph>
<glyph name="X" format="2">
  <advance width="1332"/>
  <unicode hex="0058"/>
  <outline>
    <contour>
      <point x="177" y="0" type="line"/>
      <point x="683" y="569" type="line"/>
      <point x="909" y="0" type="line"/>
      <point x="1141" y="0" type="line"/>
      <point x="860" y="701" type="line"/>
      <point x="1505" y="1400" type="line"/>
      <point x="1258" y="1400" type="line"/>
      <point x="758" y="869" type="line"/>
      <point x="559" y="1400" type="line"/>
      <point x="329" y="1400" type="line"/>
      <point x="580" y="733" type="line"/>
      <point x="-74" y="0" type="line"/>
    </contour>
  </outline>
</glyph>
<glyph name="Y" format="2">
  <advance width="1225"/>
  <unicode hex="0059"/>
  <anchor x="478" y="-0" name="bottom"/>
  <anchor x="852" y="1400" name="top"/>
  <anchor x="212" y="1400" name="topleft"/>
  <outline>
    <contour>
      <point x="579" y="0" type="line"/>
      <point x="742" y="606" type="line"/>
      <point x="1453" y="1400" type="line"/>
      <point x="1211" y="1400" type="line"/>
      <point x="687" y="809" type="line"/>
      <point x="482" y="1400" type="line"/>
      <point x="262" y="1400" type="line"/>
      <point x="539" y="608" type="line"/>
      <point x="376" y="0" type="line"/>
    </contour>
  </outline>
</glyph>
<glyph name="Z" format="2">
  <advance width="1167"/>
  <unicode hex="005A"/>
  <anchor x="891" y="1400" name="top"/>
  <outline>
    <contour>
      <point x="920" y="0" type="line"/>
      <point x="980" y="186" type="line"/>
      <point x="253" y="186" type="line"/>
      <point x="1321" y="1225" type="line"/>
      <point x="1375" y="1400" type="line"/>
      <point x="419" y="1400" type="line"/>
      <point x="359" y="1214" type="line"/>
      <point x="1059" y="1214" type="line"/>
      <point x="-11" y="175" type="line"/>
      <point x="-66" y="0" type="line"/>
    </contour>
  </outline>
</glyph>
<glyph name="bracketleft" format="2">
  <advance width="708"/>
  <unicode hex="005B"/>
  <outline>
    <contour>
      <point x="50" y="-220" type="line"/>
      <point x="438" y="1600" type="line"/>
      <point x="811" y="1600" type="line"/>
      <point x="780" y="1451" type="line"/>
      <point x="574" y="1451" type="line"/>
      <point x="250" y="-71" type="line"/>
      <point x="455" y="-71" type="line"/>
      <point x="423" y="-220" type="line"/>
    </contour>
  </outline>
</glyph>
<glyph name="backslash" format="2">
  <advance width="947"/>
  <unicode hex="005C"/>
  <outline>
    <contour>
      <point x="717" y="-211" type="line"/>
      <point x="558" y="1610" type="line"/>
      <point x="369" y="1593" type="line"/>
      <point x="527" y="-230" type="line"/>
    </contour>
  </outline>
</glyph>
<glyph name="bracketright" format="2">
  <advance width="721"/>
  <unicode hex="005D"/>
  <outline>
    <contour>
      <point x="884" y="1600" type="line"/>
      <point x="514" y="1600" type="line"/>
      <point x="464" y="1453" type="line"/>
      <point x="669" y="1453" type="line"/>
      <point x="163" y="-73" type="line"/>
      <point x="-42" y="-73" type="line"/>
      <point x="-89" y="-220" type="line"/>
      <point x="281" y="-220" type="line"/>
    </contour>
  </outline>
</glyph>
<glyph name="asciicircum" format="2">
  <advance width="1298"/>
  <unicode hex="005E"/>
  <outline>
    <contour>
      <point x="264" y="830" type="line"/>
      <point x="743" y="1400" type="line"/>
      <point x="939" y="1400" type="line"/>
      <point x="1176" y="830" type="line"/>
      <point x="994" y="830" type="line"/>
      <point x="817" y="1254" type="line"/>
      <point x="461" y="830" type="line"/>
    </contour>
  </outline>
</glyph>
<glyph name="underscore" format="2">
  <advance width="1084"/>
  <unicode hex="005F"/>
  <outline>
    <contour>
      <point x="787" y="-320" type="line"/>
      <point x="841" y="-161" type="line"/>
      <point x="-189" y="-161" type="line"/>
      <point x="-243" y="-320" type="line"/>
    </contour>
  </outline>
</glyph>
<glyph name="a" format="2">
  <advance width="1110"/>
  <unicode hex="0061"/>
  <anchor x="367" y="0" name="bottom"/>
  <anchor x="799" y="0" name="ogonek"/>
  <anchor x="690" y="984" name="top"/>
  <outline>
    <contour>
      <point x="320" y="-29" type="curve" smooth="yes"/>
      <point x="441" y="-29"/>
      <point x="574" y="12"/>
      <point x="656" y="119" type="curve"/>
      <point x="618" y="0" type="line"/>
      <point x="799" y="0" type="line"/>
      <point x="998" y="568" type="line"/>
      <point x="1089" y="854"/>
      <point x="939" y="1024"/>
      <point x="648" y="1024" type="curve" smooth="yes"/>
      <point x="507" y="1024"/>
      <point x="386" y="991"/>
      <point x="282" y="921" type="curve"/>
      <point x="297" y="767" type="line"/>
      <point x="381" y="824"/>
      <point x="503" y="859"/>
      <point x="591" y="859" type="curve" smooth="yes"/>
      <point x="749" y="859"/>
      <point x="867" y="794"/>
      <point x="807" y="592" type="curve"/>
      <point x="726" y="366" type="line" smooth="yes"/>
      <point x="683" y="242"/>
      <point x="550" y="130"/>
      <point x="381" y="130" type="curve" smooth="yes"/>
      <point x="281" y="130"/>
      <point x="208" y="179"/>
      <point x="208" y="267" type="curve" smooth="yes"/>
      <point x="208" y="491"/>
      <point x="584" y="478"/>
      <point x="802" y="449" type="curve"/>
      <point x="845" y="579" type="line"/>
      <point x="453" y="634"/>
      <point x="15" y="581"/>
      <point x="15" y="238" type="curve" smooth="yes"/>
      <point x="15" y="72"/>
      <point x="132" y="-29"/>
    </contour>
  </outline>
</glyph>
<glyph name="b" format="2">
  <advance width="1296"/>
  <unicode hex="0062"/>
  <outline>
    <contour>
      <point x="671" y="-30" type="qcurve" smooth="yes"/>
      <point x="563" y="-30"/>
      <point x="393" y="36"/>
      <point x="276" y="152"/>
      <point x="249" y="226" type="qcurve"/>
      <point x="288" y="243" type="line"/>
      <point x="236" y="0" type="line"/>
      <point x="53" y="0" type="line"/>
      <point x="359" y="1440" type="line"/>
      <point x="560" y="1440" type="line"/>
      <point x="415" y="757" type="line"/>
      <point x="384" y="825" type="line"/>
      <point x="460" y="911"/>
      <point x="645" y="1015"/>
      <point x="772" y="1015" type="qcurve" smooth="yes"/>
      <point x="913" y="1015"/>
      <point x="1116" y="895"/>
      <point x="1226" y="690"/>
      <point x="1226" y="563" type="qcurve" smooth="yes"/>
      <point x="1226" y="444"/>
      <point x="1142" y="230"/>
      <point x="992" y="65"/>
      <point x="790" y="-30"/>
    </contour>
    <contour>
      <point x="654" y="152" type="qcurve" smooth="yes"/>
      <point x="764" y="152"/>
      <point x="929" y="261"/>
      <point x="1020" y="442"/>
      <point x="1020" y="549" type="qcurve" smooth="yes"/>
      <point x="1020" y="636"/>
      <point x="945" y="764"/>
      <point x="812" y="835"/>
      <point x="722" y="835" type="qcurve" smooth="yes"/>
      <point x="611" y="835"/>
      <point x="445" y="728"/>
      <point x="354" y="551"/>
      <point x="354" y="445" type="qcurve" smooth="yes"/>
      <point x="354" y="355"/>
      <point x="428" y="223"/>
      <point x="563" y="152"/>
    </contour>
  </outline>
</glyph>
<glyph name="c" format="2">
  <advance width="1051"/>
  <unicode hex="0063"/>
  <anchor x="664" y="985" name="top"/>
  <anchor x="495" y="0" name="bottom"/>
  <outline>
    <contour>
      <point x="563" y="-30" type="qcurve" smooth="yes"/>
      <point x="414" y="-30"/>
      <point x="193" y="89"/>
      <point x="71" y="297"/>
      <point x="71" y="430" type="qcurve" smooth="yes"/>
      <point x="71" y="554"/>
      <point x="165" y="767"/>
      <point x="332" y="927"/>
      <point x="554" y="1015"/>
      <point x="680" y="1015" type="qcurve" smooth="yes"/>
      <point x="788" y="1015"/>
      <point x="964" y="952"/>
      <point x="1033" y="888" type="qcurve"/>
      <point x="907" y="741" type="line"/>
      <point x="864" y="789"/>
      <point x="735" y="835"/>
      <point x="656" y="835" type="qcurve" smooth="yes"/>
      <point x="539" y="835"/>
      <point x="369" y="731"/>
      <point x="278" y="554"/>
      <point x="278" y="443" type="qcurve" smooth="yes"/>
      <point x="278" y="307"/>
      <point x="446" y="151"/>
      <point x="595" y="151" type="qcurve" smooth="yes"/>
      <point x="663" y="151"/>
      <point x="789" y="197"/>
      <point x="838" y="234" type="qcurve"/>
      <point x="909" y="73" type="line"/>
      <point x="829" y="25"/>
      <point x="653" y="-30"/>
    </contour>
  </outline>
</glyph>
<glyph name="d" format="2">
  <advance width="1297"/>
  <unicode hex="0064"/>
  <anchor x="1229" y="1210" name="bar"/>
  <anchor x="1455" y="1440" name="caron"/>
  <outline>
    <contour>
      <point x="503" y="-30" type="curve" smooth="yes"/>
      <point x="679" y="-30"/>
      <point x="788" y="49"/>
      <point x="885" y="159" type="curve"/>
      <point x="874" y="233" type="line"/>
      <point x="796" y="0" type="line"/>
      <point x="977" y="0" type="line"/>
      <point x="1455" y="1440" type="line"/>
      <point x="1257" y="1440" type="line"/>
      <point x="1032" y="762" type="line"/>
      <point x="1086" y="771" type="line"/>
      <point x="1023" y="918"/>
      <point x="873" y="1014"/>
      <point x="660" y="1014" type="curve" smooth="yes"/>
      <point x="336" y="1014"/>
      <point x="68" y="714"/>
      <point x="68" y="381" type="curve" smooth="yes"/>
      <point x="68" y="130"/>
      <point x="239" y="-30"/>
    </contour>
    <contour>
      <point x="555" y="148" type="curve" smooth="yes"/>
      <point x="380" y="148"/>
      <point x="273" y="251"/>
      <point x="273" y="409" type="curve" smooth="yes"/>
      <point x="273" y="635"/>
      <point x="430" y="836"/>
      <point x="663" y="836" type="curve" smooth="yes"/>
      <point x="839" y="836"/>
      <point x="950" y="735"/>
      <point x="950" y="572" type="curve" smooth="yes"/>
      <point x="950" y="345"/>
      <point x="791" y="148"/>
    </contour>
  </outline>
</glyph>
<glyph name="e" format="2">
  <advance width="1148"/>
  <unicode hex="0065"/>
  <anchor x="477" y="0" name="bottom"/>
  <anchor x="819" y="0" name="ogonek"/>
  <anchor x="692" y="984" name="top"/>
  <outline>
    <contour>
      <point x="553" y="-30" type="curve" smooth="yes"/>
      <point x="671" y="-30"/>
      <point x="809" y="0"/>
      <point x="911" y="59" type="curve"/>
      <point x="866" y="214" type="line"/>
      <point x="779" y="161"/>
      <point x="679" y="136"/>
      <point x="584" y="136" type="curve" smooth="yes"/>
      <point x="380" y="136"/>
      <point x="230" y="244"/>
      <point x="262" y="450" type="curve"/>
      <point x="1066" y="450" type="line"/>
      <point x="1161" y="754"/>
      <point x="994" y="1014"/>
      <point x="660" y="1014" type="curve" smooth="yes"/>
      <point x="328" y="1014"/>
      <point x="69" y="738"/>
      <point x="69" y="403" type="curve" smooth="yes"/>
      <point x="69" y="145"/>
      <point x="256" y="-30"/>
    </contour>
    <contour>
      <point x="304" y="601" type="line"/>
      <point x="343" y="763"/>
      <point x="470" y="854"/>
      <point x="635" y="854" type="curve" smooth="yes"/>
      <point x="806" y="854"/>
      <point x="911" y="780"/>
      <point x="897" y="601" type="curve"/>
    </contour>
  </outline>
</glyph>
<glyph name="f" format="2">
  <advance width="767"/>
  <unicode hex="0066"/>
  <outline>
    <contour>
      <point x="152" y="0" type="line"/>
      <point x="398" y="1159" type="line" smooth="yes"/>
      <point x="430" y="1310"/>
      <point x="610" y="1470"/>
      <point x="747" y="1470" type="qcurve" smooth="yes"/>
      <point x="809" y="1470"/>
      <point x="905" y="1442"/>
      <point x="941" y="1417" type="qcurve"/>
      <point x="871" y="1263" type="line"/>
      <point x="842" y="1281"/>
      <point x="780" y="1294"/>
      <point x="752" y="1294" type="qcurve" smooth="yes"/>
      <point x="696" y="1294"/>
      <point x="614" y="1229"/>
      <point x="596" y="1151" type="qcurve" smooth="yes"/>
      <point x="561" y="985" type="line"/>
      <point x="823" y="985" type="line"/>
      <point x="787" y="816" type="line"/>
      <point x="526" y="816" type="line"/>
      <point x="352" y="0" type="line"/>
    </contour>
    <contour>
      <point x="123" y="816" type="line"/>
      <point x="156" y="985" type="line"/>
      <point x="387" y="985" type="line"/>
      <point x="353" y="816" type="line"/>
    </contour>
  </outline>
</glyph>
<glyph name="g" format="2">
  <advance width="1177"/>
  <unicode hex="0067"/>
  <anchor x="631" y="960" name="top"/>
  <outline>
    <contour>
      <point x="441" y="-450" type="qcurve"/>
      <point x="350" y="-450"/>
      <point x="178" y="-414"/>
      <point x="40" y="-342"/>
      <point x="-41" y="-232"/>
      <point x="-41" y="-158" type="qcurve"/>
      <point x="-41" y="-87"/>
      <point x="43" y="12"/>
      <point x="181" y="70"/>
      <point x="263" y="78" type="qcurve"/>
      <point x="215" y="107"/>
      <point x="169" y="169"/>
      <point x="169" y="202" type="qcurve"/>
      <point x="169" y="246"/>
      <point x="219" y="315"/>
      <point x="312" y="366"/>
      <point x="442" y="395"/>
      <point x="521" y="398" type="qcurve"/>
      <point x="543" y="330" type="line"/>
      <point x="482" y="333"/>
      <point x="367" y="314"/>
      <point x="293" y="267"/>
      <point x="293" y="228" type="qcurve"/>
      <point x="293" y="197"/>
      <point x="366" y="156"/>
      <point x="445" y="142" type="qcurve"/>
      <point x="607" y="114" type="line"/>
      <point x="718" y="95"/>
      <point x="866" y="27"/>
      <point x="939" y="-68"/>
      <point x="939" y="-128" type="qcurve"/>
      <point x="939" y="-208"/>
      <point x="857" y="-329"/>
      <point x="716" y="-410"/>
      <point x="538" y="-450"/>
    </contour>
    <contour>
      <point x="463" y="-352" type="qcurve"/>
      <point x="625" y="-352"/>
      <point x="811" y="-243"/>
      <point x="811" y="-158" type="qcurve"/>
      <point x="811" y="-99"/>
      <point x="681" y="-20"/>
      <point x="553" y="2" type="qcurve"/>
      <point x="383" y="32" type="line"/>
      <point x="304" y="35"/>
      <point x="168" y="-4"/>
      <point x="85" y="-84"/>
      <point x="85" y="-142" type="qcurve"/>
      <point x="85" y="-215"/>
      <point x="199" y="-308"/>
      <point x="373" y="-352"/>
    </contour>
    <contour>
      <point x="569" y="310" type="qcurve"/>
      <point x="458" y="310"/>
      <point x="281" y="393"/>
      <point x="177" y="536"/>
      <point x="177" y="626" type="qcurve"/>
      <point x="177" y="726"/>
      <point x="299" y="891"/>
      <point x="498" y="990"/>
      <point x="615" y="990" type="qcurve"/>
      <point x="727" y="990"/>
      <point x="905" y="905"/>
      <point x="1009" y="760"/>
      <point x="1009" y="670" type="qcurve"/>
      <point x="1009" y="573"/>
      <point x="887" y="409"/>
      <point x="687" y="310"/>
    </contour>
    <contour>
      <point x="581" y="418" type="qcurve"/>
      <point x="671" y="418"/>
      <point x="806" y="489"/>
      <point x="881" y="607"/>
      <point x="881" y="676" type="qcurve"/>
      <point x="881" y="769"/>
      <point x="730" y="882"/>
      <point x="605" y="882" type="qcurve"/>
      <point x="515" y="882"/>
      <point x="380" y="811"/>
      <point x="305" y="694"/>
      <point x="305" y="626" type="qcurve"/>
      <point x="305" y="532"/>
      <point x="455" y="418"/>
    </contour>
    <contour>
      <point x="797" y="856" type="line"/>
      <point x="777" y="950" type="line"/>
      <point x="1233" y="960" type="line"/>
      <point x="1211" y="856" type="line"/>
    </contour>
  </outline>
</glyph>
<glyph name="h" format="2">
  <advance width="1218"/>
  <unicode hex="0068"/>
  <anchor x="599" y="1210" name="bar"/>
  <anchor x="574" y="1440" name="top"/>
  <outline>
    <contour>
      <point x="192" y="0" type="line"/>
      <point x="378" y="559" type="line"/>
      <point x="437" y="741"/>
      <point x="573" y="830"/>
      <point x="712" y="830" type="curve"/>
      <point x="867" y="831"/>
      <point x="956" y="739"/>
      <point x="906" y="589" type="curve" smooth="yes"/>
      <point x="708" y="0" type="line"/>
      <point x="906" y="0" type="line"/>
      <point x="1122" y="646" type="line"/>
      <point x="1188" y="874"/>
      <point x="1019" y="1014"/>
      <point x="821" y="1014" type="curve" smooth="yes"/>
      <point x="698" y="1014"/>
      <point x="571" y="964"/>
      <point x="463" y="858" type="curve"/>
      <point x="455" y="787" type="line"/>
      <point x="673" y="1440" type="line"/>
      <point x="475" y="1440" type="line"/>
      <point x="-6" y="0" type="line"/>
    </contour>
  </outline>
</glyph>
<glyph name="k" format="2">
  <advance width="1105"/>
  <unicode hex="006B"/>
  <anchor x="488" y="0" name="bottom"/>
  <outline>
    <contour>
      <point x="52" y="0" type="line"/>
      <point x="360" y="1440" type="line"/>
      <point x="562" y="1440" type="line"/>
      <point x="380" y="583" type="line"/>
      <point x="856" y="985" type="line"/>
      <point x="1106" y="985" type="line"/>
      <point x="675" y="605" type="line"/>
      <point x="955" y="0" type="line"/>
      <point x="720" y="0" type="line"/>
      <point x="505" y="480" type="line"/>
      <point x="325" y="329" type="line"/>
      <point x="254" y="0" type="line"/>
    </contour>
  </outline>
</glyph>
<glyph name="l" format="2">
  <advance width="626"/>
  <unicode hex="006C"/>
  <anchor x="84" y="0" name="bottom"/>
  <anchor x="664" y="1440" name="caron"/>
  <anchor x="565" y="1440" name="top"/>
  <outline>
    <contour>
      <point x="267" y="-31" type="curve" smooth="yes"/>
      <point x="305" y="-31"/>
      <point x="371" y="-28"/>
      <point x="440" y="-7" type="curve"/>
      <point x="446" y="161" type="line"/>
      <point x="405" y="152"/>
      <point x="371" y="146"/>
      <point x="343" y="146" type="curve" smooth="yes"/>
      <point x="255" y="146"/>
      <point x="254" y="220"/>
      <point x="284" y="302" type="curve"/>
      <point x="664" y="1440" type="line"/>
      <point x="466" y="1440" type="line"/>
      <point x="66" y="255" type="line"/>
      <point x="12" y="123"/>
      <point x="56" y="-31"/>
    </contour>
  </outline>
</glyph>
<glyph name="m" format="2">
  <advance width="1884"/>
  <unicode hex="006D"/>
  <outline>
    <contour>
      <point x="52" y="0" type="line"/>
      <point x="262" y="985" type="line"/>
      <point x="464" y="985" type="line"/>
      <point x="430" y="821" type="line"/>
      <point x="473" y="882"/>
      <point x="587" y="969"/>
      <point x="717" y="1015"/>
      <point x="785" y="1015" type="qcurve" smooth="yes"/>
      <point x="915" y="1015"/>
      <point x="1057" y="891"/>
      <point x="1065" y="803" type="qcurve"/>
      <point x="1152" y="915"/>
      <point x="1357" y="1015"/>
      <point x="1464" y="1015" type="qcurve" smooth="yes"/>
      <point x="1576" y="1015"/>
      <point x="1729" y="924"/>
      <point x="1792" y="760"/>
      <point x="1770" y="651" type="qcurve"/>
      <point x="1632" y="0" type="line"/>
      <point x="1430" y="0" type="line"/>
      <point x="1555" y="592" type="line"/>
      <point x="1581" y="703"/>
      <point x="1480" y="828"/>
      <point x="1367" y="828" type="qcurve" smooth="yes"/>
      <point x="1297" y="828"/>
      <point x="1172" y="769"/>
      <point x="1083" y="655"/>
      <point x="1066" y="575" type="qcurve" smooth="yes"/>
      <point x="943" y="0" type="line"/>
      <point x="741" y="0" type="line"/>
      <point x="867" y="592" type="line"/>
      <point x="892" y="703"/>
      <point x="792" y="828"/>
      <point x="678" y="828" type="qcurve" smooth="yes"/>
      <point x="608" y="828"/>
      <point x="483" y="769"/>
      <point x="394" y="655"/>
      <point x="377" y="575" type="qcurve" smooth="yes"/>
      <point x="254" y="0" type="line"/>
    </contour>
  </outline>
</glyph>
<glyph name="n" format="2">
  <advance width="1222"/>
  <unicode hex="006E"/>
  <anchor x="728" y="985" name="top"/>
  <anchor x="511" y="0" name="bottom"/>
  <outline>
    <contour>
      <point x="52" y="0" type="line"/>
      <point x="262" y="985" type="line"/>
      <point x="464" y="985" type="line"/>
      <point x="435" y="849" type="line"/>
      <point x="508" y="936"/>
      <point x="686" y="1015"/>
      <point x="775" y="1015" type="qcurve" smooth="yes"/>
      <point x="885" y="1015"/>
      <point x="1051" y="921"/>
      <point x="1129" y="756"/>
      <point x="1108" y="651" type="qcurve" smooth="yes"/>
      <point x="969" y="0" type="line"/>
      <point x="767" y="0" type="line"/>
      <point x="892" y="588" type="line"/>
      <point x="917" y="701"/>
      <point x="798" y="828"/>
      <point x="685" y="828" type="qcurve" smooth="yes"/>
      <point x="611" y="828"/>
      <point x="483" y="766"/>
      <point x="392" y="645"/>
      <point x="374" y="559" type="qcurve" smooth="yes"/>
      <point x="254" y="0" type="line"/>
    </contour>
  </outline>
</glyph>
<glyph name="o" format="2">
  <advance width="1222"/>
  <unicode hex="006F"/>
  <anchor x="489" y="0" name="bottom"/>
  <anchor x="1125" y="984" name="horn"/>
  <anchor x="722" y="0" name="ogonek"/>
  <anchor x="734" y="984" name="top"/>
  <outline>
    <contour>
      <point x="530" y="-30" type="curve" smooth="yes"/>
      <point x="851" y="-30"/>
      <point x="1152" y="250"/>
      <point x="1152" y="583" type="curve" smooth="yes"/>
      <point x="1152" y="821"/>
      <point x="980" y="1014"/>
      <point x="693" y="1014" type="curve" smooth="yes"/>
      <point x="373" y="1014"/>
      <point x="70" y="734"/>
      <point x="70" y="405" type="curve" smooth="yes"/>
      <point x="70" y="161"/>
      <point x="241" y="-30"/>
    </contour>
    <contour>
      <point x="559" y="148" type="curve" smooth="yes"/>
      <point x="382" y="148"/>
      <point x="272" y="250"/>
      <point x="272" y="412" type="curve" smooth="yes"/>
      <point x="272" y="629"/>
      <point x="426" y="836"/>
      <point x="663" y="836" type="curve" smooth="yes"/>
      <point x="840" y="836"/>
      <point x="950" y="736"/>
      <point x="950" y="573" type="curve" smooth="yes"/>
      <point x="950" y="356"/>
      <point x="798" y="148"/>
    </contour>
  </outline>
</glyph>
<glyph name="p" format="2">
  <advance width="1295"/>
  <unicode hex="0070"/>
  <outline>
    <contour>
      <point x="53" y="-420" type="line"/>
      <point x="245" y="166" type="line"/>
      <point x="312" y="51"/>
      <point x="448" y="-30"/>
      <point x="635" y="-30" type="curve" smooth="yes"/>
      <point x="964" y="-30"/>
      <point x="1228" y="273"/>
      <point x="1228" y="603" type="curve" smooth="yes"/>
      <point x="1228" y="843"/>
      <point x="1068" y="1014"/>
      <point x="798" y="1014" type="curve" smooth="yes"/>
      <point x="649" y="1014"/>
      <point x="549" y="956"/>
      <point x="462" y="875" type="curve"/>
      <point x="502" y="984" type="line"/>
      <point x="322" y="984" type="line"/>
      <point x="-145" y="-420" type="line"/>
    </contour>
    <contour>
      <point x="635" y="148" type="curve" smooth="yes"/>
      <point x="458" y="148"/>
      <point x="346" y="251"/>
      <point x="346" y="411" type="curve" smooth="yes"/>
      <point x="346" y="622"/>
      <point x="498" y="836"/>
      <point x="739" y="836" type="curve" smooth="yes"/>
      <point x="914" y="836"/>
      <point x="1025" y="736"/>
      <point x="1025" y="579" type="curve" smooth="yes"/>
      <point x="1025" y="355"/>
      <point x="868" y="148"/>
    </contour>
  </outline>
</glyph>
<glyph name="q" format="2">
  <advance width="1298"/>
  <unicode hex="0071"/>
  <outline>
    <contour>
      <point x="837" y="-420" type="line"/>
      <point x="1304" y="984" type="line"/>
      <point x="1124" y="984" type="line"/>
      <point x="1045" y="751" type="line"/>
      <point x="1088" y="755" type="line"/>
      <point x="1022" y="932"/>
      <point x="842" y="1014"/>
      <point x="662" y="1014" type="curve" smooth="yes"/>
      <point x="333" y="1014"/>
      <point x="71" y="718"/>
      <point x="71" y="388" type="curve" smooth="yes"/>
      <point x="71" y="153"/>
      <point x="225" y="-26"/>
      <point x="487" y="-26" type="curve" smooth="yes"/>
      <point x="659" y="-26"/>
      <point x="768" y="46"/>
      <point x="878" y="156" type="curve"/>
      <point x="853" y="222" type="line"/>
      <point x="639" y="-420" type="line"/>
    </contour>
    <contour>
      <point x="557" y="150" type="curve" smooth="yes"/>
      <point x="385" y="150"/>
      <point x="272" y="251"/>
      <point x="272" y="408" type="curve" smooth="yes"/>
      <point x="272" y="621"/>
      <point x="424" y="834"/>
      <point x="665" y="834" type="curve" smooth="yes"/>
      <point x="840" y="834"/>
      <point x="951" y="732"/>
      <point x="951" y="575" type="curve" smooth="yes"/>
      <point x="951" y="360"/>
      <point x="799" y="150"/>
    </contour>
  </outline>
</glyph>
<glyph name="r" format="2">
  <advance width="756"/>
  <unicode hex="0072"/>
  <anchor x="544" y="960" name="top"/>
  <anchor x="124" y="0" name="bottom"/>
  <outline>
    <contour>
      <point x="68" y="0" type="line"/>
      <point x="272" y="960" type="line"/>
      <point x="386" y="960" type="line"/>
      <point x="354" y="808" type="line"/>
      <point x="437" y="912"/>
      <point x="611" y="990"/>
      <point x="702" y="990" type="qcurve"/>
      <point x="729" y="990"/>
      <point x="792" y="983"/>
      <point x="822" y="974" type="qcurve"/>
      <point x="778" y="858" type="line"/>
      <point x="750" y="866"/>
      <point x="695" y="874"/>
      <point x="666" y="874" type="qcurve"/>
      <point x="534" y="874"/>
      <point x="332" y="707"/>
      <point x="300" y="558" type="qcurve"/>
      <point x="180" y="0" type="line"/>
    </contour>
  </outline>
</glyph>
<glyph name="s" format="2">
  <advance width="934"/>
  <unicode hex="0073"/>
  <anchor x="534" y="960" name="top"/>
  <anchor x="364" y="0" name="bottom"/>
  <outline>
    <contour>
      <point x="396" y="-30" type="qcurve"/>
      <point x="281" y="-30"/>
      <point x="78" y="52"/>
      <point x="22" y="118" type="qcurve"/>
      <point x="102" y="206" type="line"/>
      <point x="153" y="143"/>
      <point x="313" y="74"/>
      <point x="404" y="74" type="qcurve"/>
      <point x="520" y="74"/>
      <point x="658" y="175"/>
      <point x="658" y="266" type="qcurve"/>
      <point x="658" y="328"/>
      <point x="552" y="400"/>
      <point x="426" y="442" type="qcurve"/>
      <point x="282" y="489"/>
      <point x="150" y="602"/>
      <point x="150" y="692" type="qcurve"/>
      <point x="150" y="779"/>
      <point x="245" y="919"/>
      <point x="410" y="1000"/>
      <point x="514" y="1000" type="qcurve"/>
      <point x="623" y="1000"/>
      <point x="798" y="927"/>
      <point x="858" y="860" type="qcurve"/>
      <point x="782" y="766" type="line"/>
      <point x="753" y="806"/>
      <point x="665" y="864"/>
      <point x="556" y="896"/>
      <point x="496" y="896" type="qcurve"/>
      <point x="396" y="896"/>
      <point x="264" y="799"/>
      <point x="264" y="710" type="qcurve"/>
      <point x="264" y="646"/>
      <point x="380" y="572"/>
      <point x="498" y="536" type="qcurve"/>
      <point x="639" y="494"/>
      <point x="772" y="380"/>
      <point x="772" y="290" type="qcurve"/>
      <point x="772" y="193"/>
      <point x="677" y="49"/>
      <point x="507" y="-30"/>
    </contour>
  </outline>
</glyph>
<glyph name="t" format="2">
  <advance width="851"/>
  <unicode hex="0074"/>
  <anchor x="410" y="524" name="bar"/>
  <anchor x="361" y="0" name="bottom"/>
  <anchor x="768" y="1440" name="caron"/>
  <outline>
    <contour>
      <point x="439" y="-30" type="curve" smooth="yes"/>
      <point x="499" y="-30"/>
      <point x="562" y="-20"/>
      <point x="614" y="2" type="curve"/>
      <point x="628" y="175" type="line"/>
      <point x="594" y="160"/>
      <point x="557" y="152"/>
      <point x="515" y="152" type="curve" smooth="yes"/>
      <point x="379" y="152"/>
      <point x="363" y="228"/>
      <point x="405" y="349" type="curve"/>
      <point x="561" y="818" type="line"/>
      <point x="843" y="818" type="line"/>
      <point x="897" y="984" type="line"/>
      <point x="616" y="984" type="line"/>
      <point x="713" y="1272" type="line"/>
      <point x="514" y="1272" type="line"/>
      <point x="192" y="302" type="line" smooth="yes"/>
      <point x="123" y="96"/>
      <point x="216" y="-30"/>
    </contour>
    <contour>
      <point x="390" y="818" type="line"/>
      <point x="445" y="984" type="line"/>
      <point x="195" y="984" type="line"/>
      <point x="141" y="818" type="line"/>
    </contour>
  </outline>
</glyph>
<glyph name="u" format="2">
  <advance width="1198"/>
  <unicode hex="0075"/>
  <anchor x="422" y="0" name="bottom"/>
  <anchor x="877" y="0" name="descender"/>
  <anchor x="1204" y="984" name="horn"/>
  <anchor x="877" y="0" name="ogonek"/>
  <anchor x="758" y="984" name="top"/>
  <outline>
    <contour>
      <point x="380" y="-30" type="curve" smooth="yes"/>
      <point x="512" y="-30"/>
      <point x="641" y="25"/>
      <point x="737" y="128" type="curve"/>
      <point x="696" y="0" type="line"/>
      <point x="877" y="0" type="line"/>
      <point x="1204" y="984" type="line"/>
      <point x="1006" y="984" type="line"/>
      <point x="817" y="418" type="line"/>
      <point x="761" y="241"/>
      <point x="626" y="152"/>
      <point x="487" y="152" type="curve" smooth="yes"/>
      <point x="343" y="152"/>
      <point x="269" y="230"/>
      <point x="313" y="388" type="curve"/>
      <point x="510" y="984" type="line"/>
      <point x="312" y="984" type="line"/>
      <point x="100" y="348" type="line"/>
      <point x="32" y="115"/>
      <point x="168" y="-30"/>
    </contour>
  </outline>
</glyph>
<glyph name="v" format="2">
  <advance width="1023"/>
  <unicode hex="0076"/>
  <outline>
    <contour>
      <point x="495" y="0" type="line"/>
      <point x="1125" y="984" type="line"/>
      <point x="900" y="984" type="line"/>
      <point x="386" y="135" type="line"/>
      <point x="440" y="124" type="line"/>
      <point x="377" y="984" type="line"/>
      <point x="164" y="984" type="line"/>
      <point x="267" y="0" type="line"/>
    </contour>
  </outline>
</glyph>
<glyph name="w" format="2">
  <advance width="1569"/>
  <unicode hex="0077"/>
  <anchor x="886" y="983" name="top"/>
  <outline>
    <contour>
      <point x="237" y="0" type="line"/>
      <point x="137" y="985" type="line"/>
      <point x="336" y="985" type="line"/>
      <point x="394" y="238" type="line"/>
      <point x="794" y="985" type="line"/>
      <point x="994" y="985" type="line"/>
      <point x="1056" y="242" type="line"/>
      <point x="1439" y="985" type="line"/>
      <point x="1642" y="985" type="line"/>
      <point x="1115" y="0" type="line"/>
      <point x="906" y="0" type="line"/>
      <point x="837" y="722" type="line"/>
      <point x="450" y="0" type="line"/>
    </contour>
  </outline>
</glyph>
<glyph name="x" format="2">
  <advance width="1053"/>
  <unicode hex="0078"/>
  <outline>
    <contour>
      <point x="-72" y="0" type="line"/>
      <point x="393" y="504" type="line"/>
      <point x="155" y="985" type="line"/>
      <point x="400" y="985" type="line"/>
      <point x="554" y="643" type="line"/>
      <point x="836" y="985" type="line"/>
      <point x="1094" y="985" type="line"/>
      <point x="663" y="495" type="line"/>
      <point x="916" y="0" type="line"/>
      <point x="666" y="0" type="line"/>
      <point x="499" y="358" type="line"/>
      <point x="184" y="0" type="line"/>
    </contour>
  </outline>
</glyph>
<glyph name="y" format="2">
  <advance width="1035"/>
  <unicode hex="0079"/>
  <anchor x="706" y="0" name="bottom"/>
  <anchor x="647" y="984" name="top"/>
  <outline>
    <contour>
      <point x="45" y="-450" type="curve" smooth="yes"/>
      <point x="183" y="-450"/>
      <point x="303" y="-385"/>
      <point x="429" y="-184" type="curve"/>
      <point x="1147" y="984" type="line"/>
      <point x="926" y="984" type="line"/>
      <point x="452" y="181" type="line"/>
      <point x="373" y="984" type="line"/>
      <point x="159" y="984" type="line"/>
      <point x="286" y="-38" type="line"/>
      <point x="229" y="-142" type="line"/>
      <point x="180" y="-225"/>
      <point x="128" y="-266"/>
      <point x="43" y="-266" type="curve" smooth="yes"/>
      <point x="-10" y="-266"/>
      <point x="-72" y="-245"/>
      <point x="-114" y="-203" type="curve"/>
      <point x="-201" y="-370" type="line"/>
      <point x="-123" y="-436"/>
      <point x="-41" y="-450"/>
    </contour>
  </outline>
</glyph>
<glyph name="z" format="2">
  <advance width="967"/>
  <unicode hex="007A"/>
  <anchor x="588" y="984" name="top"/>
  <outline>
    <contour>
      <point x="-10" y="0" type="line"/>
      <point x="20" y="147" type="line"/>
      <point x="679" y="806" type="line"/>
      <point x="171" y="806" type="line"/>
      <point x="209" y="984" type="line"/>
      <point x="969" y="984" type="line"/>
      <point x="939" y="837" type="line"/>
      <point x="289" y="178" type="line"/>
      <point x="806" y="178" type="line"/>
      <point x="769" y="0" type="line"/>
    </contour>
  </outline>
</glyph>
<glyph name="braceleft" format="2">
  <advance width="708"/>
  <unicode hex="007B"/>
  <outline>
    <contour>
      <point x="423" y="-225" type="line"/>
      <point x="225" y="-248"/>
      <point x="80" y="-100"/>
      <point x="136" y="57" type="qcurve"/>
      <point x="279" y="464" type="line" smooth="yes"/>
      <point x="301" y="526"/>
      <point x="295" y="592"/>
      <point x="220" y="617"/>
      <point x="141" y="617" type="qcurve"/>
      <point x="172" y="766" type="line"/>
      <point x="252" y="766"/>
      <point x="337" y="791"/>
      <point x="372" y="857"/>
      <point x="376" y="918" type="qcurve" smooth="yes"/>
      <point x="406" y="1320" type="line"/>
      <point x="417" y="1479"/>
      <point x="626" y="1628"/>
      <point x="811" y="1605" type="qcurve"/>
      <point x="780" y="1456" type="line"/>
      <point x="679" y="1465"/>
      <point x="590" y="1402"/>
      <point x="584" y="1325" type="qcurve" smooth="yes"/>
      <point x="550" y="926" type="line"/>
      <point x="544" y="821"/>
      <point x="453" y="708"/>
      <point x="363" y="692" type="qcurve"/>
      <point x="363" y="690" type="line"/>
      <point x="449" y="673"/>
      <point x="490" y="560"/>
      <point x="453" y="456" type="qcurve" smooth="yes"/>
      <point x="313" y="55" type="line"/>
      <point x="287" y="-21"/>
      <point x="349" y="-84"/>
      <point x="455" y="-76" type="qcurve"/>
    </contour>
  </outline>
</glyph>
<glyph name="bar" format="2">
  <advance width="571"/>
  <unicode hex="007C"/>
  <outline>
    <contour>
      <point x="131" y="-220" type="line"/>
      <point x="737" y="1600" type="line"/>
      <point x="571" y="1600" type="line"/>
      <point x="-35" y="-220" type="line"/>
    </contour>
  </outline>
</glyph>
<glyph name="braceright" format="2">
  <advance width="689"/>
  <unicode hex="007D"/>
  <outline>
    <contour>
      <point x="-122" y="-225" type="line"/>
      <point x="124" y="-255"/>
      <point x="277" y="-153"/>
      <point x="317" y="54" type="curve" smooth="yes"/>
      <point x="396" y="465" type="line"/>
      <point x="417" y="589"/>
      <point x="456" y="618"/>
      <point x="616" y="618" type="curve"/>
      <point x="668" y="765" type="line"/>
      <point x="508" y="765"/>
      <point x="488" y="794"/>
      <point x="546" y="917" type="curve" smooth="yes"/>
      <point x="736" y="1322" type="line"/>
      <point x="835" y="1532"/>
      <point x="747" y="1635"/>
      <point x="486" y="1605" type="curve"/>
      <point x="437" y="1458" type="line"/>
      <point x="580" y="1470"/>
      <point x="610" y="1429"/>
      <point x="563" y="1327" type="curve" smooth="yes"/>
      <point x="378" y="925" type="line"/>
      <point x="310" y="786"/>
      <point x="329" y="713"/>
      <point x="439" y="692" type="curve"/>
      <point x="436" y="690" type="line"/>
      <point x="310" y="667"/>
      <point x="247" y="595"/>
      <point x="219" y="456" type="curve" smooth="yes"/>
      <point x="141" y="53" type="line"/>
      <point x="119" y="-49"/>
      <point x="62" y="-89"/>
      <point x="-73" y="-78" type="curve"/>
    </contour>
  </outline>
</glyph>
<glyph name="asciitilde" format="2">
  <advance width="1298"/>
  <unicode hex="007E"/>
  <outline>
    <contour>
      <point x="911" y="515" type="qcurve" smooth="yes"/>
      <point x="843" y="515"/>
      <point x="722" y="560"/>
      <point x="612" y="618"/>
      <point x="511" y="663"/>
      <point x="463" y="663" type="qcurve" smooth="yes"/>
      <point x="407" y="663"/>
      <point x="283" y="597"/>
      <point x="230" y="536" type="qcurve"/>
      <point x="168" y="655" type="line"/>
      <point x="241" y="736"/>
      <point x="397" y="814"/>
      <point x="473" y="814" type="qcurve" smooth="yes"/>
      <point x="539" y="814"/>
      <point x="661" y="769"/>
      <point x="774" y="711"/>
      <point x="879" y="666"/>
      <point x="926" y="666" type="qcurve" smooth="yes"/>
      <point x="981" y="666"/>
      <point x="1103" y="733"/>
      <point x="1160" y="798" type="qcurve"/>
      <point x="1216" y="671" type="line"/>
      <point x="1143" y="591"/>
      <point x="986" y="515"/>
    </contour>
  </outline>
</glyph>
<glyph name="exclamdown" format="2">
  <advance width="670"/>
  <unicode hex="00A1"/>
  <outline>
    <contour>
      <point x="16" y="-408" type="line"/>
      <point x="246" y="522" type="line"/>
      <point x="421" y="522" type="line"/>
      <point x="256" y="-408" type="line"/>
    </contour>
    <contour>
      <point x="396" y="740" type="qcurve" smooth="yes"/>
      <point x="338" y="740"/>
      <point x="259" y="809"/>
      <point x="259" y="864" type="qcurve" smooth="yes"/>
      <point x="259" y="912"/>
      <point x="306" y="983"/>
      <point x="382" y="1022"/>
      <point x="425" y="1022" type="qcurve" smooth="yes"/>
      <point x="483" y="1022"/>
      <point x="561" y="953"/>
      <point x="561" y="898" type="qcurve" smooth="yes"/>
      <point x="561" y="850"/>
      <point x="515" y="779"/>
      <point x="439" y="740"/>
    </contour>
  </outline>
</glyph>
<glyph name="cent" format="2">
  <advance width="1296"/>
  <unicode hex="00A2"/>
  <outline>
    <contour>
      <point x="609" y="-160" type="line"/>
      <point x="652" y="-1" type="line"/>
      <point x="768" y="-2"/>
      <point x="878" y="27"/>
      <point x="980" y="90" type="curve"/>
      <point x="929" y="230" type="line"/>
      <point x="870" y="188"/>
      <point x="783" y="161"/>
      <point x="696" y="164" type="curve"/>
      <point x="868" y="803" type="line"/>
      <point x="926" y="793"/>
      <point x="973" y="771"/>
      <point x="1012" y="736" type="curve"/>
      <point x="1131" y="854" type="line"/>
      <point x="1073" y="911"/>
      <point x="1001" y="947"/>
      <point x="912" y="964" type="curve"/>
      <point x="959" y="1144" type="line"/>
      <point x="811" y="1144" type="line"/>
      <point x="766" y="977" type="line"/>
      <point x="447" y="965"/>
      <point x="203" y="714"/>
      <point x="203" y="411" type="curve" smooth="yes"/>
      <point x="203" y="217"/>
      <point x="320" y="69"/>
      <point x="508" y="19" type="curve"/>
      <point x="461" y="-160" type="line"/>
    </contour>
    <contour>
      <point x="551" y="182" type="line"/>
      <point x="434" y="215"/>
      <point x="370" y="300"/>
      <point x="370" y="427" type="curve" smooth="yes"/>
      <point x="370" y="639"/>
      <point x="508" y="812"/>
      <point x="722" y="812" type="curve"/>
    </contour>
  </outline>
</glyph>
<glyph name="sterling" format="2">
  <advance width="1298"/>
  <unicode hex="00A3"/>
  <outline>
    <contour>
      <point x="73" y="0" type="line"/>
      <point x="106" y="162" type="line"/>
      <point x="216" y="189"/>
      <point x="363" y="269"/>
      <point x="438" y="397"/>
      <point x="438" y="497" type="qcurve" smooth="yes"/>
      <point x="438" y="552"/>
      <point x="429" y="669"/>
      <point x="417" y="793"/>
      <point x="408" y="918"/>
      <point x="408" y="979" type="qcurve" smooth="yes"/>
      <point x="408" y="1113"/>
      <point x="535" y="1316"/>
      <point x="755" y="1429"/>
      <point x="896" y="1429" type="qcurve" smooth="yes"/>
      <point x="986" y="1429"/>
      <point x="1138" y="1389"/>
      <point x="1258" y="1320"/>
      <point x="1299" y="1277" type="qcurve"/>
      <point x="1193" y="1148" type="line"/>
      <point x="1129" y="1210"/>
      <point x="980" y="1264"/>
      <point x="893" y="1264" type="qcurve" smooth="yes"/>
      <point x="756" y="1264"/>
      <point x="599" y="1102"/>
      <point x="599" y="963" type="qcurve"/>
      <point x="600" y="908"/>
      <point x="602" y="790"/>
      <point x="604" y="668"/>
      <point x="606" y="548"/>
      <point x="606" y="492" type="qcurve" smooth="yes"/>
      <point x="606" y="405"/>
      <point x="535" y="235"/>
      <point x="428" y="162" type="qcurve"/>
      <point x="1106" y="162" type="line"/>
      <point x="1072" y="0" type="line"/>
    </contour>
    <contour>
      <point x="183" y="615" type="line"/>
      <point x="212" y="760" type="line"/>
      <point x="1074" y="760" type="line"/>
      <point x="1044" y="615" type="line"/>
    </contour>
  </outline>
</glyph>
<glyph name="currency" format="2">
  <advance width="1296"/>
  <unicode hex="00A4"/>
  <outline>
    <contour>
      <point x="409" y="282" type="line"/>
      <point x="470" y="231"/>
      <point x="540" y="209"/>
      <point x="625" y="209" type="curve" smooth="yes"/>
      <point x="702" y="209"/>
      <point x="783" y="234"/>
      <point x="861" y="285" type="curve"/>
      <point x="991" y="129" type="line"/>
      <point x="1121" y="240" type="line"/>
      <point x="995" y="392" type="line"/>
      <point x="1070" y="471"/>
      <point x="1114" y="571"/>
      <point x="1114" y="681" type="curve" smooth="yes"/>
      <point x="1114" y="740"/>
      <point x="1103" y="798"/>
      <point x="1074" y="849" type="curve"/>
      <point x="1251" y="999" type="line"/>
      <point x="1155" y="1114" type="line"/>
      <point x="979" y="963" type="line"/>
      <point x="920" y="1011"/>
      <point x="846" y="1033"/>
      <point x="764" y="1033" type="curve" smooth="yes"/>
      <point x="686" y="1033"/>
      <point x="603" y="1009"/>
      <point x="523" y="958" type="curve"/>
      <point x="394" y="1114" type="line"/>
      <point x="264" y="1003" type="line"/>
      <point x="391" y="851" type="line"/>
      <point x="323" y="775"/>
      <point x="275" y="677"/>
      <point x="275" y="555" type="curve" smooth="yes"/>
      <point x="275" y="500"/>
      <point x="284" y="443"/>
      <point x="313" y="394" type="curve"/>
      <point x="134" y="242" type="line"/>
      <point x="231" y="129" type="line"/>
    </contour>
    <contour>
      <point x="658" y="365" type="curve" smooth="yes"/>
      <point x="518" y="365"/>
      <point x="432" y="453"/>
      <point x="432" y="576" type="curve" smooth="yes"/>
      <point x="432" y="730"/>
      <point x="564" y="877"/>
      <point x="733" y="877" type="curve" smooth="yes"/>
      <point x="868" y="877"/>
      <point x="956" y="792"/>
      <point x="956" y="666" type="curve" smooth="yes"/>
      <point x="956" y="495"/>
      <point x="815" y="365"/>
    </contour>
  </outline>
</glyph>
<glyph name="yen" format="2">
  <advance width="1298"/>
  <unicode hex="00A5"/>
  <outline>
    <contour>
      <point x="440" y="0" type="line"/>
      <point x="501" y="296" type="line"/>
      <point x="119" y="296" type="line"/>
      <point x="149" y="435" type="line"/>
      <point x="532" y="435" type="line"/>
      <point x="569" y="613" type="line"/>
      <point x="187" y="613" type="line"/>
      <point x="217" y="752" type="line"/>
      <point x="521" y="752" type="line"/>
      <point x="259" y="1400" type="line"/>
      <point x="464" y="1400" type="line"/>
      <point x="700" y="795" type="line"/>
      <point x="1213" y="1400" type="line"/>
      <point x="1431" y="1400" type="line"/>
      <point x="873" y="752" type="line"/>
      <point x="1174" y="752" type="line"/>
      <point x="1144" y="613" type="line"/>
      <point x="761" y="613" type="line"/>
      <point x="724" y="435" type="line"/>
      <point x="1106" y="435" type="line"/>
      <point x="1076" y="296" type="line"/>
      <point x="693" y="296" type="line"/>
      <point x="632" y="0" type="line"/>
    </contour>
  </outline>
</glyph>
<glyph name="brokenbar" format="2">
  <advance width="572"/>
  <unicode hex="00A6"/>
  <outline>
    <contour>
      <point x="270" y="810" type="line"/>
      <point x="412" y="1480" type="line"/>
      <point x="580" y="1480" type="line"/>
      <point x="438" y="810" type="line"/>
    </contour>
    <contour>
      <point x="76" y="-100" type="line"/>
      <point x="218" y="570" type="line"/>
      <point x="386" y="570" type="line"/>
      <point x="244" y="-100" type="line"/>
    </contour>
  </outline>
</glyph>
<glyph name="section" format="2">
  <advance width="1235"/>
  <unicode hex="00A7"/>
  <outline>
    <contour>
      <point x="410" y="-450" type="curve" smooth="yes"/>
      <point x="674" y="-450"/>
      <point x="899" y="-297"/>
      <point x="899" y="-38" type="curve" smooth="yes"/>
      <point x="899" y="111"/>
      <point x="793" y="195"/>
      <point x="598" y="266" type="curve" smooth="yes"/>
      <point x="444" y="322"/>
      <point x="343" y="378"/>
      <point x="343" y="488" type="curve" smooth="yes"/>
      <point x="343" y="653"/>
      <point x="512" y="739"/>
      <point x="718" y="736" type="curve"/>
      <point x="748" y="860" type="line"/>
      <point x="463" y="887"/>
      <point x="162" y="729"/>
      <point x="162" y="450" type="curve" smooth="yes"/>
      <point x="162" y="298"/>
      <point x="280" y="203"/>
      <point x="491" y="124" type="curve"/>
      <point x="655" y="60"/>
      <point x="722" y="14"/>
      <point x="722" y="-69" type="curve" smooth="yes"/>
      <point x="722" y="-204"/>
      <point x="597" y="-285"/>
      <point x="436" y="-285" type="curve" smooth="yes"/>
      <point x="299" y="-285"/>
      <point x="157" y="-231"/>
      <point x="70" y="-134" type="curve"/>
      <point x="-49" y="-277" type="line"/>
      <point x="42" y="-372"/>
      <point x="217" y="-450"/>
    </contour>
    <contour>
      <point x="545" y="146" type="line"/>
      <point x="845" y="133"/>
      <point x="1117" y="285"/>
      <point x="1117" y="559" type="curve" smooth="yes"/>
      <point x="1117" y="711"/>
      <point x="991" y="800"/>
      <point x="795" y="871" type="curve" smooth="yes"/>
      <point x="633" y="930"/>
      <point x="547" y="970"/>
      <point x="547" y="1062" type="curve" smooth="yes"/>
      <point x="547" y="1192"/>
      <point x="661" y="1266"/>
      <point x="806" y="1266" type="curve" smooth="yes"/>
      <point x="942" y="1266"/>
      <point x="1076" y="1213"/>
      <point x="1158" y="1120" type="curve"/>
      <point x="1272" y="1265" type="line"/>
      <point x="1171" y="1371"/>
      <point x="1018" y="1430"/>
      <point x="842" y="1430" type="curve" smooth="yes"/>
      <point x="591" y="1430"/>
      <point x="376" y="1275"/>
      <point x="376" y="1030" type="curve" smooth="yes"/>
      <point x="376" y="891"/>
      <point x="476" y="804"/>
      <point x="670" y="732" type="curve"/>
      <point x="844" y="667"/>
      <point x="929" y="622"/>
      <point x="929" y="532" type="curve" smooth="yes"/>
      <point x="929" y="364"/>
      <point x="768" y="255"/>
      <point x="573" y="267" type="curve"/>
    </contour>
  </outline>
</glyph>
<glyph name="copyright" format="2">
  <advance width="1676"/>
  <unicode hex="00A9"/>
  <outline>
    <contour>
      <point x="838" y="-36" type="qcurve" smooth="yes"/>
      <point x="680" y="-36"/>
      <point x="411" y="75"/>
      <point x="211" y="274"/>
      <point x="100" y="540"/>
      <point x="100" y="694" type="qcurve" smooth="yes"/>
      <point x="100" y="850"/>
      <point x="211" y="1116"/>
      <point x="412" y="1314"/>
      <point x="681" y="1424"/>
      <point x="838" y="1424" type="qcurve" smooth="yes"/>
      <point x="995" y="1424"/>
      <point x="1263" y="1312"/>
      <point x="1464" y="1112"/>
      <point x="1576" y="847"/>
      <point x="1576" y="694" type="qcurve" smooth="yes"/>
      <point x="1576" y="539"/>
      <point x="1464" y="273"/>
      <point x="1263" y="75"/>
      <point x="995" y="-36"/>
    </contour>
    <contour>
      <point x="838" y="74" type="qcurve" smooth="yes"/>
      <point x="962" y="74"/>
      <point x="1184" y="161"/>
      <point x="1357" y="326"/>
      <point x="1456" y="554"/>
      <point x="1456" y="694" type="qcurve" smooth="yes"/>
      <point x="1456" y="835"/>
      <point x="1356" y="1063"/>
      <point x="1184" y="1227"/>
      <point x="962" y="1315"/>
      <point x="838" y="1315" type="qcurve" smooth="yes"/>
      <point x="714" y="1315"/>
      <point x="492" y="1227"/>
      <point x="320" y="1063"/>
      <point x="220" y="835"/>
      <point x="220" y="694" type="qcurve" smooth="yes"/>
      <point x="220" y="554"/>
      <point x="319" y="326"/>
      <point x="492" y="161"/>
      <point x="714" y="74"/>
    </contour>
    <contour>
      <point x="862" y="286" type="qcurve" smooth="yes"/>
      <point x="736" y="286"/>
      <point x="546" y="387"/>
      <point x="441" y="570"/>
      <point x="441" y="694" type="qcurve" smooth="yes"/>
      <point x="441" y="812"/>
      <point x="549" y="997"/>
      <point x="740" y="1102"/>
      <point x="863" y="1102" type="qcurve" smooth="yes"/>
      <point x="956" y="1102"/>
      <point x="1092" y="1058"/>
      <point x="1143" y="1016" type="qcurve"/>
      <point x="1073" y="905" type="line"/>
      <point x="1035" y="939"/>
      <point x="934" y="972"/>
      <point x="873" y="972" type="qcurve" smooth="yes"/>
      <point x="739" y="972"/>
      <point x="581" y="823"/>
      <point x="581" y="694" type="qcurve" smooth="yes"/>
      <point x="581" y="564"/>
      <point x="741" y="416"/>
      <point x="879" y="416" type="qcurve" smooth="yes"/>
      <point x="936" y="416"/>
      <point x="1051" y="450"/>
      <point x="1103" y="491" type="qcurve"/>
      <point x="1165" y="377" type="line"/>
      <point x="1106" y="334"/>
      <point x="957" y="286"/>
    </contour>
  </outline>
</glyph>
<glyph name="ordfeminine" format="2">
  <advance width="803"/>
  <unicode hex="00AA"/>
  <anchor x="574" y="1367" name="top"/>
  <anchor x="439" y="722" name="bottom"/>
  <outline>
    <contour>
      <point x="384" y="703" type="qcurve" smooth="yes"/>
      <point x="292" y="703"/>
      <point x="176" y="804"/>
      <point x="176" y="888" type="qcurve" smooth="yes"/>
      <point x="176" y="983"/>
      <point x="317" y="1091"/>
      <point x="556" y="1123"/>
      <point x="704" y="1106" type="qcurve"/>
      <point x="685" y="1010" type="line"/>
      <point x="593" y="1022"/>
      <point x="424" y="1013"/>
      <point x="318" y="958"/>
      <point x="318" y="903" type="qcurve" smooth="yes"/>
      <point x="318" y="864"/>
      <point x="384" y="818"/>
      <point x="435" y="818" type="qcurve" smooth="yes"/>
      <point x="514" y="818"/>
      <point x="630" y="902"/>
      <point x="642" y="963" type="qcurve" smooth="yes"/>
      <point x="675" y="1118" type="line" smooth="yes"/>
      <point x="692" y="1200"/>
      <point x="602" y="1272"/>
      <point x="519" y="1272" type="qcurve" smooth="yes"/>
      <point x="470" y="1272"/>
      <point x="365" y="1241"/>
      <point x="323" y="1213" type="qcurve"/>
      <point x="292" y="1314" type="line"/>
      <point x="323" y="1343"/>
      <point x="470" y="1393"/>
      <point x="549" y="1393" type="qcurve" smooth="yes"/>
      <point x="706" y="1393"/>
      <point x="847" y="1242"/>
      <point x="817" y="1105" type="qcurve" smooth="yes"/>
      <point x="735" y="722" type="line"/>
      <point x="601" y="722" type="line"/>
      <point x="616" y="798" type="line"/>
      <point x="580" y="750"/>
      <point x="456" y="703"/>
    </contour>
  </outline>
</glyph>
<glyph name="guillemetleft" format="2">
  <advance width="1036"/>
  <unicode hex="00AB"/>
  <outline>
    <contour>
      <point x="835" y="160" type="line"/>
      <point x="675" y="491" type="line"/>
      <point x="1027" y="818" type="line"/>
      <point x="926" y="920" type="line"/>
      <point x="481" y="507" type="line"/>
      <point x="683" y="95" type="line"/>
    </contour>
    <contour>
      <point x="413" y="160" type="line"/>
      <point x="253" y="491" type="line"/>
      <point x="605" y="818" type="line"/>
      <point x="504" y="920" type="line"/>
      <point x="59" y="507" type="line"/>
      <point x="261" y="95" type="line"/>
    </contour>
  </outline>
</glyph>
<glyph name="logicalnot" format="2">
  <advance width="1296"/>
  <unicode hex="00AC"/>
  <outline>
    <contour>
      <point x="1122" y="408" type="line"/>
      <point x="1294" y="924" type="line"/>
      <point x="291" y="924" type="line"/>
      <point x="242" y="776" type="line"/>
      <point x="1090" y="776" type="line"/>
      <point x="967" y="408" type="line"/>
    </contour>
  </outline>
</glyph>
<glyph name="registered" format="2">
  <advance width="1267"/>
  <unicode hex="00AE"/>
  <anchor x="792" y="806" name="bottom"/>
  <anchor x="770" y="986" name="center"/>
  <anchor x="774" y="1166" name="top"/>
  <outline>
    <contour>
      <point x="773" y="476" type="curve" smooth="yes"/>
      <point x="1067" y="476"/>
      <point x="1294" y="696"/>
      <point x="1294" y="983" type="curve" smooth="yes"/>
      <point x="1294" y="1269"/>
      <point x="1065" y="1498"/>
      <point x="767" y="1498" type="curve" smooth="yes"/>
      <point x="470" y="1498"/>
      <point x="246" y="1278"/>
      <point x="246" y="988" type="curve" smooth="yes"/>
      <point x="246" y="699"/>
      <point x="473" y="476"/>
    </contour>
    <contour>
      <point x="773" y="551" type="curve" smooth="yes"/>
      <point x="538" y="551"/>
      <point x="330" y="725"/>
      <point x="330" y="988" type="curve" smooth="yes"/>
      <point x="330" y="1249"/>
      <point x="535" y="1422"/>
      <point x="767" y="1422" type="curve" smooth="yes"/>
      <point x="1001" y="1422"/>
      <point x="1210" y="1248"/>
      <point x="1210" y="983" type="curve" smooth="yes"/>
      <point x="1210" y="723"/>
      <point x="1005" y="551"/>
    </contour>
    <contour>
      <point x="678" y="712" type="line"/>
      <point x="676" y="930" type="line"/>
      <point x="754" y="930" type="line"/>
      <point x="914" y="712" type="line"/>
      <point x="1029" y="712" type="line"/>
      <point x="853" y="946" type="line"/>
      <point x="938" y="962"/>
      <point x="996" y="1016"/>
      <point x="996" y="1096" type="curve" smooth="yes"/>
      <point x="996" y="1195"/>
      <point x="920" y="1260"/>
      <point x="800" y="1260" type="curve" smooth="yes"/>
      <point x="581" y="1260" type="line"/>
      <point x="584" y="712" type="line"/>
    </contour>
    <contour>
      <point x="676" y="1183" type="line"/>
      <point x="793" y="1183" type="line" smooth="yes"/>
      <point x="864" y="1183"/>
      <point x="903" y="1148"/>
      <point x="903" y="1093" type="curve" smooth="yes"/>
      <point x="903" y="1038"/>
      <point x="859" y="1007"/>
      <point x="786" y="1007" type="curve" smooth="yes"/>
      <point x="676" y="1007" type="line"/>
    </contour>
  </outline>
</glyph>
<glyph name="degree" format="2">
  <advance width="926"/>
  <unicode hex="00B0"/>
  <outline>
    <contour>
      <point x="544" y="679" type="qcurve" smooth="yes"/>
      <point x="444" y="679"/>
      <point x="288" y="769"/>
      <point x="199" y="921"/>
      <point x="199" y="1013" type="qcurve" smooth="yes"/>
      <point x="199" y="1125"/>
      <point x="319" y="1310"/>
      <point x="512" y="1420"/>
      <point x="622" y="1420" type="qcurve" smooth="yes"/>
      <point x="723" y="1420"/>
      <point x="878" y="1331"/>
      <point x="965" y="1179"/>
      <point x="965" y="1086" type="qcurve" smooth="yes"/>
      <point x="965" y="974"/>
      <point x="847" y="790"/>
      <point x="654" y="679"/>
    </contour>
    <contour>
      <point x="562" y="820" type="qcurve" smooth="yes"/>
      <point x="637" y="820"/>
      <point x="752" y="891"/>
      <point x="817" y="1009"/>
      <point x="817" y="1082" type="qcurve" smooth="yes"/>
      <point x="817" y="1171"/>
      <point x="703" y="1279"/>
      <point x="604" y="1279" type="qcurve" smooth="yes"/>
      <point x="532" y="1279"/>
      <point x="416" y="1212"/>
      <point x="348" y="1096"/>
      <point x="348" y="1022" type="qcurve" smooth="yes"/>
      <point x="348" y="931"/>
      <point x="464" y="820"/>
    </contour>
  </outline>
</glyph>
<glyph name="twosuperior" format="2">
  <advance width="837"/>
  <unicode hex="00B2"/>
  <outline>
    <contour>
      <point x="154" y="722" type="line"/>
      <point x="177" y="831" type="line"/>
      <point x="429" y="1017" type="line" smooth="yes"/>
      <point x="517" y="1081"/>
      <point x="664" y="1201"/>
      <point x="752" y="1320"/>
      <point x="752" y="1386" type="qcurve" smooth="yes"/>
      <point x="752" y="1449"/>
      <point x="651" y="1519"/>
      <point x="562" y="1519" type="qcurve" smooth="yes"/>
      <point x="510" y="1519"/>
      <point x="401" y="1488"/>
      <point x="356" y="1453" type="qcurve"/>
      <point x="322" y="1570" type="line"/>
      <point x="380" y="1611"/>
      <point x="520" y="1652"/>
      <point x="592" y="1652" type="qcurve" smooth="yes"/>
      <point x="735" y="1652"/>
      <point x="901" y="1519"/>
      <point x="901" y="1408" type="qcurve" smooth="yes"/>
      <point x="901" y="1326"/>
      <point x="814" y="1185"/>
      <point x="661" y="1050"/>
      <point x="562" y="978" type="qcurve" smooth="yes"/>
      <point x="389" y="852" type="line"/>
      <point x="817" y="852" type="line"/>
      <point x="791" y="722" type="line"/>
    </contour>
  </outline>
</glyph>
<glyph name="threesuperior" format="2">
  <advance width="818"/>
  <unicode hex="00B3"/>
  <outline>
    <contour>
      <point x="502" y="702" type="curve" smooth="yes"/>
      <point x="705" y="702"/>
      <point x="883" y="837"/>
      <point x="883" y="1034" type="curve" smooth="yes"/>
      <point x="883" y="1160"/>
      <point x="778" y="1231"/>
      <point x="648" y="1252" type="curve"/>
      <point x="1012" y="1517" type="line"/>
      <point x="1048" y="1632" type="line"/>
      <point x="458" y="1632" type="line"/>
      <point x="417" y="1505" type="line"/>
      <point x="818" y="1505" type="line"/>
      <point x="449" y="1242" type="line"/>
      <point x="457" y="1155" type="line"/>
      <point x="476" y="1159"/>
      <point x="502" y="1160"/>
      <point x="524" y="1160" type="curve" smooth="yes"/>
      <point x="655" y="1160"/>
      <point x="735" y="1108"/>
      <point x="735" y="1024" type="curve" smooth="yes"/>
      <point x="735" y="909"/>
      <point x="639" y="834"/>
      <point x="512" y="834" type="curve" smooth="yes"/>
      <point x="413" y="834"/>
      <point x="319" y="876"/>
      <point x="273" y="932" type="curve"/>
      <point x="189" y="819" type="line"/>
      <point x="242" y="753"/>
      <point x="379" y="702"/>
    </contour>
  </outline>
</glyph>
<glyph name="micro" format="2">
  <advance width="1225"/>
  <unicode hex="00B5"/>
  <outline>
    <contour>
      <point x="49" y="-420" type="line"/>
      <point x="195" y="105" type="line"/>
      <point x="242" y="15"/>
      <point x="337" y="-30"/>
      <point x="469" y="-30" type="curve" smooth="yes"/>
      <point x="570" y="-30"/>
      <point x="666" y="8"/>
      <point x="756" y="84" type="curve"/>
      <point x="724" y="0" type="line"/>
      <point x="905" y="0" type="line"/>
      <point x="1231" y="984" type="line"/>
      <point x="1033" y="984" type="line"/>
      <point x="832" y="398" type="line"/>
      <point x="779" y="248"/>
      <point x="662" y="154"/>
      <point x="526" y="154" type="curve" smooth="yes"/>
      <point x="363" y="154"/>
      <point x="287" y="293"/>
      <point x="334" y="431" type="curve"/>
      <point x="519" y="984" type="line"/>
      <point x="321" y="984" type="line"/>
      <point x="-145" y="-420" type="line"/>
    </contour>
  </outline>
</glyph>
<glyph name="paragraph" format="2">
  <advance width="1282"/>
  <unicode hex="00B6"/>
  <outline>
    <contour>
      <point x="323" y="-420" type="line"/>
      <point x="554" y="661" type="line"/>
      <point x="596" y="621" type="line"/>
      <point x="470" y="618"/>
      <point x="285" y="707"/>
      <point x="185" y="864"/>
      <point x="185" y="967" type="qcurve" smooth="yes"/>
      <point x="185" y="1100"/>
      <point x="330" y="1294"/>
      <point x="575" y="1400"/>
      <point x="723" y="1400" type="qcurve" smooth="yes"/>
      <point x="1416" y="1400" type="line"/>
      <point x="1387" y="1264" type="line"/>
      <point x="1170" y="1264" type="line"/>
      <point x="812" y="-420" type="line"/>
      <point x="659" y="-420" type="line"/>
      <point x="1018" y="1264" type="line"/>
      <point x="835" y="1264" type="line"/>
      <point x="476" y="-420" type="line"/>
    </contour>
  </outline>
</glyph>
<glyph name="onesuperior" format="2">
  <advance width="664"/>
  <unicode hex="00B9"/>
  <outline>
    <contour>
      <point x="580" y="722" type="line"/>
      <point x="882" y="1632" type="line"/>
      <point x="811" y="1632" type="line"/>
      <point x="383" y="1499" type="line"/>
      <point x="418" y="1386" type="line"/>
      <point x="688" y="1465" type="line"/>
      <point x="437" y="722" type="line"/>
    </contour>
  </outline>
</glyph>
<glyph name="ordmasculine" format="2">
  <advance width="867"/>
  <unicode hex="00BA"/>
  <anchor x="540" y="722" name="bottom"/>
  <anchor x="962" y="1367" name="horn"/>
  <anchor x="664" y="722" name="ogonek"/>
  <anchor x="698" y="1367" name="top"/>
  <outline>
    <contour>
      <point x="568" y="702" type="curve" smooth="yes"/>
      <point x="783" y="702"/>
      <point x="986" y="882"/>
      <point x="986" y="1101" type="curve" smooth="yes"/>
      <point x="986" y="1258"/>
      <point x="865" y="1387"/>
      <point x="671" y="1387" type="curve" smooth="yes"/>
      <point x="455" y="1387"/>
      <point x="252" y="1206"/>
      <point x="252" y="992" type="curve" smooth="yes"/>
      <point x="252" y="829"/>
      <point x="372" y="702"/>
    </contour>
    <contour>
      <point x="587" y="834" type="curve" smooth="yes"/>
      <point x="474" y="834"/>
      <point x="403" y="898"/>
      <point x="403" y="999" type="curve" smooth="yes"/>
      <point x="403" y="1126"/>
      <point x="498" y="1255"/>
      <point x="652" y="1255" type="curve" smooth="yes"/>
      <point x="763" y="1255"/>
      <point x="835" y="1193"/>
      <point x="835" y="1091" type="curve" smooth="yes"/>
      <point x="835" y="962"/>
      <point x="739" y="834"/>
    </contour>
  </outline>
</glyph>
<glyph name="guillemetright" format="2">
  <advance width="1035"/>
  <unicode hex="00BB"/>
  <outline>
    <contour>
      <point x="987" y="508" type="line"/>
      <point x="785" y="920" type="line"/>
      <point x="633" y="854" type="line"/>
      <point x="792" y="523" type="line"/>
      <point x="440" y="197" type="line"/>
      <point x="542" y="95" type="line"/>
    </contour>
    <contour>
      <point x="565" y="508" type="line"/>
      <point x="363" y="920" type="line"/>
      <point x="211" y="854" type="line"/>
      <point x="370" y="523" type="line"/>
      <point x="18" y="197" type="line"/>
      <point x="120" y="95" type="line"/>
    </contour>
  </outline>
</glyph>
<glyph name="onequarter" format="2">
  <advance width="1844"/>
  <unicode hex="00BC"/>
  <outline>
    <contour>
      <point x="347" y="490" type="line"/>
      <point x="507" y="1233" type="line"/>
      <point x="248" y="1153" type="line"/>
      <point x="211" y="1269" type="line"/>
      <point x="676" y="1420" type="line"/>
      <point x="688" y="1420" type="line"/>
      <point x="491" y="490" type="line"/>
    </contour>
    <contour>
      <point x="1404" y="0" type="line"/>
      <point x="1443" y="185" type="line"/>
      <point x="978" y="185" type="line"/>
      <point x="1001" y="299" type="line"/>
      <point x="1460" y="910" type="line"/>
      <point x="1623" y="910" type="line"/>
      <point x="1171" y="312" type="line"/>
      <point x="1469" y="312" type="line"/>
      <point x="1512" y="512" type="line"/>
      <point x="1644" y="512" type="line"/>
      <point x="1602" y="312" type="line"/>
      <point x="1746" y="312" type="line"/>
      <point x="1719" y="185" type="line"/>
      <point x="1576" y="185" type="line"/>
      <point x="1537" y="0" type="line"/>
    </contour>
    <contour>
      <point x="406" y="-33" type="line"/>
      <point x="306" y="44" type="line"/>
      <point x="1384" y="1433" type="line"/>
      <point x="1481" y="1358" type="line"/>
    </contour>
  </outline>
</glyph>
<glyph name="onehalf" format="2">
  <advance width="1881"/>
  <unicode hex="00BD"/>
  <outline>
    <contour>
      <point x="347" y="490" type="line"/>
      <point x="508" y="1235" type="line"/>
      <point x="248" y="1154" type="line"/>
      <point x="211" y="1269" type="line"/>
      <point x="674" y="1420" type="line"/>
      <point x="687" y="1420" type="line"/>
      <point x="489" y="490" type="line"/>
    </contour>
    <contour>
      <point x="1045" y="0" type="line"/>
      <point x="1068" y="108" type="line"/>
      <point x="1320" y="294" type="line" smooth="yes"/>
      <point x="1409" y="359"/>
      <point x="1556" y="478"/>
      <point x="1644" y="598"/>
      <point x="1644" y="664" type="qcurve" smooth="yes"/>
      <point x="1644" y="729"/>
      <point x="1543" y="799"/>
      <point x="1453" y="799" type="qcurve" smooth="yes"/>
      <point x="1401" y="799"/>
      <point x="1292" y="768"/>
      <point x="1248" y="733" type="qcurve"/>
      <point x="1213" y="848" type="line"/>
      <point x="1272" y="889"/>
      <point x="1411" y="930"/>
      <point x="1483" y="930" type="qcurve" smooth="yes"/>
      <point x="1625" y="930"/>
      <point x="1792" y="798"/>
      <point x="1792" y="687" type="qcurve" smooth="yes"/>
      <point x="1792" y="604"/>
      <point x="1704" y="463"/>
      <point x="1551" y="328"/>
      <point x="1452" y="255" type="qcurve" smooth="yes"/>
      <point x="1277" y="128" type="line"/>
      <point x="1707" y="128" type="line"/>
      <point x="1681" y="0" type="line"/>
    </contour>
    <contour>
      <point x="404" y="-33" type="line"/>
      <point x="306" y="43" type="line"/>
      <point x="1384" y="1433" type="line"/>
      <point x="1479" y="1359" type="line"/>
    </contour>
  </outline>
</glyph>
<glyph name="threequarters" format="2">
  <advance width="2010"/>
  <unicode hex="00BE"/>
  <outline>
    <contour>
      <point x="406" y="470" type="qcurve" smooth="yes"/>
      <point x="314" y="470"/>
      <point x="140" y="533"/>
      <point x="99" y="579" type="qcurve"/>
      <point x="171" y="697" type="line"/>
      <point x="209" y="656"/>
      <point x="339" y="604"/>
      <point x="409" y="604" type="qcurve" smooth="yes"/>
      <point x="503" y="604"/>
      <point x="625" y="702"/>
      <point x="625" y="783" type="qcurve" smooth="yes"/>
      <point x="625" y="851"/>
      <point x="512" y="927"/>
      <point x="415" y="927" type="qcurve" smooth="yes"/>
      <point x="396" y="927"/>
      <point x="352" y="923"/>
      <point x="331" y="920" type="qcurve"/>
      <point x="310" y="1012" type="line"/>
      <point x="650" y="1271" type="line"/>
      <point x="247" y="1271" type="line"/>
      <point x="274" y="1400" type="line"/>
      <point x="865" y="1400" type="line"/>
      <point x="842" y="1283" type="line"/>
      <point x="510" y="1021" type="line"/>
      <point x="581" y="1015"/>
      <point x="701" y="958"/>
      <point x="774" y="858"/>
      <point x="774" y="786" type="qcurve" smooth="yes"/>
      <point x="774" y="692"/>
      <point x="674" y="550"/>
      <point x="507" y="470"/>
    </contour>
    <contour>
      <point x="1570" y="0" type="line"/>
      <point x="1609" y="185" type="line"/>
      <point x="1144" y="185" type="line"/>
      <point x="1166" y="299" type="line"/>
      <point x="1626" y="910" type="line"/>
      <point x="1789" y="910" type="line"/>
      <point x="1337" y="312" type="line"/>
      <point x="1635" y="312" type="line"/>
      <point x="1678" y="512" type="line"/>
      <point x="1810" y="512" type="line"/>
      <point x="1768" y="312" type="line"/>
      <point x="1912" y="312" type="line"/>
      <point x="1885" y="185" type="line"/>
      <point x="1742" y="185" type="line"/>
      <point x="1703" y="0" type="line"/>
    </contour>
    <contour>
      <point x="572" y="-33" type="line"/>
      <point x="472" y="44" type="line"/>
      <point x="1549" y="1433" type="line"/>
      <point x="1646" y="1358" type="line"/>
    </contour>
  </outline>
</glyph>
<glyph name="questiondown" format="2">
  <advance width="948"/>
  <unicode hex="00BF"/>
  <outline>
    <contour>
      <point x="364" y="-460" type="qcurve"/>
      <point x="247" y="-460"/>
      <point x="70" y="-389"/>
      <point x="-28" y="-255"/>
      <point x="-28" y="-160" type="qcurve"/>
      <point x="-28" y="-75"/>
      <point x="48" y="54"/>
      <point x="186" y="162"/>
      <point x="278" y="216" type="qcurve"/>
      <point x="355" y="261"/>
      <point x="450" y="351"/>
      <point x="497" y="483"/>
      <point x="502" y="592" type="qcurve"/>
      <point x="622" y="592" type="line"/>
      <point x="618" y="466"/>
      <point x="568" y="306"/>
      <point x="451" y="191"/>
      <point x="348" y="132" type="qcurve"/>
      <point x="228" y="63"/>
      <point x="94" y="-49"/>
      <point x="94" y="-142" type="qcurve"/>
      <point x="94" y="-245"/>
      <point x="245" y="-348"/>
      <point x="380" y="-348" type="qcurve"/>
      <point x="464" y="-348"/>
      <point x="609" y="-306"/>
      <point x="660" y="-270" type="qcurve"/>
      <point x="690" y="-374" type="line"/>
      <point x="643" y="-403"/>
      <point x="540" y="-441"/>
      <point x="426" y="-460"/>
    </contour>
    <contour>
      <point x="580" y="792" type="qcurve"/>
      <point x="537" y="792"/>
      <point x="482" y="844"/>
      <point x="482" y="884" type="qcurve"/>
      <point x="482" y="918"/>
      <point x="517" y="970"/>
      <point x="573" y="1000"/>
      <point x="606" y="1000" type="qcurve"/>
      <point x="650" y="1000"/>
      <point x="706" y="947"/>
      <point x="706" y="906" type="qcurve"/>
      <point x="706" y="872"/>
      <point x="671" y="821"/>
      <point x="613" y="792"/>
    </contour>
  </outline>
</glyph>
<glyph name="AE" format="2">
  <advance width="1776"/>
  <unicode hex="00C6"/>
  <anchor x="1391" y="1400" name="top"/>
  <outline>
    <contour>
      <point x="63" y="0" type="line"/>
      <point x="311" y="341" type="line"/>
      <point x="737" y="341" type="line"/>
      <point x="646" y="0" type="line"/>
      <point x="1509" y="0" type="line"/>
      <point x="1556" y="181" type="line"/>
      <point x="896" y="181" type="line"/>
      <point x="1022" y="647" type="line"/>
      <point x="1602" y="647" type="line"/>
      <point x="1647" y="818" type="line"/>
      <point x="1067" y="818" type="line"/>
      <point x="1176" y="1220" type="line"/>
      <point x="1828" y="1220" type="line"/>
      <point x="1876" y="1400" type="line"/>
      <point x="891" y="1400" type="line"/>
      <point x="-170" y="0" type="line"/>
    </contour>
    <contour>
      <point x="978" y="1228" type="line"/>
      <point x="782" y="509" type="line"/>
      <point x="429" y="509" type="line"/>
    </contour>
  </outline>
</glyph>
<glyph name="Eth" format="2">
  <advance width="1479"/>
  <unicode hex="00D0"/>
  <anchor x="558" y="733" name="bar"/>
  <anchor x="1032" y="1400" name="top"/>
  <outline>
    <component base="D" xOffset="40"/>
    <contour>
      <point x="937" y="656" type="line"/>
      <point x="988" y="810" type="line"/>
      <point x="145" y="810" type="line"/>
      <point x="95" y="656" type="line"/>
    </contour>
  </outline>
</glyph>
<glyph name="multiply" format="2">
  <advance width="1298"/>
  <unicode hex="00D7"/>
  <outline>
    <contour>
      <point x="258" y="229" type="line"/>
      <point x="172" y="337" type="line"/>
      <point x="584" y="670" type="line"/>
      <point x="320" y="999" type="line"/>
      <point x="438" y="1097" type="line"/>
      <point x="702" y="767" type="line"/>
      <point x="1115" y="1101" type="line"/>
      <point x="1198" y="992" type="line"/>
      <point x="789" y="660" type="line"/>
      <point x="1051" y="330" type="line"/>
      <point x="934" y="233" type="line"/>
      <point x="669" y="563" type="line"/>
    </contour>
  </outline>
</glyph>
<glyph name="Oslash" format="2">
  <advance width="1689"/>
  <unicode hex="00D8"/>
  <anchor x="1042" y="1400" name="top"/>
  <outline>
    <contour>
      <point x="375" y="119" type="line"/>
      <point x="486" y="26"/>
      <point x="633" y="-30"/>
      <point x="807" y="-30" type="curve" smooth="yes"/>
      <point x="1261" y="-30"/>
      <point x="1648" y="355"/>
      <point x="1648" y="803" type="curve" smooth="yes"/>
      <point x="1648" y="943"/>
      <point x="1608" y="1071"/>
      <point x="1534" y="1174" type="curve"/>
      <point x="1697" y="1319" type="line"/>
      <point x="1588" y="1438" type="line"/>
      <point x="1419" y="1283" type="line"/>
      <point x="1310" y="1374"/>
      <point x="1168" y="1430"/>
      <point x="992" y="1430" type="curve" smooth="yes"/>
      <point x="539" y="1430"/>
      <point x="154" y="1049"/>
      <point x="154" y="592" type="curve" smooth="yes"/>
      <point x="154" y="456"/>
      <point x="192" y="332"/>
      <point x="261" y="232" type="curve"/>
      <point x="98" y="86" type="line"/>
      <point x="207" y="-33" type="line"/>
    </contour>
    <contour>
      <point x="431" y="383" type="line"/>
      <point x="387" y="444"/>
      <point x="366" y="521"/>
      <point x="366" y="610" type="curve" smooth="yes"/>
      <point x="366" y="950"/>
      <point x="623" y="1242"/>
      <point x="970" y="1242" type="curve" smooth="yes"/>
      <point x="1085" y="1242"/>
      <point x="1187" y="1209"/>
      <point x="1265" y="1141" type="curve"/>
    </contour>
    <contour>
      <point x="831" y="158" type="curve" smooth="yes"/>
      <point x="710" y="158"/>
      <point x="604" y="195"/>
      <point x="526" y="262" type="curve"/>
      <point x="1371" y="1028" type="line"/>
      <point x="1414" y="965"/>
      <point x="1437" y="886"/>
      <point x="1437" y="794" type="curve" smooth="yes"/>
      <point x="1437" y="453"/>
      <point x="1181" y="158"/>
    </contour>
  </outline>
</glyph>
<glyph name="Thorn" format="2">
  <advance width="1287"/>
  <unicode hex="00DE"/>
  <outline>
    <contour>
      <point x="84" y="0" type="line"/>
      <point x="380" y="1400" type="line"/>
      <point x="586" y="1400" type="line"/>
      <point x="532" y="1145" type="line"/>
      <point x="779" y="1145" type="line" smooth="yes"/>
      <point x="929" y="1145"/>
      <point x="1145" y="1053"/>
      <point x="1262" y="883"/>
      <point x="1262" y="766" type="qcurve" smooth="yes"/>
      <point x="1262" y="619"/>
      <point x="1124" y="408"/>
      <point x="881" y="295"/>
      <point x="723" y="295" type="qcurve" smooth="yes"/>
      <point x="352" y="295" type="line"/>
      <point x="290" y="0" type="line"/>
    </contour>
    <contour>
      <point x="389" y="474" type="line"/>
      <point x="747" y="474" type="line" smooth="yes"/>
      <point x="885" y="474"/>
      <point x="1053" y="620"/>
      <point x="1053" y="744" type="qcurve" smooth="yes"/>
      <point x="1053" y="850"/>
      <point x="903" y="963"/>
      <point x="762" y="963" type="qcurve" smooth="yes"/>
      <point x="494" y="963" type="line"/>
    </contour>
  </outline>
</glyph>
<glyph name="germandbls" format="2">
  <advance width="1290"/>
  <unicode hex="00DF"/>
  <outline>
    <contour>
      <point x="696" y="-29" type="curve" smooth="yes"/>
      <point x="950" y="-29"/>
      <point x="1150" y="112"/>
      <point x="1150" y="333" type="curve" smooth="yes"/>
      <point x="1150" y="444"/>
      <point x="1082" y="517"/>
      <point x="1013" y="580" type="curve" smooth="yes"/>
      <point x="965" y="623"/>
      <point x="912" y="663"/>
      <point x="912" y="723" type="curve" smooth="yes"/>
      <point x="912" y="786"/>
      <point x="975" y="830"/>
      <point x="1039" y="885" type="curve" smooth="yes"/>
      <point x="1129" y="962"/>
      <point x="1241" y="1034"/>
      <point x="1241" y="1190" type="curve" smooth="yes"/>
      <point x="1241" y="1352"/>
      <point x="1087" y="1470"/>
      <point x="831" y="1470" type="curve" smooth="yes"/>
      <point x="579" y="1470"/>
      <point x="429" y="1314"/>
      <point x="344" y="1048" type="curve"/>
      <point x="-6" y="0" type="line"/>
      <point x="192" y="0" type="line"/>
      <point x="532" y="1019" type="line"/>
      <point x="589" y="1200"/>
      <point x="659" y="1297"/>
      <point x="807" y="1297" type="curve" smooth="yes"/>
      <point x="943" y="1297"/>
      <point x="1033" y="1243"/>
      <point x="1033" y="1150" type="curve" smooth="yes"/>
      <point x="1033" y="1057"/>
      <point x="957" y="1010"/>
      <point x="872" y="939" type="curve" smooth="yes"/>
      <point x="799" y="878"/>
      <point x="699" y="806"/>
      <point x="699" y="695" type="curve" smooth="yes"/>
      <point x="699" y="601"/>
      <point x="774" y="533"/>
      <point x="834" y="479" type="curve" smooth="yes"/>
      <point x="891" y="427"/>
      <point x="938" y="384"/>
      <point x="938" y="309" type="curve" smooth="yes"/>
      <point x="938" y="193"/>
      <point x="840" y="132"/>
      <point x="708" y="132" type="curve" smooth="yes"/>
      <point x="642" y="132"/>
      <point x="567" y="149"/>
      <point x="504" y="191" type="curve"/>
      <point x="404" y="44" type="line"/>
      <point x="493" y="-16"/>
      <point x="618" y="-29"/>
    </contour>
  </outline>
</glyph>
<glyph name="ae" format="2">
  <advance width="1793"/>
  <unicode hex="00E6"/>
  <anchor x="956" y="985" name="top"/>
  <outline>
    <contour>
      <point x="371" y="-30" type="qcurve" smooth="yes"/>
      <point x="220" y="-30"/>
      <point x="39" y="120"/>
      <point x="39" y="246" type="qcurve" smooth="yes"/>
      <point x="39" y="381"/>
      <point x="226" y="552"/>
      <point x="575" y="613"/>
      <point x="818" y="583" type="qcurve"/>
      <point x="789" y="448" type="line"/>
      <point x="617" y="470"/>
      <point x="368" y="444"/>
      <point x="233" y="350"/>
      <point x="233" y="270" type="qcurve" smooth="yes"/>
      <point x="233" y="206"/>
      <point x="333" y="131"/>
      <point x="416" y="131" type="qcurve" smooth="yes"/>
      <point x="496" y="131"/>
      <point x="630" y="193"/>
      <point x="722" y="305"/>
      <point x="739" y="380" type="qcurve" smooth="yes"/>
      <point x="788" y="609" type="line"/>
      <point x="812" y="727"/>
      <point x="691" y="855"/>
      <point x="555" y="855" type="qcurve" smooth="yes"/>
      <point x="482" y="855"/>
      <point x="322" y="804"/>
      <point x="260" y="761" type="qcurve"/>
      <point x="230" y="915" type="line"/>
      <point x="305" y="968"/>
      <point x="494" y="1022"/>
      <point x="594" y="1022" type="qcurve" smooth="yes"/>
      <point x="750" y="1022"/>
      <point x="943" y="902"/>
      <point x="971" y="790" type="qcurve"/>
      <point x="894" y="794" type="line"/>
      <point x="975" y="904"/>
      <point x="1189" y="1015"/>
      <point x="1318" y="1015" type="qcurve" smooth="yes"/>
      <point x="1473" y="1015"/>
      <point x="1677" y="868"/>
      <point x="1751" y="612"/>
      <point x="1711" y="449" type="qcurve"/>
      <point x="952" y="449" type="line"/>
      <point x="935" y="309"/>
      <point x="1105" y="138"/>
      <point x="1260" y="138" type="qcurve" smooth="yes"/>
      <point x="1328" y="138"/>
      <point x="1463" y="181"/>
      <point x="1524" y="222" type="qcurve"/>
      <point x="1576" y="68" type="line"/>
      <point x="1530" y="38"/>
      <point x="1418" y="-6"/>
      <point x="1297" y="-30"/>
      <point x="1237" y="-30" type="qcurve" smooth="yes"/>
      <point x="1072" y="-30"/>
      <point x="839" y="127"/>
      <point x="804" y="267" type="qcurve"/>
      <point x="886" y="345" type="line"/>
      <point x="851" y="228"/>
      <point x="693" y="60"/>
      <point x="484" y="-30"/>
    </contour>
    <contour>
      <point x="981" y="602" type="qcurve"/>
      <point x="1537" y="602" type="line"/>
      <point x="1543" y="721"/>
      <point x="1419" y="853"/>
      <point x="1289" y="853" type="qcurve" smooth="yes"/>
      <point x="1167" y="853"/>
      <point x="1004" y="716"/>
    </contour>
  </outline>
</glyph>
<glyph name="eth" format="2">
  <advance width="1194"/>
  <unicode hex="00F0"/>
  <outline>
    <contour>
      <point x="500" y="-30" type="curve" smooth="yes"/>
      <point x="863" y="-30"/>
      <point x="1133" y="275"/>
      <point x="1133" y="676" type="curve" smooth="yes"/>
      <point x="1133" y="955"/>
      <point x="989" y="1223"/>
      <point x="724" y="1462" type="curve"/>
      <point x="546" y="1364" type="line"/>
      <point x="750" y="1199"/>
      <point x="875" y="1012"/>
      <point x="926" y="823" type="curve"/>
      <point x="961" y="823" type="line"/>
      <point x="883" y="913"/>
      <point x="764" y="958"/>
      <point x="644" y="958" type="curve" smooth="yes"/>
      <point x="341" y="958"/>
      <point x="61" y="695"/>
      <point x="61" y="380" type="curve" smooth="yes"/>
      <point x="61" y="152"/>
      <point x="226" y="-30"/>
    </contour>
    <contour>
      <point x="532" y="145" type="curve" smooth="yes"/>
      <point x="366" y="145"/>
      <point x="262" y="241"/>
      <point x="262" y="389" type="curve" smooth="yes"/>
      <point x="262" y="599"/>
      <point x="410" y="801"/>
      <point x="632" y="801" type="curve" smooth="yes"/>
      <point x="802" y="801"/>
      <point x="906" y="701"/>
      <point x="906" y="548" type="curve" smooth="yes"/>
      <point x="906" y="341"/>
      <point x="762" y="145"/>
    </contour>
    <contour>
      <point x="771" y="1183" type="line"/>
      <point x="773" y="1188" type="line"/>
      <point x="1098" y="1317" type="line"/>
      <point x="1143" y="1458" type="line"/>
      <point x="800" y="1322" type="line"/>
      <point x="798" y="1317" type="line"/>
      <point x="461" y="1187" type="line"/>
      <point x="415" y="1047" type="line"/>
    </contour>
  </outline>
</glyph>
<glyph name="divide" format="2">
  <advance width="1296"/>
  <unicode hex="00F7"/>
  <outline>
    <contour>
      <point x="1188" y="592" type="line"/>
      <point x="1226" y="740" type="line"/>
      <point x="213" y="740" type="line"/>
      <point x="174" y="592" type="line"/>
    </contour>
    <contour>
      <point x="581" y="167" type="curve" smooth="yes"/>
      <point x="656" y="167"/>
      <point x="728" y="230"/>
      <point x="728" y="304" type="curve" smooth="yes"/>
      <point x="728" y="364"/>
      <point x="681" y="410"/>
      <point x="617" y="410" type="curve" smooth="yes"/>
      <point x="542" y="410"/>
      <point x="472" y="347"/>
      <point x="472" y="272" type="curve" smooth="yes"/>
      <point x="472" y="213"/>
      <point x="518" y="167"/>
    </contour>
    <contour>
      <point x="784" y="918" type="curve" smooth="yes"/>
      <point x="861" y="918"/>
      <point x="931" y="982"/>
      <point x="931" y="1055" type="curve" smooth="yes"/>
      <point x="931" y="1115"/>
      <point x="886" y="1161"/>
      <point x="820" y="1161" type="curve" smooth="yes"/>
      <point x="746" y="1161"/>
      <point x="674" y="1099"/>
      <point x="674" y="1024" type="curve" smooth="yes"/>
      <point x="674" y="965"/>
      <point x="720" y="918"/>
    </contour>
  </outline>
</glyph>
<glyph name="oslash" format="2">
  <advance width="1222"/>
  <unicode hex="00F8"/>
  <anchor x="773" y="984" name="top"/>
  <outline>
    <contour>
      <point x="224" y="71" type="line"/>
      <point x="301" y="5"/>
      <point x="406" y="-30"/>
      <point x="529" y="-30" type="curve" smooth="yes"/>
      <point x="847" y="-30"/>
      <point x="1150" y="249"/>
      <point x="1150" y="575" type="curve" smooth="yes"/>
      <point x="1150" y="665"/>
      <point x="1130" y="749"/>
      <point x="1087" y="817" type="curve"/>
      <point x="1210" y="925" type="line"/>
      <point x="1123" y="1024" type="line"/>
      <point x="996" y="913" type="line"/>
      <point x="919" y="979"/>
      <point x="814" y="1014"/>
      <point x="692" y="1014" type="curve" smooth="yes"/>
      <point x="374" y="1014"/>
      <point x="70" y="737"/>
      <point x="70" y="408" type="curve" smooth="yes"/>
      <point x="70" y="319"/>
      <point x="91" y="236"/>
      <point x="133" y="168" type="curve"/>
      <point x="10" y="60" type="line"/>
      <point x="97" y="-39" type="line"/>
    </contour>
    <contour>
      <point x="288" y="297" type="line"/>
      <point x="270" y="327"/>
      <point x="263" y="367"/>
      <point x="263" y="407" type="curve" smooth="yes"/>
      <point x="263" y="632"/>
      <point x="421" y="845"/>
      <point x="668" y="845" type="curve" smooth="yes"/>
      <point x="744" y="845"/>
      <point x="806" y="824"/>
      <point x="853" y="785" type="curve"/>
    </contour>
    <contour>
      <point x="545" y="139" type="curve" smooth="yes"/>
      <point x="470" y="139"/>
      <point x="410" y="160"/>
      <point x="364" y="198" type="curve"/>
      <point x="933" y="689" type="line"/>
      <point x="951" y="660"/>
      <point x="959" y="622"/>
      <point x="959" y="582" type="curve" smooth="yes"/>
      <point x="959" y="350"/>
      <point x="794" y="139"/>
    </contour>
  </outline>
</glyph>
<glyph name="thorn" format="2">
  <advance width="1295"/>
  <unicode hex="00FE"/>
  <outline>
    <contour>
      <point x="53" y="-420" type="line"/>
      <point x="245" y="166" type="line"/>
      <point x="313" y="51"/>
      <point x="448" y="-30"/>
      <point x="636" y="-30" type="curve" smooth="yes"/>
      <point x="964" y="-30"/>
      <point x="1228" y="273"/>
      <point x="1228" y="603" type="curve" smooth="yes"/>
      <point x="1228" y="836"/>
      <point x="1072" y="1014"/>
      <point x="800" y="1014" type="curve" smooth="yes"/>
      <point x="667" y="1014"/>
      <point x="570" y="964"/>
      <point x="484" y="892" type="curve"/>
      <point x="671" y="1440" type="line"/>
      <point x="473" y="1440" type="line"/>
      <point x="-145" y="-420" type="line"/>
    </contour>
    <contour>
      <point x="634" y="148" type="curve" smooth="yes"/>
      <point x="458" y="148"/>
      <point x="345" y="251"/>
      <point x="345" y="411" type="curve" smooth="yes"/>
      <point x="345" y="622"/>
      <point x="498" y="836"/>
      <point x="738" y="836" type="curve" smooth="yes"/>
      <point x="913" y="836"/>
      <point x="1025" y="736"/>
      <point x="1025" y="579" type="curve" smooth="yes"/>
      <point x="1025" y="355"/>
      <point x="867" y="148"/>
    </contour>
  </outline>
</glyph>
<glyph name="aogonek" format="2">
  <advance width="1108"/>
  <unicode hex="0105"/>
  <anchor x="629" y="985" name="top"/>
  <anchor x="422" y="0" name="bottom"/>
  <outline>
    <contour>
      <point x="607" y="-450" type="qcurve" smooth="yes"/>
      <point x="517" y="-450"/>
      <point x="409" y="-351"/>
      <point x="409" y="-263" type="qcurve" smooth="yes"/>
      <point x="409" y="-181"/>
      <point x="520" y="-41"/>
      <point x="715" y="59"/>
      <point x="839" y="83" type="qcurve"/>
      <point x="857" y="0" type="line"/>
      <point x="769" y="-22"/>
      <point x="640" y="-85"/>
      <point x="569" y="-169"/>
      <point x="569" y="-223" type="qcurve" smooth="yes"/>
      <point x="569" y="-268"/>
      <point x="614" y="-307"/>
      <point x="653" y="-307" type="qcurve" smooth="yes"/>
      <point x="681" y="-307"/>
      <point x="734" y="-291"/>
      <point x="756" y="-275" type="qcurve"/>
      <point x="784" y="-403" type="line"/>
      <point x="743" y="-427"/>
      <point x="652" y="-450"/>
    </contour>
    <contour>
      <point x="360" y="-29" type="qcurve" smooth="yes"/>
      <point x="262" y="-29"/>
      <point x="119" y="39"/>
      <point x="41" y="167"/>
      <point x="41" y="254" type="qcurve" smooth="yes"/>
      <point x="41" y="365"/>
      <point x="163" y="511"/>
      <point x="381" y="588"/>
      <point x="668" y="603"/>
      <point x="831" y="582" type="qcurve"/>
      <point x="804" y="447" type="line"/>
      <point x="701" y="461"/>
      <point x="498" y="463"/>
      <point x="333" y="428"/>
      <point x="235" y="345"/>
      <point x="235" y="275" type="qcurve" smooth="yes"/>
      <point x="235" y="207"/>
      <point x="336" y="132"/>
      <point x="417" y="132" type="qcurve" smooth="yes"/>
      <point x="499" y="132"/>
      <point x="635" y="195"/>
      <point x="724" y="301"/>
      <point x="737" y="366" type="qcurve" smooth="yes"/>
      <point x="789" y="607" type="line" smooth="yes"/>
      <point x="808" y="696"/>
      <point x="757" y="807"/>
      <point x="638" y="858"/>
      <point x="557" y="858" type="qcurve" smooth="yes"/>
      <point x="487" y="858"/>
      <point x="327" y="810"/>
      <point x="262" y="764" type="qcurve"/>
      <point x="231" y="918" type="line"/>
      <point x="314" y="974"/>
      <point x="502" y="1025"/>
      <point x="602" y="1025" type="qcurve" smooth="yes"/>
      <point x="745" y="1025"/>
      <point x="937" y="924"/>
      <point x="1013" y="730"/>
      <point x="984" y="592" type="qcurve" smooth="yes"/>
      <point x="857" y="0" type="line"/>
      <point x="673" y="0" type="line"/>
      <point x="697" y="119" type="line"/>
      <point x="640" y="42"/>
      <point x="457" y="-29"/>
    </contour>
  </outline>
</glyph>
<glyph name="dcroat" format="2">
  <advance width="1294"/>
  <unicode hex="0111"/>
  <anchor x="1338" y="1440" name="Anchor_2"/>
  <anchor x="1139" y="1210" name="strokeshort"/>
  <outline>
    <contour>
      <point x="734" y="1142" type="line"/>
      <point x="763" y="1278" type="line"/>
      <point x="1437" y="1278" type="line"/>
      <point x="1408" y="1142" type="line"/>
    </contour>
    <contour>
      <point x="526" y="-30" type="qcurve" smooth="yes"/>
      <point x="389" y="-30"/>
      <point x="184" y="84"/>
      <point x="70" y="287"/>
      <point x="70" y="421" type="qcurve" smooth="yes"/>
      <point x="70" y="540"/>
      <point x="155" y="753"/>
      <point x="307" y="919"/>
      <point x="510" y="1014"/>
      <point x="628" y="1014" type="qcurve" smooth="yes"/>
      <point x="780" y="1014"/>
      <point x="992" y="889"/>
      <point x="1046" y="783" type="qcurve"/>
      <point x="996" y="762" type="line"/>
      <point x="1140" y="1440" type="line"/>
      <point x="1338" y="1440" type="line"/>
      <point x="1032" y="0" type="line"/>
      <point x="852" y="0" type="line"/>
      <point x="902" y="233" type="line"/>
      <point x="919" y="169" type="line"/>
      <point x="853" y="83"/>
      <point x="667" y="-30"/>
    </contour>
    <contour>
      <point x="572" y="148" type="qcurve" smooth="yes"/>
      <point x="682" y="148"/>
      <point x="850" y="253"/>
      <point x="944" y="432"/>
      <point x="944" y="543" type="qcurve" smooth="yes"/>
      <point x="944" y="633"/>
      <point x="868" y="765"/>
      <point x="732" y="836"/>
      <point x="642" y="836" type="qcurve" smooth="yes"/>
      <point x="532" y="836"/>
      <point x="366" y="729"/>
      <point x="273" y="549"/>
      <point x="273" y="439" type="qcurve" smooth="yes"/>
      <point x="273" y="350"/>
      <point x="347" y="219"/>
      <point x="482" y="148"/>
    </contour>
  </outline>
</glyph>
<glyph name="Hbar" format="2">
  <advance width="1524"/>
  <unicode hex="0126"/>
  <outline>
    <contour>
      <point x="1008" y="0" type="line"/>
      <point x="1304" y="1400" type="line"/>
      <point x="1510" y="1400" type="line"/>
      <point x="1214" y="0" type="line"/>
    </contour>
    <contour>
      <point x="103" y="0" type="line"/>
      <point x="399" y="1400" type="line"/>
      <point x="605" y="1400" type="line"/>
      <point x="309" y="0" type="line"/>
    </contour>
    <contour>
      <point x="408" y="596" type="line"/>
      <point x="447" y="785" type="line"/>
      <point x="1203" y="785" type="line"/>
      <point x="1164" y="596" type="line"/>
    </contour>
    <contour>
      <point x="129" y="1007" type="line"/>
      <point x="162" y="1164" type="line"/>
      <point x="1648" y="1164" type="line"/>
      <point x="1615" y="1007" type="line"/>
    </contour>
  </outline>
</glyph>
<glyph name="dotlessi" format="2">
  <advance width="514"/>
  <unicode hex="0131"/>
  <anchor x="362" y="984" name="top"/>
  <anchor x="153" y="0" name="bottom"/>
  <outline>
    <contour>
      <point x="54" y="0" type="line"/>
      <point x="262" y="984" type="line"/>
      <point x="461" y="984" type="line"/>
      <point x="252" y="0" type="line"/>
    </contour>
  </outline>
</glyph>
<glyph name="idotless" format="2">
  <advance width="513"/>
  <unicode hex="0131"/>
  <anchor x="94" y="0" name="bottom"/>
  <anchor x="193" y="0" name="ogonek"/>
  <anchor x="420" y="984" name="top"/>
  <outline>
    <contour>
      <point x="193" y="0" type="line"/>
      <point x="519" y="984" type="line"/>
      <point x="320" y="984" type="line"/>
      <point x="-6" y="0" type="line"/>
    </contour>
  </outline>
</glyph>
<glyph name="kgreenlandic" format="2">
  <advance width="1101"/>
  <unicode hex="0138"/>
  <outline>
    <contour>
      <point x="192" y="0" type="line"/>
      <point x="302" y="329" type="line"/>
      <point x="503" y="483" type="line"/>
      <point x="667" y="0" type="line"/>
      <point x="893" y="0" type="line"/>
      <point x="682" y="602" type="line"/>
      <point x="1159" y="984" type="line"/>
      <point x="907" y="984" type="line"/>
      <point x="386" y="586" type="line"/>
      <point x="522" y="984" type="line"/>
      <point x="320" y="984" type="line"/>
      <point x="-6" y="0" type="line"/>
    </contour>
  </outline>
</glyph>
<glyph name="Lslash" format="2">
  <advance width="1124"/>
  <unicode hex="0141"/>
  <anchor x="478" y="0" name="bottom"/>
  <anchor x="752" y="1440" name="caron"/>
  <anchor x="635" y="1400" name="top"/>
  <outline>
    <component base="L" yxScale="0.00367187" xOffset="40"/>
    <contour>
      <point x="356" y="591" type="line"/>
      <point x="350" y="572" type="line"/>
      <point x="1125" y="888" type="line"/>
      <point x="1074" y="1017" type="line"/>
      <point x="406" y="745" type="line"/>
      <point x="412" y="764" type="line"/>
      <point x="37" y="611" type="line"/>
      <point x="88" y="483" type="line"/>
    </contour>
  </outline>
</glyph>
<glyph name="lslash" format="2">
  <advance width="670"/>
  <unicode hex="0142"/>
  <anchor x="535" y="1440" name="top"/>
  <anchor x="636" y="1440" name="Anchor_2"/>
  <anchor x="227" y="0" name="bottom"/>
  <outline>
    <component base="l" xOffset="73"/>
    <contour>
      <point x="101" y="469" type="line"/>
      <point x="44" y="609" type="line"/>
      <point x="383" y="756" type="line"/>
      <point x="381" y="736" type="line"/>
      <point x="636" y="844" type="line"/>
      <point x="695" y="702" type="line"/>
      <point x="356" y="560" type="line"/>
      <point x="359" y="580" type="line"/>
    </contour>
  </outline>
</glyph>
<glyph name="Eng" format="2">
  <advance width="1499"/>
  <unicode hex="014A"/>
  <outline>
    <contour>
      <point x="1032" y="-41" type="line"/>
      <point x="512" y="1066" type="line"/>
      <point x="285" y="0" type="line"/>
      <point x="84" y="0" type="line"/>
      <point x="380" y="1400" type="line"/>
      <point x="575" y="1400" type="line"/>
      <point x="1100" y="300" type="line"/>
    </contour>
    <contour>
      <point x="852" y="-450" type="qcurve" smooth="yes"/>
      <point x="784" y="-450"/>
      <point x="679" y="-418"/>
      <point x="639" y="-395" type="qcurve"/>
      <point x="716" y="-245" type="line"/>
      <point x="740" y="-259"/>
      <point x="792" y="-275"/>
      <point x="833" y="-275" type="qcurve" smooth="yes"/>
      <point x="895" y="-275"/>
      <point x="962" y="-203"/>
      <point x="977" y="-132" type="qcurve" smooth="yes"/>
      <point x="1303" y="1400" type="line"/>
      <point x="1504" y="1400" type="line"/>
      <point x="1177" y="-145" type="line" smooth="yes"/>
      <point x="1156" y="-242"/>
      <point x="1065" y="-379"/>
      <point x="934" y="-450"/>
    </contour>
  </outline>
</glyph>
<glyph name="eng" format="2">
  <advance width="1213"/>
  <unicode hex="014B"/>
  <outline>
    <contour>
      <point x="604" y="-450" type="qcurve" smooth="yes"/>
      <point x="542" y="-450"/>
      <point x="432" y="-418"/>
      <point x="397" y="-395" type="qcurve"/>
      <point x="475" y="-244" type="line"/>
      <point x="502" y="-259"/>
      <point x="551" y="-274"/>
      <point x="587" y="-274" type="qcurve" smooth="yes"/>
      <point x="649" y="-274"/>
      <point x="719" y="-200"/>
      <point x="734" y="-124" type="qcurve"/>
      <point x="884" y="588" type="line" smooth="yes"/>
      <point x="908" y="701"/>
      <point x="797" y="830"/>
      <point x="681" y="830" type="qcurve" smooth="yes"/>
      <point x="609" y="830"/>
      <point x="482" y="767"/>
      <point x="392" y="645"/>
      <point x="374" y="559" type="qcurve" smooth="yes"/>
      <point x="254" y="0" type="line"/>
      <point x="52" y="0" type="line"/>
      <point x="262" y="985" type="line"/>
      <point x="464" y="985" type="line"/>
      <point x="435" y="849" type="line"/>
      <point x="510" y="937"/>
      <point x="687" y="1015"/>
      <point x="775" y="1015" type="qcurve" smooth="yes"/>
      <point x="888" y="1015"/>
      <point x="1049" y="916"/>
      <point x="1121" y="750"/>
      <point x="1100" y="651" type="qcurve" smooth="yes"/>
      <point x="931" y="-145" type="line" smooth="yes"/>
      <point x="910" y="-243"/>
      <point x="819" y="-379"/>
      <point x="686" y="-450"/>
    </contour>
  </outline>
</glyph>
<glyph name="OE" format="2">
  <advance width="2397"/>
  <unicode hex="0152"/>
  <outline>
    <contour>
      <point x="788" y="-30" type="qcurve" smooth="yes"/>
      <point x="645" y="-30"/>
      <point x="409" y="67"/>
      <point x="236" y="240"/>
      <point x="143" y="474"/>
      <point x="143" y="611" type="qcurve" smooth="yes"/>
      <point x="143" y="779"/>
      <point x="266" y="1075"/>
      <point x="485" y="1301"/>
      <point x="773" y="1430"/>
      <point x="937" y="1430" type="qcurve" smooth="yes"/>
      <point x="1069" y="1430"/>
      <point x="1301" y="1350"/>
      <point x="1479" y="1191"/>
      <point x="1529" y="1071" type="qcurve"/>
      <point x="1484" y="1031" type="line"/>
      <point x="1561" y="1400" type="line"/>
      <point x="2446" y="1400" type="line"/>
      <point x="2408" y="1217" type="line"/>
      <point x="1723" y="1217" type="line"/>
      <point x="1638" y="819" type="line"/>
      <point x="2232" y="819" type="line"/>
      <point x="2196" y="646" type="line"/>
      <point x="1602" y="646" type="line"/>
      <point x="1503" y="184" type="line"/>
      <point x="2195" y="184" type="line"/>
      <point x="2157" y="0" type="line"/>
      <point x="1287" y="0" type="line"/>
      <point x="1344" y="272" type="line"/>
      <point x="1362" y="234" type="line"/>
      <point x="1264" y="108"/>
      <point x="967" y="-30"/>
    </contour>
    <contour>
      <point x="833" y="165" type="qcurve" smooth="yes"/>
      <point x="957" y="165"/>
      <point x="1169" y="258"/>
      <point x="1327" y="424"/>
      <point x="1415" y="645"/>
      <point x="1415" y="772" type="qcurve" smooth="yes"/>
      <point x="1415" y="911"/>
      <point x="1296" y="1119"/>
      <point x="1083" y="1235"/>
      <point x="942" y="1235" type="qcurve" smooth="yes"/>
      <point x="816" y="1235"/>
      <point x="603" y="1139"/>
      <point x="446" y="970"/>
      <point x="359" y="750"/>
      <point x="359" y="626" type="qcurve" smooth="yes"/>
      <point x="359" y="486"/>
      <point x="481" y="279"/>
      <point x="695" y="165"/>
    </contour>
  </outline>
</glyph>
<glyph name="oe" format="2">
  <advance width="2008"/>
  <unicode hex="0153"/>
  <outline>
    <contour>
      <point x="525" y="-30" type="curve" smooth="yes"/>
      <point x="842" y="-30"/>
      <point x="1136" y="251"/>
      <point x="1136" y="585" type="curve" smooth="yes"/>
      <point x="1136" y="822"/>
      <point x="971" y="1014"/>
      <point x="690" y="1014" type="curve" smooth="yes"/>
      <point x="371" y="1014"/>
      <point x="70" y="733"/>
      <point x="70" y="404" type="curve" smooth="yes"/>
      <point x="70" y="160"/>
      <point x="240" y="-30"/>
    </contour>
    <contour>
      <point x="559" y="148" type="curve" smooth="yes"/>
      <point x="382" y="148"/>
      <point x="272" y="250"/>
      <point x="272" y="412" type="curve" smooth="yes"/>
      <point x="272" y="629"/>
      <point x="426" y="836"/>
      <point x="663" y="836" type="curve" smooth="yes"/>
      <point x="840" y="836"/>
      <point x="950" y="736"/>
      <point x="950" y="572" type="curve" smooth="yes"/>
      <point x="950" y="356"/>
      <point x="797" y="148"/>
    </contour>
    <contour>
      <point x="1404" y="-30" type="curve" smooth="yes"/>
      <point x="1518" y="-30"/>
      <point x="1649" y="-3"/>
      <point x="1751" y="52" type="curve"/>
      <point x="1715" y="207" type="line"/>
      <point x="1629" y="160"/>
      <point x="1535" y="136"/>
      <point x="1444" y="136" type="curve" smooth="yes"/>
      <point x="1235" y="136"/>
      <point x="1078" y="250"/>
      <point x="1122" y="450" type="curve"/>
      <point x="1923" y="450" type="line"/>
      <point x="2041" y="743"/>
      <point x="1880" y="1014"/>
      <point x="1549" y="1014" type="curve" smooth="yes"/>
      <point x="1217" y="1014"/>
      <point x="947" y="722"/>
      <point x="947" y="373" type="curve" smooth="yes"/>
      <point x="947" y="130"/>
      <point x="1120" y="-30"/>
    </contour>
    <contour>
      <point x="1170" y="601" type="line"/>
      <point x="1217" y="761"/>
      <point x="1345" y="854"/>
      <point x="1508" y="854" type="curve" smooth="yes"/>
      <point x="1689" y="854"/>
      <point x="1782" y="771"/>
      <point x="1763" y="601" type="curve"/>
    </contour>
  </outline>
</glyph>
<glyph name="Uogonek" format="2">
  <advance width="1473"/>
  <unicode hex="0172"/>
  <anchor x="1038" y="1400" name="top"/>
  <outline>
    <contour>
      <point x="636" y="-449" type="curve" smooth="yes"/>
      <point x="693" y="-449"/>
      <point x="750" y="-438"/>
      <point x="805" y="-406" type="curve"/>
      <point x="792" y="-280" type="line"/>
      <point x="763" y="-302"/>
      <point x="726" y="-311"/>
      <point x="689" y="-311" type="curve" smooth="yes"/>
      <point x="645" y="-311"/>
      <point x="611" y="-297"/>
      <point x="610" y="-236" type="curve" smooth="yes"/>
      <point x="608" y="-133"/>
      <point x="699" y="-51"/>
      <point x="837" y="-3" type="curve"/>
      <point x="1066" y="70"/>
      <point x="1228" y="269"/>
      <point x="1312" y="540" type="curve"/>
      <point x="1597" y="1400" type="line"/>
      <point x="1394" y="1400" type="line"/>
      <point x="1111" y="545" type="line"/>
      <point x="1023" y="272"/>
      <point x="861" y="162"/>
      <point x="665" y="162" type="curve" smooth="yes"/>
      <point x="403" y="162"/>
      <point x="317" y="311"/>
      <point x="398" y="545" type="curve"/>
      <point x="682" y="1400" type="line"/>
      <point x="479" y="1400" type="line"/>
      <point x="194" y="540" type="line"/>
      <point x="83" y="223"/>
      <point x="244" y="-10"/>
      <point x="579" y="-29" type="curve"/>
      <point x="498" y="-99"/>
      <point x="447" y="-188"/>
      <point x="448" y="-275" type="curve" smooth="yes"/>
      <point x="449" y="-393"/>
      <point x="527" y="-449"/>
    </contour>
  </outline>
</glyph>
<glyph name="uogonek" format="2">
  <advance width="1201"/>
  <unicode hex="0173"/>
  <anchor x="701" y="985" name="top"/>
  <anchor x="1148" y="985" name="horn"/>
  <anchor x="482" y="0" name="bottom"/>
  <outline>
    <contour>
      <point x="689" y="-450" type="qcurve" smooth="yes"/>
      <point x="600" y="-450"/>
      <point x="491" y="-351"/>
      <point x="491" y="-263" type="qcurve" smooth="yes"/>
      <point x="491" y="-181"/>
      <point x="603" y="-41"/>
      <point x="798" y="59"/>
      <point x="921" y="83" type="qcurve"/>
      <point x="939" y="0" type="line"/>
      <point x="851" y="-22"/>
      <point x="722" y="-85"/>
      <point x="651" y="-169"/>
      <point x="651" y="-223" type="qcurve" smooth="yes"/>
      <point x="651" y="-268"/>
      <point x="696" y="-307"/>
      <point x="735" y="-307" type="qcurve" smooth="yes"/>
      <point x="763" y="-307"/>
      <point x="817" y="-291"/>
      <point x="838" y="-275" type="qcurve"/>
      <point x="867" y="-403" type="line"/>
      <point x="825" y="-427"/>
      <point x="735" y="-450"/>
    </contour>
    <contour>
      <point x="436" y="-30" type="qcurve" smooth="yes"/>
      <point x="321" y="-30"/>
      <point x="162" y="67"/>
      <point x="95" y="239"/>
      <point x="117" y="350" type="qcurve"/>
      <point x="253" y="985" type="line"/>
      <point x="455" y="985" type="line"/>
      <point x="328" y="390" type="line"/>
      <point x="308" y="277"/>
      <point x="415" y="155"/>
      <point x="524" y="155" type="qcurve" smooth="yes"/>
      <point x="594" y="155"/>
      <point x="718" y="217"/>
      <point x="808" y="335"/>
      <point x="826" y="419" type="qcurve" smooth="yes"/>
      <point x="946" y="985" type="line"/>
      <point x="1148" y="985" type="line"/>
      <point x="939" y="0" type="line"/>
      <point x="756" y="0" type="line"/>
      <point x="781" y="125" type="line"/>
      <point x="714" y="49"/>
      <point x="537" y="-30"/>
    </contour>
  </outline>
</glyph>
<glyph name="Schwa" format="2">
  <advance width="1615"/>
  <unicode hex="018F"/>
  <outline>
    <contour>
      <point x="757" y="-30" type="qcurve" smooth="yes"/>
      <point x="589" y="-30"/>
      <point x="333" y="84"/>
      <point x="173" y="292"/>
      <point x="120" y="575"/>
      <point x="153" y="745" type="qcurve"/>
      <point x="1432" y="745" type="line"/>
      <point x="1396" y="578" type="line"/>
      <point x="257" y="578" type="line"/>
      <point x="354" y="651" type="line"/>
      <point x="330" y="548"/>
      <point x="374" y="367"/>
      <point x="492" y="229"/>
      <point x="669" y="153"/>
      <point x="777" y="153" type="qcurve" smooth="yes"/>
      <point x="909" y="153"/>
      <point x="1120" y="254"/>
      <point x="1271" y="433"/>
      <point x="1351" y="664"/>
      <point x="1351" y="794" type="qcurve" smooth="yes"/>
      <point x="1351" y="930"/>
      <point x="1234" y="1128"/>
      <point x="1009" y="1236"/>
      <point x="848" y="1236" type="qcurve" smooth="yes"/>
      <point x="731" y="1236"/>
      <point x="507" y="1170"/>
      <point x="422" y="1106" type="qcurve"/>
      <point x="349" y="1272" type="line"/>
      <point x="456" y="1341"/>
      <point x="728" y="1430"/>
      <point x="883" y="1430" type="qcurve" smooth="yes"/>
      <point x="1092" y="1430"/>
      <point x="1398" y="1278"/>
      <point x="1564" y="1000"/>
      <point x="1564" y="812" type="qcurve" smooth="yes"/>
      <point x="1564" y="639"/>
      <point x="1442" y="333"/>
      <point x="1223" y="101"/>
      <point x="929" y="-30"/>
    </contour>
  </outline>
</glyph>
<glyph name="florin" format="2">
  <advance width="1298"/>
  <unicode hex="0192"/>
  <outline>
    <contour>
      <point x="200" y="-451" type="qcurve" smooth="yes"/>
      <point x="135" y="-451"/>
      <point x="26" y="-418"/>
      <point x="-19" y="-389" type="qcurve"/>
      <point x="26" y="-219" type="line"/>
      <point x="51" y="-242"/>
      <point x="138" y="-277"/>
      <point x="182" y="-277" type="qcurve" smooth="yes"/>
      <point x="265" y="-277"/>
      <point x="356" y="-187"/>
      <point x="381" y="-76" type="qcurve" smooth="yes"/>
      <point x="639" y="1062" type="line" smooth="yes"/>
      <point x="681" y="1249"/>
      <point x="870" y="1430"/>
      <point x="1021" y="1430" type="qcurve" smooth="yes"/>
      <point x="1088" y="1430"/>
      <point x="1196" y="1398"/>
      <point x="1240" y="1368" type="qcurve"/>
      <point x="1195" y="1198" type="line"/>
      <point x="1171" y="1221"/>
      <point x="1084" y="1255"/>
      <point x="1040" y="1255" type="qcurve" smooth="yes"/>
      <point x="958" y="1255"/>
      <point x="866" y="1166"/>
      <point x="840" y="1054" type="qcurve" smooth="yes"/>
      <point x="583" y="-83" type="line" smooth="yes"/>
      <point x="541" y="-269"/>
      <point x="350" y="-451"/>
    </contour>
    <contour>
      <point x="164" y="614" type="line"/>
      <point x="196" y="761" type="line"/>
      <point x="1165" y="761" type="line"/>
      <point x="1133" y="614" type="line"/>
    </contour>
  </outline>
</glyph>
<glyph name="Oogonek" format="2">
  <advance width="1695"/>
  <unicode hex="01EA"/>
  <anchor x="1092" y="1400" name="top"/>
  <outline>
    <contour>
      <point x="687" y="-449" type="curve" smooth="yes"/>
      <point x="744" y="-449"/>
      <point x="801" y="-438"/>
      <point x="856" y="-406" type="curve"/>
      <point x="844" y="-280" type="line"/>
      <point x="814" y="-302"/>
      <point x="777" y="-311"/>
      <point x="740" y="-311" type="curve" smooth="yes"/>
      <point x="697" y="-311"/>
      <point x="662" y="-297"/>
      <point x="661" y="-236" type="curve" smooth="yes"/>
      <point x="659" y="-146"/>
      <point x="759" y="-72"/>
      <point x="951" y="-17" type="curve"/>
      <point x="949" y="66" type="line"/>
      <point x="680" y="9"/>
      <point x="498" y="-128"/>
      <point x="499" y="-275" type="curve" smooth="yes"/>
      <point x="500" y="-393"/>
      <point x="578" y="-449"/>
    </contour>
    <contour>
      <point x="804" y="-30" type="curve" smooth="yes"/>
      <point x="1265" y="-30"/>
      <point x="1666" y="369"/>
      <point x="1666" y="828" type="curve" smooth="yes"/>
      <point x="1666" y="1171"/>
      <point x="1418" y="1430"/>
      <point x="1027" y="1430" type="curve" smooth="yes"/>
      <point x="566" y="1430"/>
      <point x="167" y="1034"/>
      <point x="167" y="566" type="curve" smooth="yes"/>
      <point x="167" y="223"/>
      <point x="416" y="-30"/>
    </contour>
    <contour>
      <point x="833" y="162" type="curve" smooth="yes"/>
      <point x="564" y="162"/>
      <point x="383" y="330"/>
      <point x="383" y="586" type="curve" smooth="yes"/>
      <point x="383" y="932"/>
      <point x="645" y="1238"/>
      <point x="1001" y="1238" type="curve" smooth="yes"/>
      <point x="1274" y="1238"/>
      <point x="1452" y="1070"/>
      <point x="1452" y="814" type="curve" smooth="yes"/>
      <point x="1452" y="468"/>
      <point x="1189" y="162"/>
    </contour>
  </outline>
</glyph>
<glyph name="oogonek" format="2">
  <advance width="1218"/>
  <unicode hex="01EB"/>
  <anchor x="687" y="985" name="top"/>
  <outline>
    <contour>
      <point x="515" y="-450" type="qcurve" smooth="yes"/>
      <point x="425" y="-450"/>
      <point x="317" y="-351"/>
      <point x="317" y="-263" type="qcurve" smooth="yes"/>
      <point x="317" y="-195"/>
      <point x="395" y="-71"/>
      <point x="465" y="-22" type="qcurve"/>
      <point x="344" y="-3"/>
      <point x="167" y="127"/>
      <point x="71" y="321"/>
      <point x="71" y="437" type="qcurve" smooth="yes"/>
      <point x="71" y="554"/>
      <point x="165" y="763"/>
      <point x="330" y="923"/>
      <point x="543" y="1015"/>
      <point x="661" y="1015" type="qcurve" smooth="yes"/>
      <point x="809" y="1015"/>
      <point x="1027" y="889"/>
      <point x="1147" y="678"/>
      <point x="1147" y="551" type="qcurve" smooth="yes"/>
      <point x="1147" y="419"/>
      <point x="1030" y="191"/>
      <point x="831" y="28"/>
      <point x="708" y="-9" type="qcurve"/>
      <point x="596" y="-45"/>
      <point x="477" y="-153"/>
      <point x="477" y="-223" type="qcurve" smooth="yes"/>
      <point x="477" y="-268"/>
      <point x="522" y="-307"/>
      <point x="561" y="-307" type="qcurve" smooth="yes"/>
      <point x="589" y="-307"/>
      <point x="642" y="-291"/>
      <point x="664" y="-275" type="qcurve"/>
      <point x="692" y="-403" type="line"/>
      <point x="651" y="-427"/>
      <point x="560" y="-450"/>
    </contour>
    <contour>
      <point x="576" y="151" type="qcurve" smooth="yes"/>
      <point x="686" y="151"/>
      <point x="851" y="259"/>
      <point x="942" y="437"/>
      <point x="942" y="544" type="qcurve" smooth="yes"/>
      <point x="942" y="633"/>
      <point x="867" y="764"/>
      <point x="732" y="835"/>
      <point x="642" y="835" type="qcurve" smooth="yes"/>
      <point x="532" y="835"/>
      <point x="367" y="727"/>
      <point x="276" y="548"/>
      <point x="276" y="442" type="qcurve" smooth="yes"/>
      <point x="276" y="353"/>
      <point x="350" y="222"/>
      <point x="485" y="151"/>
    </contour>
  </outline>
</glyph>
<glyph name="dotlessj" format="2">
  <advance width="517"/>
  <unicode hex="0237"/>
  <anchor x="363" y="985" name="top"/>
  <outline>
    <contour>
      <point x="-101" y="-450" type="qcurve" smooth="yes"/>
      <point x="-168" y="-450"/>
      <point x="-270" y="-418"/>
      <point x="-310" y="-393" type="qcurve"/>
      <point x="-231" y="-244" type="line"/>
      <point x="-209" y="-257"/>
      <point x="-158" y="-275"/>
      <point x="-119" y="-275" type="qcurve" smooth="yes"/>
      <point x="-57" y="-275"/>
      <point x="10" y="-200"/>
      <point x="26" y="-124" type="qcurve" smooth="yes"/>
      <point x="262" y="985" type="line"/>
      <point x="464" y="985" type="line"/>
      <point x="224" y="-145" type="line" smooth="yes"/>
      <point x="203" y="-243"/>
      <point x="112" y="-379"/>
      <point x="-19" y="-450"/>
    </contour>
  </outline>
</glyph>
<glyph name="jdotless" format="2">
  <advance width="513"/>
  <unicode hex="0237"/>
  <anchor x="420" y="984" name="top"/>
  <outline>
    <contour>
      <point x="-202" y="-450" type="curve" smooth="yes"/>
      <point x="-45" y="-450"/>
      <point x="79" y="-347"/>
      <point x="143" y="-147" type="curve"/>
      <point x="519" y="984" type="line"/>
      <point x="321" y="984" type="line"/>
      <point x="-49" y="-126" type="line"/>
      <point x="-82" y="-229"/>
      <point x="-129" y="-277"/>
      <point x="-206" y="-277" type="curve" smooth="yes"/>
      <point x="-262" y="-277"/>
      <point x="-294" y="-264"/>
      <point x="-319" y="-245" type="curve"/>
      <point x="-414" y="-387" type="line"/>
      <point x="-362" y="-424"/>
      <point x="-294" y="-450"/>
    </contour>
  </outline>
</glyph>
<glyph name="schwa" format="2">
  <advance width="1152"/>
  <unicode hex="0259"/>
  <outline>
    <contour>
      <point x="513" y="-30" type="qcurve" smooth="yes"/>
      <point x="389" y="-30"/>
      <point x="201" y="57"/>
      <point x="86" y="215"/>
      <point x="53" y="424"/>
      <point x="83" y="546" type="qcurve"/>
      <point x="945" y="546" type="line"/>
      <point x="909" y="393" type="line"/>
      <point x="167" y="393" type="line"/>
      <point x="260" y="470" type="line"/>
      <point x="240" y="309"/>
      <point x="382" y="132"/>
      <point x="528" y="132" type="qcurve" smooth="yes"/>
      <point x="644" y="132"/>
      <point x="804" y="250"/>
      <point x="887" y="439"/>
      <point x="887" y="547" type="qcurve" smooth="yes"/>
      <point x="887" y="645"/>
      <point x="809" y="778"/>
      <point x="663" y="847"/>
      <point x="561" y="847" type="qcurve" smooth="yes"/>
      <point x="481" y="847"/>
      <point x="332" y="803"/>
      <point x="268" y="762" type="qcurve"/>
      <point x="221" y="911" type="line"/>
      <point x="269" y="944"/>
      <point x="390" y="991"/>
      <point x="522" y="1015"/>
      <point x="587" y="1015" type="qcurve" smooth="yes"/>
      <point x="737" y="1015"/>
      <point x="959" y="908"/>
      <point x="1082" y="703"/>
      <point x="1082" y="558" type="qcurve" smooth="yes"/>
      <point x="1082" y="440"/>
      <point x="997" y="227"/>
      <point x="842" y="64"/>
      <point x="635" y="-30"/>
    </contour>
  </outline>
</glyph>
<glyph name="gravecomb" format="2">
  <unicode hex="0300"/>
  <anchor x="-721" y="984" name="_top"/>
  <outline>
    <contour>
      <point x="-542" y="1170" type="line"/>
      <point x="-623" y="1516" type="line"/>
      <point x="-822" y="1516" type="line"/>
      <point x="-722" y="1170" type="line"/>
    </contour>
  </outline>
</glyph>
<glyph name="acutecomb" format="2">
  <unicode hex="0301"/>
  <anchor x="-721" y="984" name="_top"/>
  <outline>
    <contour>
      <point x="-572" y="1170" type="line"/>
      <point x="-260" y="1516" type="line"/>
      <point x="-472" y="1516" type="line"/>
      <point x="-765" y="1170" type="line"/>
    </contour>
  </outline>
</glyph>
<glyph name="circumflexcomb" format="2">
  <unicode hex="0302"/>
  <anchor x="-678" y="984" name="top"/>
  <anchor x="-578" y="1456" name="top.1"/>
  <outline>
    <contour>
      <point x="-1006" y="1170" type="line"/>
      <point x="-656" y="1516" type="line"/>
      <point x="-464" y="1516" type="line"/>
      <point x="-283" y="1170" type="line"/>
      <point x="-466" y="1170" type="line"/>
      <point x="-579" y="1396" type="line"/>
      <point x="-800" y="1170" type="line"/>
    </contour>
  </outline>
</glyph>
<glyph name="tildecomb" format="2">
  <unicode hex="0303"/>
  <anchor x="-679" y="985" name="top"/>
  <anchor x="-594" y="1382" name="top.1"/>
  <outline>
    <contour>
      <point x="-916" y="1192" type="qcurve"/>
      <point x="-997" y="1276" type="line"/>
      <point x="-945" y="1366"/>
      <point x="-809" y="1473"/>
      <point x="-733" y="1473" type="qcurve" smooth="yes"/>
      <point x="-671" y="1473"/>
      <point x="-576" y="1419"/>
      <point x="-489" y="1366"/>
      <point x="-441" y="1366" type="qcurve" smooth="yes"/>
      <point x="-398" y="1366"/>
      <point x="-320" y="1433"/>
      <point x="-288" y="1495" type="qcurve"/>
      <point x="-209" y="1410" type="line"/>
      <point x="-253" y="1317"/>
      <point x="-389" y="1215"/>
      <point x="-464" y="1215" type="qcurve" smooth="yes"/>
      <point x="-527" y="1215"/>
      <point x="-625" y="1268"/>
      <point x="-714" y="1321"/>
      <point x="-760" y="1321" type="qcurve" smooth="yes"/>
      <point x="-804" y="1321"/>
      <point x="-881" y="1256"/>
    </contour>
  </outline>
</glyph>
<glyph name="macroncomb" format="2">
  <unicode hex="0304"/>
  <anchor x="-496" y="985" name="top"/>
  <outline>
    <contour>
      <point x="-764" y="1230" type="line"/>
      <point x="-733" y="1374" type="line"/>
      <point x="-94" y="1374" type="line"/>
      <point x="-126" y="1230" type="line"/>
    </contour>
  </outline>
</glyph>
<glyph name="brevecomb" format="2">
  <unicode hex="0306"/>
  <anchor x="-678" y="985" name="top"/>
  <anchor x="-583" y="1429" name="top.1"/>
  <outline>
    <contour>
      <point x="-605" y="1160" type="qcurve" smooth="yes"/>
      <point x="-715" y="1160"/>
      <point x="-872" y="1247"/>
      <point x="-948" y="1408"/>
      <point x="-937" y="1517" type="qcurve"/>
      <point x="-765" y="1517" type="line"/>
      <point x="-778" y="1419"/>
      <point x="-684" y="1304"/>
      <point x="-593" y="1304" type="qcurve" smooth="yes"/>
      <point x="-505" y="1304"/>
      <point x="-390" y="1420"/>
      <point x="-382" y="1517" type="qcurve"/>
      <point x="-212" y="1517" type="line"/>
      <point x="-221" y="1412"/>
      <point x="-329" y="1251"/>
      <point x="-501" y="1160"/>
    </contour>
  </outline>
</glyph>
<glyph name="dotaccentcomb" format="2">
  <unicode hex="0307"/>
  <anchor x="-467" y="984" name="_top"/>
  <anchor x="-371" y="1344" name="top"/>
  <outline>
    <contour>
      <point x="-401" y="1166" type="curve" smooth="yes"/>
      <point x="-320" y="1166"/>
      <point x="-246" y="1232"/>
      <point x="-246" y="1313" type="curve" smooth="yes"/>
      <point x="-246" y="1378"/>
      <point x="-298" y="1424"/>
      <point x="-367" y="1424" type="curve" smooth="yes"/>
      <point x="-445" y="1424"/>
      <point x="-521" y="1361"/>
      <point x="-521" y="1277" type="curve" smooth="yes"/>
      <point x="-521" y="1213"/>
      <point x="-469" y="1166"/>
    </contour>
  </outline>
</glyph>
<glyph name="dieresiscomb" format="2">
  <unicode hex="0308"/>
  <anchor x="-648" y="960" name="top"/>
  <anchor x="-580" y="1284" name="top.1"/>
  <outline>
    <contour>
      <point x="-780" y="1162" type="qcurve"/>
      <point x="-816" y="1162"/>
      <point x="-864" y="1213"/>
      <point x="-864" y="1246" type="qcurve"/>
      <point x="-864" y="1274"/>
      <point x="-832" y="1321"/>
      <point x="-783" y="1350"/>
      <point x="-756" y="1350" type="qcurve"/>
      <point x="-720" y="1350"/>
      <point x="-672" y="1301"/>
      <point x="-672" y="1266" type="qcurve"/>
      <point x="-672" y="1238"/>
      <point x="-703" y="1191"/>
      <point x="-753" y="1162"/>
    </contour>
    <contour>
      <point x="-416" y="1162" type="qcurve"/>
      <point x="-452" y="1162"/>
      <point x="-500" y="1213"/>
      <point x="-500" y="1246" type="qcurve"/>
      <point x="-500" y="1274"/>
      <point x="-468" y="1321"/>
      <point x="-419" y="1350"/>
      <point x="-392" y="1350" type="qcurve"/>
      <point x="-356" y="1350"/>
      <point x="-308" y="1301"/>
      <point x="-308" y="1266" type="qcurve"/>
      <point x="-308" y="1238"/>
      <point x="-339" y="1191"/>
      <point x="-389" y="1162"/>
    </contour>
  </outline>
</glyph>
<glyph name="hookabovecomb" format="2">
  <unicode hex="0309"/>
  <anchor x="-738" y="984" name="_top"/>
  <outline>
    <contour>
      <point x="-604" y="1170" type="line"/>
      <point x="-615" y="1242"/>
      <point x="-594" y="1261"/>
      <point x="-504" y="1292" type="curve" smooth="yes"/>
      <point x="-419" y="1321"/>
      <point x="-325" y="1368"/>
      <point x="-325" y="1476" type="curve" smooth="yes"/>
      <point x="-325" y="1583"/>
      <point x="-449" y="1634"/>
      <point x="-598" y="1634" type="curve" smooth="yes"/>
      <point x="-661" y="1634"/>
      <point x="-728" y="1624"/>
      <point x="-783" y="1605" type="curve"/>
      <point x="-781" y="1491" type="line"/>
      <point x="-737" y="1506"/>
      <point x="-686" y="1513"/>
      <point x="-635" y="1513" type="curve" smooth="yes"/>
      <point x="-554" y="1513"/>
      <point x="-493" y="1485"/>
      <point x="-493" y="1441" type="curve" smooth="yes"/>
      <point x="-493" y="1385"/>
      <point x="-545" y="1373"/>
      <point x="-611" y="1357" type="curve" smooth="yes"/>
      <point x="-727" y="1329"/>
      <point x="-767" y="1270"/>
      <point x="-737" y="1170" type="curve"/>
    </contour>
  </outline>
</glyph>
<glyph name="ringcomb" format="2">
  <unicode hex="030A"/>
  <anchor x="-666" y="960" name="top"/>
  <anchor x="-558" y="1464" name="top.1"/>
  <outline>
    <contour>
      <point x="-610" y="1100" type="qcurve"/>
      <point x="-676" y="1100"/>
      <point x="-778" y="1155"/>
      <point x="-836" y="1250"/>
      <point x="-836" y="1310" type="qcurve"/>
      <point x="-836" y="1381"/>
      <point x="-758" y="1497"/>
      <point x="-633" y="1566"/>
      <point x="-562" y="1566" type="qcurve"/>
      <point x="-498" y="1566"/>
      <point x="-397" y="1509"/>
      <point x="-338" y="1412"/>
      <point x="-338" y="1352" type="qcurve"/>
      <point x="-338" y="1280"/>
      <point x="-415" y="1166"/>
      <point x="-539" y="1100"/>
    </contour>
    <contour>
      <point x="-602" y="1188" type="qcurve"/>
      <point x="-534" y="1188"/>
      <point x="-442" y="1284"/>
      <point x="-442" y="1348" type="qcurve"/>
      <point x="-442" y="1404"/>
      <point x="-513" y="1474"/>
      <point x="-576" y="1474" type="qcurve"/>
      <point x="-642" y="1474"/>
      <point x="-732" y="1379"/>
      <point x="-732" y="1316" type="qcurve"/>
      <point x="-732" y="1262"/>
      <point x="-663" y="1188"/>
    </contour>
  </outline>
</glyph>
<glyph name="hungarumlautcomb" format="2">
  <unicode hex="030B"/>
  <anchor x="-721" y="984" name="_top"/>
  <outline>
    <contour>
      <point x="-373" y="1170" type="line"/>
      <point x="-67" y="1516" type="line"/>
      <point x="-271" y="1516" type="line"/>
      <point x="-557" y="1170" type="line"/>
    </contour>
    <contour>
      <point x="-764" y="1170" type="line"/>
      <point x="-458" y="1516" type="line"/>
      <point x="-662" y="1516" type="line"/>
      <point x="-948" y="1170" type="line"/>
    </contour>
  </outline>
</glyph>
<glyph name="caroncomb" format="2">
  <unicode hex="030C"/>
  <anchor x="-679" y="985" name="top"/>
  <outline>
    <contour>
      <point x="-737" y="1170" type="line"/>
      <point x="-925" y="1517" type="line"/>
      <point x="-738" y="1517" type="line"/>
      <point x="-624" y="1291" type="line"/>
      <point x="-402" y="1517" type="line"/>
      <point x="-195" y="1517" type="line"/>
      <point x="-549" y="1170" type="line"/>
    </contour>
  </outline>
</glyph>
<glyph name="dblgravecomb" format="2">
  <unicode hex="030F"/>
  <anchor x="-666" y="960" name="top"/>
  <outline>
    <contour>
      <point x="-502" y="1170" type="line"/>
      <point x="-628" y="1504" type="line"/>
      <point x="-512" y="1504" type="line"/>
      <point x="-398" y="1170" type="line"/>
    </contour>
    <contour>
      <point x="-840" y="1170" type="line"/>
      <point x="-970" y="1504" type="line"/>
      <point x="-854" y="1504" type="line"/>
      <point x="-736" y="1170" type="line"/>
    </contour>
  </outline>
</glyph>
<glyph name="breveinvertedcomb" format="2">
  <unicode hex="0311"/>
  <anchor x="-700" y="984" name="_top"/>
  <outline>
    <contour>
      <point x="-834" y="1170" type="line"/>
      <point x="-820" y="1300"/>
      <point x="-730" y="1384"/>
      <point x="-616" y="1384" type="curve" smooth="yes"/>
      <point x="-479" y="1384"/>
      <point x="-424" y="1293"/>
      <point x="-448" y="1170" type="curve"/>
      <point x="-279" y="1170" type="line"/>
      <point x="-245" y="1368"/>
      <point x="-374" y="1526"/>
      <point x="-599" y="1526" type="curve" smooth="yes"/>
      <point x="-810" y="1526"/>
      <point x="-978" y="1383"/>
      <point x="-1000" y="1170" type="curve"/>
    </contour>
  </outline>
</glyph>
<glyph name="commaturnedabovecomb" format="2">
  <unicode hex="0312"/>
  <anchor x="-686" y="960" name="top"/>
  <outline>
    <contour>
      <point x="-596" y="1244" type="qcurve"/>
      <point x="-640" y="1244"/>
      <point x="-697" y="1296"/>
      <point x="-697" y="1347" type="qcurve"/>
      <point x="-697" y="1406"/>
      <point x="-626" y="1506"/>
      <point x="-510" y="1585"/>
      <point x="-445" y="1613" type="qcurve"/>
      <point x="-403" y="1551" type="line"/>
      <point x="-475" y="1521"/>
      <point x="-572" y="1448"/>
      <point x="-589" y="1415" type="qcurve"/>
      <point x="-561" y="1414"/>
      <point x="-520" y="1394"/>
      <point x="-496" y="1358"/>
      <point x="-496" y="1334" type="qcurve"/>
      <point x="-496" y="1294"/>
      <point x="-552" y="1244"/>
    </contour>
  </outline>
</glyph>
<glyph name="horncomb" format="2">
  <unicode hex="031B"/>
  <anchor x="-218" y="984" name="horn"/>
  <outline>
    <contour>
      <point x="-172" y="811" type="qcurve" smooth="yes"/>
      <point x="-221" y="811"/>
      <point x="-330" y="841"/>
      <point x="-451" y="880"/>
      <point x="-584" y="907"/>
      <point x="-659" y="903" type="qcurve"/>
      <point x="-636" y="1014" type="line"/>
      <point x="-538" y="1014"/>
      <point x="-372" y="977"/>
      <point x="-244" y="940"/>
      <point x="-201" y="937" type="qcurve"/>
      <point x="-153" y="935"/>
      <point x="-94" y="976"/>
      <point x="-94" y="1017" type="qcurve" smooth="yes"/>
      <point x="-94" y="1043"/>
      <point x="-115" y="1108"/>
      <point x="-143" y="1142" type="qcurve"/>
      <point x="-6" y="1205" type="line"/>
      <point x="31" y="1161"/>
      <point x="67" y="1067"/>
      <point x="67" y="1024" type="qcurve" smooth="yes"/>
      <point x="67" y="966"/>
      <point x="9" y="869"/>
      <point x="-98" y="811"/>
    </contour>
  </outline>
</glyph>
<glyph name="dotbelowcomb" format="2">
  <unicode hex="0323"/>
  <anchor x="-506" y="0" name="bottom"/>
  <outline>
    <contour>
      <point x="-598" y="-472" type="qcurve"/>
      <point x="-634" y="-472"/>
      <point x="-682" y="-421"/>
      <point x="-682" y="-388" type="qcurve"/>
      <point x="-682" y="-346"/>
      <point x="-614" y="-284"/>
      <point x="-574" y="-284" type="qcurve"/>
      <point x="-538" y="-284"/>
      <point x="-490" y="-333"/>
      <point x="-490" y="-368" type="qcurve"/>
      <point x="-490" y="-410"/>
      <point x="-557" y="-472"/>
    </contour>
  </outline>
</glyph>
<glyph name="dieresisbelowcomb" format="2">
  <unicode hex="0324"/>
  <anchor x="-524" y="0" name="bottom"/>
  <outline>
    <contour>
      <point x="-782" y="-390" type="qcurve"/>
      <point x="-818" y="-390"/>
      <point x="-866" y="-339"/>
      <point x="-866" y="-306" type="qcurve"/>
      <point x="-866" y="-278"/>
      <point x="-834" y="-231"/>
      <point x="-785" y="-202"/>
      <point x="-758" y="-202" type="qcurve"/>
      <point x="-722" y="-202"/>
      <point x="-674" y="-251"/>
      <point x="-674" y="-286" type="qcurve"/>
      <point x="-674" y="-314"/>
      <point x="-705" y="-361"/>
      <point x="-755" y="-390"/>
    </contour>
    <contour>
      <point x="-418" y="-390" type="qcurve"/>
      <point x="-454" y="-390"/>
      <point x="-502" y="-339"/>
      <point x="-502" y="-306" type="qcurve"/>
      <point x="-502" y="-278"/>
      <point x="-470" y="-231"/>
      <point x="-421" y="-202"/>
      <point x="-394" y="-202" type="qcurve"/>
      <point x="-358" y="-202"/>
      <point x="-310" y="-251"/>
      <point x="-310" y="-286" type="qcurve"/>
      <point x="-310" y="-314"/>
      <point x="-341" y="-361"/>
      <point x="-391" y="-390"/>
    </contour>
  </outline>
</glyph>
<glyph name="commaaccentcomb" format="2">
  <unicode hex="0326"/>
  <anchor x="-448" y="0" name="_bottom"/>
  <outline>
    <contour>
      <point x="-809" y="-733" type="line"/>
      <point x="-634" y="-663"/>
      <point x="-442" y="-545"/>
      <point x="-442" y="-374" type="curve" smooth="yes"/>
      <point x="-442" y="-286"/>
      <point x="-501" y="-239"/>
      <point x="-583" y="-239" type="curve" smooth="yes"/>
      <point x="-665" y="-239"/>
      <point x="-726" y="-295"/>
      <point x="-726" y="-371" type="curve" smooth="yes"/>
      <point x="-726" y="-436"/>
      <point x="-678" y="-477"/>
      <point x="-606" y="-483" type="curve"/>
      <point x="-642" y="-540"/>
      <point x="-731" y="-595"/>
      <point x="-853" y="-644" type="curve"/>
    </contour>
  </outline>
</glyph>
<glyph name="cedillacomb" format="2">
  <unicode hex="0327"/>
  <anchor x="-565" y="0" name="bottom"/>
  <outline>
    <contour>
      <point x="-649" y="-449" type="qcurve" smooth="yes"/>
      <point x="-717" y="-449"/>
      <point x="-841" y="-410"/>
      <point x="-887" y="-375" type="qcurve"/>
      <point x="-820" y="-271" type="line"/>
      <point x="-799" y="-296"/>
      <point x="-701" y="-331"/>
      <point x="-650" y="-331" type="qcurve" smooth="yes"/>
      <point x="-606" y="-331"/>
      <point x="-532" y="-299"/>
      <point x="-532" y="-257" type="qcurve" smooth="yes"/>
      <point x="-532" y="-222"/>
      <point x="-623" y="-189"/>
      <point x="-680" y="-195" type="qcurve"/>
      <point x="-711" y="-110" type="line"/>
      <point x="-621" y="40" type="line"/>
      <point x="-500" y="40" type="line"/>
      <point x="-569" y="-85" type="line"/>
      <point x="-478" y="-98"/>
      <point x="-371" y="-182"/>
      <point x="-371" y="-248" type="qcurve" smooth="yes"/>
      <point x="-371" y="-311"/>
      <point x="-448" y="-401"/>
      <point x="-575" y="-449"/>
    </contour>
  </outline>
</glyph>
<glyph name="ogonekcomb" format="2">
  <unicode hex="0328"/>
  <outline>
    <contour>
      <point x="-695" y="-450" type="qcurve" smooth="yes"/>
      <point x="-784" y="-450"/>
      <point x="-893" y="-351"/>
      <point x="-893" y="-263" type="qcurve" smooth="yes"/>
      <point x="-893" y="-181"/>
      <point x="-781" y="-41"/>
      <point x="-586" y="59"/>
      <point x="-463" y="83" type="qcurve"/>
      <point x="-445" y="0" type="line"/>
      <point x="-533" y="-22"/>
      <point x="-662" y="-85"/>
      <point x="-732" y="-169"/>
      <point x="-732" y="-223" type="qcurve" smooth="yes"/>
      <point x="-732" y="-268"/>
      <point x="-687" y="-307"/>
      <point x="-649" y="-307" type="qcurve" smooth="yes"/>
      <point x="-621" y="-307"/>
      <point x="-567" y="-291"/>
      <point x="-545" y="-275" type="qcurve"/>
      <point x="-517" y="-403" type="line"/>
      <point x="-559" y="-427"/>
      <point x="-649" y="-450"/>
    </contour>
  </outline>
</glyph>
<glyph name="brevebelowcomb" format="2">
  <unicode hex="032E"/>
  <anchor x="-503" y="-0" name="_bottom"/>
  <outline>
    <contour>
      <point x="-606" y="-542" type="curve" smooth="yes"/>
      <point x="-399" y="-542"/>
      <point x="-228" y="-396"/>
      <point x="-205" y="-186" type="curve"/>
      <point x="-372" y="-186" type="line"/>
      <point x="-386" y="-316"/>
      <point x="-473" y="-400"/>
      <point x="-590" y="-400" type="curve" smooth="yes"/>
      <point x="-718" y="-400"/>
      <point x="-780" y="-317"/>
      <point x="-758" y="-186" type="curve"/>
      <point x="-926" y="-186" type="line"/>
      <point x="-963" y="-393"/>
      <point x="-827" y="-542"/>
    </contour>
  </outline>
</glyph>
<glyph name="macronbelowcomb" format="2">
  <unicode hex="0331"/>
  <anchor x="-706" y="0" name="bottom"/>
  <outline>
    <contour>
      <point x="-1109" y="-389" type="line"/>
      <point x="-1077" y="-245" type="line"/>
      <point x="-439" y="-245" type="line"/>
      <point x="-470" y="-389" type="line"/>
    </contour>
  </outline>
</glyph>
<glyph name="strokeshortcomb" format="2">
  <unicode hex="0335"/>
  <anchor x="-602" y="524" name="_bar"/>
  <outline>
    <contour>
      <point x="-288" y="456" type="line"/>
      <point x="-242" y="592" type="line"/>
      <point x="-916" y="592" type="line"/>
      <point x="-962" y="456" type="line"/>
    </contour>
  </outline>
</glyph>
<glyph name="lowernumeral-greek" format="2">
  <advance width="450"/>
  <unicode hex="0375"/>
  <outline>
    <contour>
      <point x="-74" y="-420" type="line"/>
      <point x="181" y="75" type="line"/>
      <point x="35" y="75" type="line"/>
      <point x="-259" y="-420" type="line"/>
    </contour>
  </outline>
</glyph>
<glyph name="lownumeralsign" format="2">
  <advance width="450"/>
  <unicode hex="0375"/>
  <outline>
    <contour>
      <point x="-154" y="-420" type="line"/>
      <point x="83" y="79" type="line"/>
      <point x="232" y="79" type="line"/>
      <point x="34" y="-420" type="line"/>
    </contour>
  </outline>
</glyph>
<glyph name="tonos" format="2">
  <advance width="488"/>
  <unicode hex="0384"/>
  <anchor x="378" y="984" name="_top"/>
  <outline>
    <contour>
      <point x="517" y="1170" type="line"/>
      <point x="786" y="1516" type="line"/>
      <point x="583" y="1516" type="line"/>
      <point x="334" y="1170" type="line"/>
    </contour>
  </outline>
</glyph>
<glyph name="dieresistonos" format="2">
  <unicode hex="0385"/>
  <anchor x="-602" y="984" name="_top"/>
  <outline>
    <contour>
      <point x="-455" y="1250" type="line"/>
      <point x="-260" y="1564" type="line"/>
      <point x="-430" y="1564" type="line"/>
      <point x="-595" y="1250" type="line"/>
    </contour>
    <contour>
      <point x="-777" y="1171" type="curve" smooth="yes"/>
      <point x="-707" y="1171"/>
      <point x="-636" y="1230"/>
      <point x="-636" y="1313" type="curve" smooth="yes"/>
      <point x="-636" y="1371"/>
      <point x="-675" y="1412"/>
      <point x="-735" y="1412" type="curve" smooth="yes"/>
      <point x="-806" y="1412"/>
      <point x="-877" y="1352"/>
      <point x="-877" y="1270" type="curve" smooth="yes"/>
      <point x="-877" y="1215"/>
      <point x="-837" y="1171"/>
    </contour>
    <contour>
      <point x="-250" y="1171" type="curve" smooth="yes"/>
      <point x="-180" y="1171"/>
      <point x="-109" y="1230"/>
      <point x="-109" y="1313" type="curve" smooth="yes"/>
      <point x="-109" y="1370"/>
      <point x="-148" y="1412"/>
      <point x="-207" y="1412" type="curve" smooth="yes"/>
      <point x="-277" y="1412"/>
      <point x="-348" y="1352"/>
      <point x="-348" y="1270" type="curve" smooth="yes"/>
      <point x="-348" y="1215"/>
      <point x="-310" y="1171"/>
    </contour>
  </outline>
</glyph>
<glyph name="Delta" format="2">
  <advance width="1362"/>
  <unicode hex="0394"/>
  <outline>
    <contour>
      <point x="-57" y="0" type="line"/>
      <point x="-22" y="169" type="line"/>
      <point x="760" y="1400" type="line"/>
      <point x="971" y="1400" type="line"/>
      <point x="1246" y="169" type="line"/>
      <point x="1211" y="0" type="line"/>
    </contour>
    <contour>
      <point x="213" y="186" type="line"/>
      <point x="1030" y="186" type="line"/>
      <point x="817" y="1143" type="line"/>
    </contour>
  </outline>
</glyph>
<glyph name="Theta" format="2">
  <advance width="1695"/>
  <unicode hex="0398"/>
  <outline>
    <contour>
      <point x="804" y="-30" type="curve" smooth="yes"/>
      <point x="1265" y="-30"/>
      <point x="1666" y="369"/>
      <point x="1666" y="828" type="curve" smooth="yes"/>
      <point x="1666" y="1171"/>
      <point x="1418" y="1430"/>
      <point x="1027" y="1430" type="curve" smooth="yes"/>
      <point x="566" y="1430"/>
      <point x="167" y="1034"/>
      <point x="167" y="566" type="curve" smooth="yes"/>
      <point x="167" y="223"/>
      <point x="416" y="-30"/>
    </contour>
    <contour>
      <point x="1180" y="623" type="line"/>
      <point x="1230" y="783" type="line"/>
      <point x="626" y="783" type="line"/>
      <point x="575" y="623" type="line"/>
    </contour>
    <contour>
      <point x="833" y="163" type="curve" smooth="yes"/>
      <point x="567" y="163"/>
      <point x="384" y="331"/>
      <point x="384" y="586" type="curve" smooth="yes"/>
      <point x="384" y="931"/>
      <point x="648" y="1237"/>
      <point x="1001" y="1237" type="curve" smooth="yes"/>
      <point x="1271" y="1237"/>
      <point x="1450" y="1069"/>
      <point x="1450" y="814" type="curve" smooth="yes"/>
      <point x="1450" y="469"/>
      <point x="1186" y="163"/>
    </contour>
  </outline>
</glyph>
<glyph name="Lambda" format="2">
  <advance width="1335"/>
  <unicode hex="039B"/>
  <outline>
    <contour>
      <point x="105" y="0" type="line"/>
      <point x="876" y="1120" type="line"/>
      <point x="923" y="0" type="line"/>
      <point x="1142" y="0" type="line"/>
      <point x="1064" y="1400" type="line"/>
      <point x="853" y="1400" type="line"/>
      <point x="-134" y="0" type="line"/>
    </contour>
  </outline>
</glyph>
<glyph name="Xi" format="2">
  <advance width="1252"/>
  <unicode hex="039E"/>
  <outline>
    <contour>
      <point x="32" y="0" type="line"/>
      <point x="70" y="181" type="line"/>
      <point x="1049" y="181" type="line"/>
      <point x="1012" y="0" type="line"/>
    </contour>
    <contour>
      <point x="278" y="636" type="line"/>
      <point x="316" y="807" type="line"/>
      <point x="1071" y="807" type="line"/>
      <point x="1034" y="636" type="line"/>
    </contour>
    <contour>
      <point x="304" y="1220" type="line"/>
      <point x="341" y="1400" type="line"/>
      <point x="1295" y="1400" type="line"/>
      <point x="1257" y="1220" type="line"/>
    </contour>
  </outline>
</glyph>
<glyph name="Sigma" format="2">
  <advance width="1141"/>
  <unicode hex="03A3"/>
  <outline>
    <contour>
      <point x="882" y="0" type="line"/>
      <point x="942" y="182" type="line"/>
      <point x="254" y="182" type="line"/>
      <point x="801" y="723" type="line"/>
      <point x="566" y="1218" type="line"/>
      <point x="1264" y="1218" type="line"/>
      <point x="1324" y="1400" type="line"/>
      <point x="398" y="1400" type="line"/>
      <point x="343" y="1234" type="line"/>
      <point x="576" y="731" type="line"/>
      <point x="-24" y="167" type="line"/>
      <point x="-78" y="0" type="line"/>
    </contour>
  </outline>
</glyph>
<glyph name="Psi" format="2">
  <advance width="1618"/>
  <unicode hex="03A8"/>
  <outline>
    <contour>
      <point x="748" y="0" type="line"/>
      <point x="857" y="324" type="line"/>
      <point x="1360" y="327"/>
      <point x="1628" y="636"/>
      <point x="1668" y="1244" type="curve"/>
      <point x="1683" y="1299"/>
      <point x="1693" y="1373"/>
      <point x="1707" y="1420" type="curve"/>
      <point x="1500" y="1385" type="line"/>
      <point x="1485" y="1335"/>
      <point x="1479" y="1277"/>
      <point x="1466" y="1229" type="curve"/>
      <point x="1448" y="824"/>
      <point x="1314" y="524"/>
      <point x="916" y="508" type="curve"/>
      <point x="1212" y="1400" type="line"/>
      <point x="1011" y="1400" type="line"/>
      <point x="718" y="519" type="line"/>
      <point x="581" y="553"/>
      <point x="465" y="620"/>
      <point x="465" y="777" type="curve" smooth="yes"/>
      <point x="465" y="970"/>
      <point x="567" y="1251"/>
      <point x="705" y="1380" type="curve"/>
      <point x="523" y="1420" type="line"/>
      <point x="372" y="1298"/>
      <point x="262" y="960"/>
      <point x="262" y="731" type="curve" smooth="yes"/>
      <point x="262" y="494"/>
      <point x="429" y="388"/>
      <point x="658" y="341" type="curve"/>
      <point x="546" y="0" type="line"/>
    </contour>
  </outline>
</glyph>
